<?xml version="1.0" encoding="UTF-8" standalone="no"?>
<!-- Created with Inkscape (http://www.inkscape.org/) -->

<svg
   xmlns:dc="http://purl.org/dc/elements/1.1/"
   xmlns:cc="http://creativecommons.org/ns#"
   xmlns:rdf="http://www.w3.org/1999/02/22-rdf-syntax-ns#"
   xmlns:svg="http://www.w3.org/2000/svg"
   xmlns="http://www.w3.org/2000/svg"
   xmlns:sodipodi="http://sodipodi.sourceforge.net/DTD/sodipodi-0.dtd"
   xmlns:inkscape="http://www.inkscape.org/namespaces/inkscape"
   width="297"
   height="210"
   viewBox="0 0 1052.3622 744.09448"
   id="svg2"
   version="1.1"
   inkscape:version="0.91 r13725"
   sodipodi:docname="tennis-players.svg">
  <defs
     id="defs4" />
  <sodipodi:namedview
     id="base"
     pagecolor="#ffffff"
     bordercolor="#666666"
     borderopacity="1.0"
     inkscape:pageopacity="0.0"
     inkscape:pageshadow="2"
     inkscape:zoom="0.35"
     inkscape:cx="420.77614"
     inkscape:cy="365.41481"
     inkscape:document-units="px"
     inkscape:current-layer="layer1"
     showgrid="false"
     inkscape:window-width="1366"
     inkscape:window-height="748"
     inkscape:window-x="-4"
     inkscape:window-y="-4"
     inkscape:window-maximized="1"
     inkscape:showpageshadow="false" />
  <metadata
     id="metadata7">
    <rdf:RDF>
      <cc:Work
         rdf:about="">
        <dc:format>image/svg+xml</dc:format>
        <dc:type
           rdf:resource="http://purl.org/dc/dcmitype/StillImage" />
        <dc:title></dc:title>
      </cc:Work>
    </rdf:RDF>
  </metadata>
  <g
     inkscape:label="Layer 1"
     inkscape:groupmode="layer"
     id="layer1"
     transform="translate(0,-308.26772)">
    <path
       style="opacity:1;fill:#000000;fill-opacity:1;fill-rule:evenodd;stroke:none;stroke-width:1px;stroke-linecap:butt;stroke-linejoin:miter;stroke-opacity:1"
       d="m 238.81788,470.34022 -4.65925,0.3147 -4.34385,1.19684 -3.0224,1.00677 -5.35131,2.07828 -3.77784,2.26627 -3.33707,2.32963 -2.07761,1.63687 -1.63687,-0.0627 -1.19615,1.00677 -0.31469,0.88144 -0.3147,1.19683 -2.01494,1.95158 -1.8889,1.76288 -1.19615,-0.0634 -1.63685,1.88891 -1.19614,1.2595 -1.1335,0.75542 0,1.2595 -1.63685,2.0776 -1.13349,1.8889 -1.07012,1.69953 -1.38553,-0.18868 -0.94414,0.25204 -0.75538,1.51085 -1.44822,2.89637 -2.07755,3.27373 -0.62943,1.32217 0.3147,0.88144 0.69208,1.07013 -1.1328,2.32963 -0.37807,1.07012 -1.19615,-0.44072 -0.81875,0.25204 -0.81807,2.14095 -1.00751,3.46241 -0.69273,3.21108 0,1.00746 0.18936,0.88144 -0.25202,1.51085 0,2.89637 -0.0633,1.88891 -0.62943,0.6294 0.0634,0.94411 0.25137,1.19683 -0.75545,3.0217 -1.07009,3.46312 -1.19617,3.21106 -1.38553,3.71446 -2.01423,5.41468 -2.51898,6.23277 -2.20361,4.21853 -1.00679,1.00746 -1.57419,1.88891 -1.44821,1.32216 -1.70021,0.56606 -0.69206,0.25204 -0.18938,0.56674 0.3154,1.13348 -0.18938,0.75542 -0.75543,-1.07013 -1.44818,-1.32216 -1.19615,-0.37806 -1.8889,-0.18868 -1.19615,0.37737 -0.31473,1.25949 -0.69273,2.20361 -0.12602,1.82556 -0.62941,1.19614 -1.69954,0.44073 -1.63754,-0.25135 -1.38486,-0.12602 -1.07009,0.44073 -0.88144,1.19614 -0.44072,1.19614 -1.51155,0.31471 -0.88144,-0.12602 -1.00679,0.50407 -0.63008,1.19615 -0.18871,1.38483 -0.81875,0.81877 -1.51088,0.69277 -0.69273,0.56674 -0.37736,1.07013 0.25201,1.07012 0,1.00746 -0.18935,1.13348 -0.9441,0.62941 -0.62943,1.07013 -0.12602,1.00746 0.0627,1.00746 -0.88144,1.13349 c 0,0 -1.13317,1.95177 -1.19615,2.20361 -0.0629,0.25184 -1.5742,2.77035 -1.5742,2.77035 l -0.94409,1.63687 c 0,0 -0.9443,-0.12602 -1.19615,-0.12602 -0.25185,0 -1.88891,0.3147 -1.88891,0.3147 l -0.81879,1.07013 -1.13277,0.94479 -0.0634,1.00746 0.0634,1.00678 -0.25205,0.81878 -1.00747,-0.0627 -1.44819,0.0627 -0.75542,0.88144 -0.25203,0.88145 0.31472,0.81877 -0.0627,0.88145 -0.50338,1.00678 -1.8889,2.64433 -1.32216,2.89636 -1.25951,2.45565 -0.56674,1.82555 -1.63687,1.70022 -0.88145,1.88891 -0.3147,1.69953 0.56676,2.07759 1.2588,1.88891 1.19684,2.01492 0.44072,1.63687 1.38482,1.95157 1.19614,1.57421 1.76289,2.07759 1.32216,1.51153 0.0634,1.19615 -0.44072,2.58098 -0.44072,1.57419 -0.25203,1.19615 0.7554,1.19615 0.3147,1.07082 -0.75542,6.23277 -0.9441,6.35879 -1.07082,7.24092 -0.3147,4.78458 -0.12602,4.2812 0.56673,4.65926 0.0634,2.95903 0.44073,4.09252 0.25134,3.4631 -0.31471,2.707 -0.12601,1.88891 0.37806,1.82555 2.20361,1.82624 2.95902,1.32217 3.27374,0.6294 3.02239,-0.12602 3.71445,-1.00746 4.47057,-2.32962 5.16267,-2.45496 2.51831,-1.57421 2.70698,-1.32216 2.20361,-1.38484 0.9448,1.25881 0.50338,3.08506 0.42697,4.087 1.42405,3.56159 2.13751,4.27362 3.20489,3.38392 3.3839,2.84885 3.5616,2.84953 1.7808,4.27362 1.78076,6.5888 1.95845,7.65756 1.42481,8.36958 1.2464,6.5888 0.084,0.92205 -0.53506,0.0634 -1.10181,0.3147 -0.44072,0.8181 -0.37807,1.13346 -0.12602,1.66853 -0.18867,1.19616 -0.62941,0.78709 -1.16516,1.57422 -0.40904,0.91243 -0.44072,1.00746 -1.79456,1.60589 -1.00747,1.57352 -0.28301,1.38553 -0.37808,0.88144 -1.10179,0.44072 -0.78709,1.16445 -0.44072,1.13347 -3.12293,2.96524 -2.49286,2.84953 -4.36315,4.00645 -1.86961,1.51363 -0.8904,1.24639 0.17837,1.69199 -6.67831,9.70549 -5.25354,8.3696 -3.2049,5.52001 -3.0279,7.56871 -2.1368,5.87676 -0.97919,3.0272 -0.44557,1.51362 -1.8696,4.36315 -1.42482,1.95845 -1.69124,1.86962 -1.95916,1.87032 -1.86961,1.60243 -0.62322,1.15757 -0.35603,2.40403 -0.7127,2.13678 -0.80159,2.84957 -0.17767,1.7808 -0.80154,2.58236 -0.53437,4.54079 -1.42409,2.93839 -3.73993,7.03363 -4.36316,7.12317 -2.31514,6.41112 -4.36248,15.49274 -2.76002,11.7535 -5.3424,21.19113 -2.315156,9.43839 -2.04796,5.52001 -0.26719,0.89041 -1.5136,-0.0889 -0.89039,1.24647 -0.44556,0.80152 -1.69126,0.0889 -1.87032,0.80152 -0.97921,2.13686 -0.44486,2.31519 0.17767,1.60236 -1.06805,0.26721 -0.26719,0.97926 -1.33595,0.62319 -3.5616,0.71274 -1.42477,0.17765 -0.97922,0.35667 -0.44483,1.42411 0.80087,0.53441 1.6031,0.35599 c 0,0 1.51325,0.17808 1.95847,0 0.44519,-0.17808 2.13749,-0.80084 2.13749,-0.80084 l 0.62321,-0.26721 -1.33595,1.42472 -3.0272,3.65044 -3.47273,3.82877 -1.42478,1.86965 -0.80088,1.06873 -0.35602,0.80093 -0.80155,0.44553 -1.7808,1.86966 -1.06873,0.89039 -0.62323,1.78078 0.0895,0.80153 -0.53437,0.53432 -0.31541,0.66386 -0.12602,2.64438 0.63008,2.14096 -0.12599,1.13345 -0.37807,2.77032 0.25205,1.63687 0.75539,2.14028 1.38486,0.88152 6.42213,0.126 7.30359,0 5.5407,-0.62944 4.15518,-1.13346 3.02171,-2.01502 1.637536,-2.26622 0.25136,-2.6443 0.75543,0.50333 2.14091,0.25205 3.0224,-0.37739 3.27376,-0.8814 2.26626,-1.25948 1.76288,-1.38482 0.63008,-1.889 0,-1.3855 0.37738,-1.51084 0,-1.51084 -0.62938,-3.90378 -1.25952,-1.76289 -0.37736,-1.13354 -0.37806,-0.75537 0.37806,-0.75547 0.62937,-0.8814 0.37808,-0.88149 -0.126,-3.52578 0.0194,-1.81657 -0.26718,-0.53364 -0.62321,-0.17842 0.53437,-1.78079 0.6232,-1.69191 0,-1.51367 -0.35603,-1.33525 -0.53436,-0.44554 -0.35602,-0.5344 0.44486,-0.71197 -0.35602,-0.80161 -0.53436,-0.53433 -0.4449,-0.62327 2.6712,-6.49924 4.09596,-6.76712 4.808,-9.08237 4.27361,-7.65753 3.91762,-6.58878 5.16471,-7.30087 3.56156,-7.30149 2.84887,-9.25998 1.7808,-8.01356 1.95914,-5.87675 0.71204,-3.56156 0.89041,-2.31517 3.91827,-3.73927 4.09529,-4.27362 8.37026,-7.30151 3.56089,-2.31517 2.49354,-2.67118 5.16402,-5.52005 7.4792,-4.98636 8.54792,-5.34236 5.02215,-3.34123 3.14772,-2.39227 1.38553,-0.88145 2.64433,2.14025 1.76288,1.38553 0.12602,3.1477 -0.75543,8.43707 -0.37807,12.59157 -0.12601,13.59967 0.25205,14.35517 0.12601,11.58477 0.6294,7.42892 1.1335,3.90381 1.51083,2.89568 1.76288,1.7629 0.62941,2.89637 1.7629,3.27372 1.8889,2.01494 3.14841,1.76289 2.76967,1.51084 5.54069,1.13349 3.65177,0.88144 3.52579,1.25948 2.3923,1.00749 3.90385,-1.00749 4.40721,0 4.53323,0.25135 3.1477,0.63008 6.67419,2.01425 9.56988,2.26698 7.68093,1.2588 9.44384,1.63758 8.05626,1.82694 4.89685,1.69196 4.0071,1.7808 4.54082,2.22634 3.47273,2.13681 1.33527,1.15757 0.17835,1.06806 0.53437,0.62323 -0.71272,0.89039 0.35602,0.62323 -0.44485,0.71267 0.35605,0.62328 1.15757,1.33524 2.13679,1.06873 1.51362,0.71206 -0.71206,0.89039 0,0.71274 0.62321,0.35599 0.35603,0.62319 0.35604,0.35607 -1.33528,2.04799 -0.356,1.24637 0.26718,1.4248 0.35603,1.69192 0.71203,1.24638 1.24639,0.53441 2.1375,0.2672 -0.0895,1.69132 -0.44485,0.62387 0.53436,1.06804 0.26651,0.8904 -0.53369,0.35598 -0.4455,0.97995 0.62317,0.71206 0.17838,0.97917 0.17764,1.33602 -0.712,0.71197 0.0888,0.71274 0.44556,0.89039 0.0888,2.58171 -0.26718,2.67118 -0.44485,3.38392 -0.35599,2.31442 0,1.87034 0.53366,2.04799 0.97992,2.58171 1.24642,1.33593 1.33526,1.15751 2.2263,0.80088 1.51362,-0.089 2.31517,-0.356 3.02724,-0.71207 2.93833,-1.51426 2.9384,-2.04731 2.84885,-2.93838 2.9384,-3.7399 1.51358,-2.76005 1.60313,-2.49353 1.24642,-1.86956 1.86962,-3.11612 0.97924,-4.00711 0.7127,-3.65044 -0.80155,-3.11671 -0.89039,-2.75996 0,-2.22564 0.35602,-2.40406 0.71275,-2.13754 1.42475,-1.7807 1.51358,-1.86965 1.24644,-2.22567 1.06806,-3.9183 0.89041,-3.73925 0.80154,-4.63034 -0.26717,-2.84885 -1.06806,-2.5824 -1.24711,-1.51357 -1.33524,-1.06877 -1.60245,-1.06806 -3.11675,-1.24639 -1.69193,-0.0895 -2.84886,0.35601 -1.60312,-0.35601 -6.49998,-1.33524 -2.58167,-0.26722 -1.86962,-0.62319 -2.58234,0 -2.04798,0.26718 -0.89041,0.35601 -1.60242,0.44487 -0.80159,0.44552 -1.06873,0.26718 -0.89041,0 -5.07516,-1.87028 -8.90397,-4.7185 -10.15038,-5.43188 -8.63677,-4.62966 -7.39034,-3.9183 -4.27363,-2.6705 -6.58879,-2.58235 -4.00714,-0.97921 -4.54082,-0.97991 -6.05439,-0.97921 -4.71917,-0.53441 -4.09596,-0.53436 -3.38391,-0.17767 -1.42409,0 0.35603,-0.44554 0,-1.86962 0.35601,-1.33596 -0.89041,-1.06802 -0.0888,-1.15761 2.22563,-5.164 2.93839,-7.47988 2.84953,-7.21201 1.60242,-7.39035 0.62323,-5.69839 0.17836,-4.89685 0.35601,-4.808 1.06877,-3.02788 0.53365,-2.49283 0,-1.33596 2.76071,-1.60242 1.95846,-1.42478 0.62321,-1.42475 0.35672,-3.91758 0.97924,-5.6096 0.44484,-3.91758 1.95914,-5.3424 1.51363,-3.0272 0.26717,-3.02718 1.15758,-3.56161 -0.17836,-2.84953 1.33595,-2.76005 -0.17838,-2.93833 0.80159,-5.96561 0.0888,-3.9176 -0.356,-2.58235 0.62319,-0.71203 -0.17835,-1.24644 -0.62322,-0.97992 -0.89039,-3.82877 -1.69129,-5.34169 -2.31516,-4.63034 -2.76,-4.63033 -1.69196,-2.93837 -1.06877,-3.56156 -1.60242,-3.11604 -2.84953,-4.36316 -1.51362,-2.404 -1.33524,-1.1576 -0.53437,-0.26718 0.17832,-0.80087 -0.71272,-0.53436 -0.62318,-0.17838 0.62318,-0.80089 0.35602,-1.15757 -0.6232,-1.78075 -1.42478,-1.24644 -1.95845,-0.8904 0.26719,-2.67121 -0.62319,-1.42475 -1.33595,-0.53437 0.26718,-1.06877 -0.71203,-0.71203 0.17766,-1.42477 -0.53436,-1.06806 0.26719,-0.97992 -0.26719,-0.97922 -1.24644,-1.24642 -1.24639,-1.2464 0.80155,-3.0279 -0.53437,-1.60246 -0.89039,-1.78078 -0.44485,-0.53437 0.44485,-1.33525 0.17834,-1.51361 -0.80157,-1.33594 -0.71201,-0.80087 0.53365,-2.7607 0,-1.42478 -0.71203,-2.04728 -0.80154,-0.6239 0.0895,-1.69128 -0.26718,-1.69196 -0.26719,-1.78078 -0.71274,-1.33526 0.53439,-0.89039 0,-1.15758 -0.80157,-1.24642 -0.71206,-0.80156 -0.17833,-2.404 -1.06806,-1.15759 -0.53441,-0.6232 0.53441,-1.95915 -0.26718,-0.97923 -0.71207,-1.42477 -0.0895,-0.6232 0,-2.404 -0.71203,-4.09596 -1.33595,-4.62965 -1.2464,-3.65111 -0.71207,-1.86962 -0.9799,-1.5136 -1.69125,-6.49996 -1.4248,-4.00644 -1.42478,-3.73993 -2.22564,-4.27362 -1.51358,-2.6712 -2.1375,-1.78078 -1.78081,-0.44555 2.22633,-1.33525 2.04798,-0.80156 0.89039,-1.15758 0.0889,-1.69196 -1.24644,0.71273 -1.33591,0.44486 -1.24644,-0.35603 2.40402,-0.8904 1.2471,-1.15757 0.53365,-1.42478 -1.24639,0.97992 -1.42476,0.71204 1.24709,-1.51361 1.95847,-1.24641 0.53437,-1.87031 -1.51363,0.97991 -0.80154,0.53438 -0.89039,-0.0895 1.42475,-1.15757 1.15759,-1.24643 0.0889,-1.60243 -1.60247,1.24642 -1.42477,0.17836 -1.86961,0.26649 -1.51362,-0.53369 -0.26717,-0.62321 3.2049,0.17767 2.13749,-0.53437 1.06806,-1.15759 -2.13683,0.17835 -1.69195,0 -2.49283,-0.71204 -0.97924,-0.80155 2.49284,0.0888 1.60246,-0.44485 -1.60246,-0.26719 -1.69196,-0.2672 1.06877,-0.89039 0.89037,-0.35602 -1.95914,-0.71273 -1.51362,-1.24641 1.06876,-1.15759 -1.06876,-0.97923 -0.89039,-1.33524 1.42479,-0.8904 1.15758,-0.35671 -0.44555,-0.89039 1.60314,-0.53369 0.80155,-1.42477 -0.0895,-1.95915 0.26718,-1.86962 0.44554,-1.69196 -0.26717,-1.78079 -1.42476,-0.89039 -0.97925,-0.97924 -0.35671,-1.78079 -1.06805,-1.42477 -1.69196,-1.15758 -0.62321,-0.71204 -0.0889,-0.80157 0.44488,-0.71204 0.44553,-1.33593 -0.44553,-0.8904 -0.80087,-1.24642 0.0888,-1.06876 0.97925,-0.53368 1.06873,0.80088 0.26719,0.80156 -0.0895,-1.69196 -1.33524,-0.97923 -1.60314,-0.89039 -0.80085,-0.97923 0.71203,-0.8904 2.22632,0.17767 1.69129,1.15758 -1.51362,-2.13681 -2.49283,-0.44485 -1.33592,0.53368 -0.26718,-0.71204 0.0895,-1.15757 -0.71274,-1.42478 -1.86964,-0.53437 -1.06873,0 -0.0888,-1.1569 0.35602,-1.78079 -0.71203,-1.69196 -0.53437,1.7808 -0.17768,0.80155 -1.60312,-2.13749 -0.44484,-2.0473 0.17766,-2.04798 1.33591,-1.60312 1.06808,-1.06806 -1.7808,0 -0.17767,-0.71274 -2.04798,1.06876 -1.78076,0.8904 -0.97926,2.1368 -0.80155,-0.71204 -0.71204,-1.87031 -1.95915,-1.15758 1.51362,2.76071 0.26718,1.95846 1.42476,1.78079 0.44485,1.42476 -0.53436,0.44555 -2.76002,-1.60312 -1.5136,-1.7808 -0.80157,-2.13681 -0.2672,-1.51361 -0.26648,3.11605 2.22564,3.47274 2.31517,1.7808 2.22565,0.80156 0.97991,1.15758 1.42409,0.71204 -0.62322,0.97923 -0.89039,0.26719 -0.89039,-0.71204 -1.95847,-0.17836 -1.51362,0.35602 -1.87028,0.0895 -2.67118,-0.80157 -1.24644,-0.71204 -1.06806,-0.44553 -1.69196,-0.35602 -1.42478,0.26718 -0.71201,0.80156 -0.97992,0.17767 -1.33528,-0.35602 -1.42477,0.0888 -0.71204,0.97992 -1.33593,0.0888 -1.06808,0.97922 -0.3567,0.8904 -0.97921,0.53438 -1.06806,0.44485 -2.04799,0.35671 -1.2471,0.26719 -0.53369,0.97923 -0.26719,1.06806 -0.89039,0.3567 -1.15759,0.35603 0,0.89039 -0.62321,0.44486 -1.2464,0.35671 -0.26717,0.80087 0.17766,1.15758 -0.89041,0.35602 0.62319,1.60313 -0.97921,0.44485 -1.1576,0.26719 -0.39115,1.00058 -0.3147,1.19615 -0.81875,1.44818 -1.44751,0.94411 -0.81879,1.13348 -0.31468,1.32216 -0.69278,1.00747 -3.21106,2.51831 -3.21107,3.14772 -3.2104,2.89637 -2.89634,2.64432 2.07757,-2.70699 1.07013,-1.82624 0.44072,-2.51831 0,-1.69953 0.94481,-1.51155 1.38482,-0.9441 1.57421,-1.32217 1.63685,-1.70022 1.51086,-0.94411 1.38553,-0.81878 0.69208,-1.07012 1.70019,-1.32217 1.63688,-0.94411 1.25951,-1.00746 0.50337,-1.5742 -0.69274,-1.32217 -0.88144,-0.50339 -1.19617,-0.56674 -0.75543,-0.50407 0.69278,-1.88891 1.25882,-2.64433 2.45562,-2.95903 3.08505,-3.0217 0.81879,-1.07082 -0.3147,-1.13279 1.44751,-1.8889 1.19682,-0.0634 1.07015,-0.56605 -0.31473,-0.81878 -0.18935,-0.56674 1.63753,-1.82556 2.01426,-1.44818 1.51152,-1.38552 3.71448,-2.45495 6.61082,-4.02985 7.55493,-4.02917 8.43706,-4.15517 3.84048,-1.63756 0.56674,-0.69207 1.38482,-1.00747 4.40721,-1.51084 2.77035,-0.88145 1.19615,0.56605 1.44818,-0.50339 5.16266,-2.26627 3.21105,-1.82624 0.44072,-0.69276 0,-0.88144 3.08507,-1.88822 0.94412,-0.6301 1.32216,0.6301 1.8889,-0.88144 4.2812,-2.95973 2.58166,-2.2036 0.44072,-1.25882 4.40721,-4.28119 7.17761,-7.55562 5.41466,-7.99566 3.08506,-5.72939 1.82555,-5.22599 0.3147,-5.03663 -0.50337,-6.04408 -1.70024,-5.16265 -2.39231,-3.96649 -3.39972,-3.27443 -4.974,-3.6511 -4.97395,-2.26697 -5.72938,-1.00746 -4.40721,-0.44072 z m -52.19383,66.80103 0.56672,1.5742 1.1328,2.51831 1.63754,2.07758 1.9516,1.44819 2.07755,1.51085 2.14096,0.9448 2.58098,0.25135 2.51831,0.18937 -2.39231,1.19615 -1.88888,0.94411 -0.37739,0.50407 -0.81879,0 -1.63682,0.88145 -1.76289,1.07012 -0.88144,0.81809 -0.56679,0.69276 -0.56671,-0.0627 -1.07011,0.25135 -1.76289,1.07082 -1.51087,1.00746 -0.31538,0.81809 -0.56607,0 -1.25951,0.75542 -1.95155,1.38552 -0.81879,0.81809 -0.18865,0.44072 -0.56678,0.31471 -0.62939,-0.18869 -1.25951,0.50408 -1.51083,1.00677 -1.63688,1.13348 0.56674,-1.19615 1.69952,-3.52577 1.19615,-2.70699 0.6301,-1.13349 2.14025,0.44072 1.13352,-1.51084 1.00743,-2.39298 1.32217,-3.0217 -0.75543,-1.25951 -0.50408,-0.6294 0.50408,-2.01492 0.81808,-3.02171 0.81879,-2.01492 0.37738,-1.44818 0.37807,-0.44072 z m -38.11557,82.05826 0.71274,0.35602 2.04727,1.33594 3.9183,2.76002 5.69839,3.56158 3.11604,1.95846 0.44557,0.80156 0,1.86962 0.35598,1.33594 1.33595,1.86963 1.15692,2.22633 0,2.67119 -0.89041,-1.51361 -2.9377,-3.11673 -3.3839,-3.20556 -4.45198,-4.09527 -3.91759,-3.91829 -2.67122,-2.49283 -0.62321,-1.33594 0.0888,-1.06806 z m -3.56159,31.78705 0.71273,0.2672 1.95847,2.31447 4.54081,4.27432 1.78079,1.95845 -1.78079,2.1375 -1.86962,2.22565 -1.86965,1.69196 -0.89037,-2.31517 -1.33595,-4.00644 -0.97923,-4.89752 -0.26719,-3.65042 z"
       id="path4147"
       inkscape:connector-curvature="0" />
    <path
       style="opacity:1;fill:#000000;fill-opacity:1;fill-rule:evenodd;stroke:none;stroke-width:1px;stroke-linecap:butt;stroke-linejoin:miter;stroke-opacity:1"
       d="m 771.23753,584.493 1.02707,0.30781 1.33488,0.41108 3.59479,0.20533 2.46522,0.51354 2.36197,0.20534 1.95168,0.10286 2.46483,0.10247 1.33528,0.41107 1.9513,0.61601 3.28698,1.12994 2.15663,2.2595 1.8488,2.8759 1.12955,2.5677 1.43816,2.36235 0.41066,0.61602 0.61642,0.6164 -0.10288,1.12955 0.41108,1.43814 0.41066,0.61602 3.38945,0.87298 1.43775,0.6164 1.6435,1.07831 2.00251,1.48939 1.02708,1.43775 0.82175,1.64349 0.25697,1.69471 -0.35944,1.12955 -0.4623,0.97585 -0.77051,0.66764 -0.77012,0.20533 -1.33528,-0.10247 -1.54062,-0.4623 -1.38651,-0.41068 -1.23242,-0.56516 -1.38653,-0.61601 -0.71886,-0.51354 -0.0516,1.28365 -0.0513,2.05416 0.20535,1.38652 -0.10248,1.43814 -0.25697,1.28365 -0.20532,1.33529 0,1.38651 0.46229,1.9513 0.57352,4.31245 -0.14536,2.17888 -0.65375,3.34058 -1.01675,4.21237 -0.65373,2.32384 -0.72603,1.88854 -1.01675,1.30708 -0.50837,1.81546 -0.87141,1.88854 -0.72642,1.74278 -0.87138,1.74318 -1.23481,1.45244 -1.52512,0.94407 -1.74278,0.4357 -1.30748,0.0727 -0.0361,0.47224 -0.21805,0.32686 -0.50838,0.29034 -0.29032,0.50837 0.0727,0.58106 -0.14535,0.61721 -0.29073,0.65373 -0.47183,0.47184 -0.21806,0.69028 -0.21765,1.16172 -0.18151,1.2348 -0.21805,1.19826 -0.14535,0.94407 0,0.54491 1.489,2.21502 0.79869,1.2344 1.67048,2.54188 0.43571,1.01675 0.50837,1.38016 0.58105,1.74278 0.50838,0.65374 0.14538,1.08944 0,1.45244 -0.0727,2.75953 0,1.81585 0.58105,1.37977 0.4357,0.87139 0.14536,1.52513 0.14496,1.38017 0.4357,0.94406 -0.0723,1.01676 0.14498,1.67049 0.94407,1.52513 0.72641,0.58065 0.72643,0.4361 0.36302,1.08904 -0.21805,1.01675 -0.50838,0.65374 -0.43569,0.43569 -0.21765,0.79911 0.29032,1.37976 0.50837,1.16212 0.50838,0.43569 0.0727,0.79871 0.29033,0.50838 0.58105,0.65374 0.72643,1.01675 0,1.01675 -0.21805,0.87139 -0.58106,0.65374 -0.4357,0.29034 0.29073,1.81585 0.0723,4.43002 0.21803,2.32423 0.0727,1.59742 -0.36302,1.52513 -0.14535,2.39691 -0.50838,1.52513 -0.79911,0.87138 -1.16172,1.23481 -0.29073,0.87138 -0.58105,0.94408 -0.8714,0.94406 -0.58106,0.8714 -0.0727,0.65373 -0.29034,1.08944 -0.58106,0.43569 -0.29032,0.7991 -0.50838,1.45246 -0.0727,1.2344 -0.43571,1.01675 -0.43569,0.7991 -0.36341,1.30708 -0.4357,1.01676 -0.65373,0.72642 -0.14497,0.58106 1.01675,3.7036 1.74278,5.01107 3.26831,5.51986 3.34058,5.66442 2.10618,3.48635 0.8714,1.16173 1.852,-1.01675 0.90791,-0.39917 1.01675,-0.18189 1.19827,-0.0723 1.34362,0.0361 0.98062,0.43569 0.76256,0.36302 0.14497,0.47223 0.6176,0.29033 0.83485,0.1819 0.50838,-0.0366 0.65373,0.14537 0.32686,0.32687 0.25419,-0.39955 0.68989,-0.14536 0.65375,0 c 0,0 0.65367,0.0726 0.83525,0.1815 0.18154,0.10894 0.65334,0.36341 0.65334,0.36341 l 0.43609,0.6172 0.10883,0.98061 -0.18151,1.16172 -0.58106,0.65374 -0.65375,0.36301 -0.54451,0.21805 0.0727,0.54452 0.29033,0.72642 0.25418,0.21765 0.61722,-0.0361 0.29073,0.29032 0.21765,0.4361 0.39953,0.29033 0.79873,0.39955 0.32686,0.39915 0,0.39955 0.32687,0.65375 0,0.54451 -0.14536,0.90793 -0.29035,0.79871 -0.21802,0.50838 -0.32648,0.54491 -0.32687,0.68988 0,0.68989 -0.47225,0.68988 -0.5445,0.32687 -0.98062,0.0727 -0.76257,-0.36301 -0.50837,-0.50838 -0.54451,-0.54491 -0.4357,-0.76257 -0.14536,-0.4357 -0.0366,-0.32686 -0.29035,0.47223 -0.43567,0.43569 -0.94409,0.58106 -1.08943,0.25419 -1.2348,0.58106 -1.16172,0.39915 -1.30748,0.14537 -1.52513,0 -1.52513,-0.10883 -1.63394,-0.1815 -0.65375,0 -0.25419,-0.25419 -0.39954,0.54452 -0.83486,0.39955 -1.19865,0.25419 -1.70664,0.43569 -1.56126,0.10883 -1.99737,0 -0.7987,-0.47184 -0.94408,-0.47223 -0.54492,-0.87139 -0.36302,-1.48899 -0.10881,-0.87139 -0.0727,-0.76256 -0.54492,-0.90793 -0.65335,-0.94407 -0.61759,-0.98021 0.14535,1.19825 0.0727,1.52514 -0.14536,2.28769 -0.29033,1.92428 -0.0365,1.77932 -0.14497,0.90793 0.10881,0.65374 0.72643,1.05289 0.4357,0.98062 0.21765,1.30708 0.0727,1.74317 -0.10881,1.52513 0.0361,1.52513 -0.18152,1.16211 -0.0361,0.76257 0.10881,0.36301 0.21805,0.87139 0.50838,0.98061 0.47183,1.19825 0.29073,1.23442 0.21765,1.1621 0.0366,1.23481 0,1.27094 -0.0727,1.16172 0,0.90792 0.0727,0.32687 1.04575,0.68034 0.41107,0.66764 0,0.97587 0.20533,0.41066 0.56478,0.1541 0.6164,0.46229 0.20534,0.66764 0.41107,1.12956 0.51354,1.07833 1.12956,0.97583 1.23241,0.92462 0.61639,0.15369 0.87299,-0.15369 1.02708,-0.35985 0.9242,0 0.77052,0.30822 0.66764,0.51352 0.51354,0.56517 0.25657,0.66726 0.35944,0.1541 0.66764,0 0.51355,0.25697 0.20532,0.97583 0.51354,0.82136 0.46231,0.6164 0.20533,0.97583 0.0516,0.61602 1.02708,0.20534 0.92421,0.4623 0.77011,0.46231 0.97586,0.71887 0.77049,0.20534 0.0512,0.35944 0.41067,0.10286 0.66764,0 0.30822,0.41069 0.1541,0.51354 -0.0513,0.35942 0,0.46232 1.18118,0.82173 7.24078,5.39196 5.39199,4.93007 7.39488,6.77888 6.06,7.7031 6.16248,8.21623 4.51898,5.44359 2.25949,3.08123 1.64349,1.33528 1.74595,1.02708 2.46483,2.67057 1.9517,2.15663 1.02707,2.15702 0.71888,2.15663 0.71886,2.05417 0.20535,3.4923 0.71888,1.33488 0.3082,1.84882 0.10288,2.5677 0.51351,2.87591 2.05417,3.59477 6.09417,12.95288 4.50269,10.89355 3.63133,11.61997 2.75952,8.71508 3.63132,8.13401 3.63131,5.95555 2.61456,3.4859 1.16212,0.87147 -0.14537,-1.16213 -0.29032,-0.7987 -0.0727,-0.79913 0,-0.58063 1.16173,0.43569 0.7264,0.58107 2.54188,0.29031 1.74319,0.50838 1.01675,0.94408 1.08904,1.01676 2.03351,0.58106 1.08942,0.5083 0.72644,0.50838 2.17886,0.21806 1.16172,-0.58107 1.01675,-0.50838 0.72643,-0.72635 0.7987,-1.37977 0.72642,-0.79913 0.65374,-1.01676 1.01675,-1.59741 0.36302,-1.08943 0.87138,-0.94407 0.7991,-0.50837 0.14497,1.08903 -0.79869,1.88852 -1.08946,2.03355 -1.08943,1.88814 -0.94407,1.52506 -1.01675,1.16213 -1.67049,0.50838 -1.01675,0.43569 1.08943,0.0728 1.16213,-0.21798 0.72602,0.21798 0.72641,1.01676 0.29034,1.08944 0.14536,1.16171 0.50837,0.43569 0.8714,0.29075 0.21803,0.36301 0.50838,-0.58107 1.3071,-0.21763 1.08943,0.29032 0.72643,0.21806 0.72602,-0.58107 1.08943,-0.0728 0.50838,0.50838 0.58105,0.43569 1.30748,0 0.8714,-0.14537 0.7987,0.58106 0.50837,0.58107 1.59781,-0.0728 2.32423,0.14537 1.96084,-1.01676 2.90488,-1.45245 2.39652,-0.94407 2.83262,-0.72645 3.12293,0 0.8714,0.21807 1.01675,0.14494 2.46918,2.46964 0.4357,2.75953 -1.45245,3.34094 -3.19561,3.19523 -4.64806,3.92209 -7.11727,4.50265 -2.03351,1.30708 -1.3071,0 -3.05025,1.30751 -2.0335,1.30707 -0.72642,-0.43569 -0.58066,1.30708 -2.75994,0.14537 -1.45243,0.4357 -0.8714,-0.29032 -2.90529,0.43569 -1.01675,1.45245 -3.05025,0.58107 -2.75953,1.16213 -0.87178,1.16171 -1.88816,1.59783 -3.77627,0.43569 -5.51985,0.58107 -7.40762,0.14528 -6.39083,-0.58106 -1.30749,-1.01668 -0.43569,-1.7432 0.87139,-0.87138 1.45245,-0.4357 -0.72602,-1.45245 -1.59782,-2.17889 0,-1.30708 0.58107,-1.16214 -0.29073,-2.32383 -0.72603,-4.21233 0.29033,-3.34103 0,-1.88814 0.4357,-2.46913 0.87178,-0.29041 -5.37449,-7.55335 -6.53621,-7.98862 -9.15078,-10.31289 -4.93838,-4.79305 -6.2459,-5.51944 -4.06701,-8.2794 -4.06701,-8.86043 -3.92163,-11.32924 0,-4.79345 -0.29073,-3.77627 -2.90491,-3.19564 -2.4692,-3.92163 -2.0335,-2.32424 -3.63131,-2.0335 -9.8768,-5.22912 -9.00581,-3.63092 -11.76533,-6.39125 -6.68118,-4.35734 -3.63131,-2.4692 -5.08376,-2.90528 -2.17888,-0.87141 0.14537,8.56972 0.29032,7.69833 -0.87138,7.8437 -0.72642,10.74819 -1.01675,9.29613 -1.01676,7.8437 -1.74277,6.10051 -1.88854,3.63131 -1.88815,2.75953 -1.30708,2.4692 -2.4692,1.88854 -1.5978,1.88813 -3.48596,1.30709 -19.75438,4.64807 -17.72049,5.66481 -10.60323,3.77669 -12.20102,3.63092 -13.79884,4.50312 -5.66482,2.17847 -4.21198,2.17889 -2.46921,1.30699 0.75462,1.551 0.0516,1.12951 -0.51353,0.92464 -1.48939,1.43773 -1.28366,1.12994 -1.23281,0.46198 -1.2324,0.66762 -0.20535,0.66762 -1.02709,0.30821 0.10288,1.07832 -0.71927,0.46232 -0.20534,0.87293 0.66764,4.1083 0.41108,2.51647 0.15371,2.82426 -0.15371,3.02999 -0.15411,2.46485 -0.41107,1.69474 -0.51354,0.92464 -0.41067,0.7701 -0.1541,1.07832 -0.56478,1.12994 0.15411,0.82173 0.51353,0.616 0.15371,0.82173 0.46229,0.97583 0.71889,0.616 0.20574,1.18123 0.10246,1.43815 -0.25657,1.64312 -0.20572,0.87292 -0.66726,0.66767 -0.41107,0.257 -0.20533,0.5135 -0.56478,0.3594 -0.56518,0.4107 -0.87296,0.4111 -1.28365,0.2565 -1.59225,0.051 -2.15663,-0.2566 -2.51647,-0.3594 -3.08123,-1.2841 -1.33528,-0.87297 -0.30781,-0.61592 -0.51354,0.1024 -2.2599,-1.38653 -2.41358,-2.41356 -1.9513,-2.36237 -2.46482,-3.38906 -1.59226,-2.7734 -1.43775,-1.64311 -0.41067,-1.18114 0,-1.07832 -0.41107,-1.18123 -2.05417,-2.46518 -1.69471,-1.90005 -0.87297,-0.15411 -1.18119,0 -0.66764,-0.7701 -0.56478,-1.59192 -1.02706,-1.07866 -1.12956,-0.66762 -0.30821,-0.9755 -0.35943,-1.07865 -1.38652,-1.69432 -1.12996,-1.79765 -1.48938,-1.90005 -0.20534,-1.12994 -0.56477,-1.54055 -0.97583,-1.79722 0.0512,-0.97584 -0.82132,-1.48901 -0.61642,-1.02746 -0.15411,-1.74594 -0.10246,-1.23242 0.20535,-0.51352 -0.0516,-0.5648 1.3353,-1.02709 1.12993,-0.30821 1.07831,-0.0512 0.51354,0.30819 0.3082,0.35945 0.61601,-0.0516 0.77052,0.3082 0.51354,0.1541 0.25659,-0.77011 1.02706,-0.71927 0.35984,-0.66764 0.25657,-0.71888 0.1541,-0.56477 0.82174,-0.20535 1.12956,-0.0516 0.66764,0.0516 0.30819,0.66764 0.41069,-0.15409 0.20573,-0.66764 2.00251,-0.3082 1.28406,-0.51354 1.2324,-0.77011 2.97838,-1.84883 1.43816,-0.61641 1.79719,-0.20533 1.07871,-0.0512 0.51354,0.41068 0.97543,-0.25659 1.12996,-0.15409 0.87296,0.41068 0.82177,0.35942 0.30778,0.82175 0.10288,1.02707 -0.1541,0.92421 0,0.56517 0.51354,0.10249 1.43814,-0.20534 2.46483,-1.0783 10.4392,-5.27957 8.13402,-5.22914 11.61996,-7.84368 11.18427,-7.55297 9.00543,-5.80978 7.84369,-3.34099 7.84329,-2.61456 7.55336,-0.87139 4.5027,0 3.77628,-0.58106 1.59781,-1.16172 1.45245,-1.16213 1.08943,-3.55863 0.0727,-2.90488 -0.79869,-3.05026 -1.16211,-3.12294 -1.67051,-3.92204 -2.0335,-7.11726 -1.45245,-5.37411 -1.01675,-6.10052 -0.29033,-4.35733 -0.14535,-2.61456 -5.51947,-1.16213 -3.34098,-1.45245 -2.4692,-1.74316 -1.30708,-3.05026 -0.14538,-3.77627 0.29035,-2.32424 -0.4357,-3.05026 0,-4.35736 0,-2.61456 1.1621,-2.32382 1.3071,-1.45284 -0.14497,-2.03351 -1.16213,-2.75955 -1.01675,-2.61455 -0.14535,-2.4692 -0.29032,-3.05026 -1.30749,-2.61457 -0.58067,-1.74315 -0.29073,-4.35736 -1.01675,-2.90488 -0.4357,-3.77669 0.8714,-4.21236 0.14535,-3.48596 0.58108,-3.77628 0.72602,-2.4692 0.58106,-1.30748 -1.30708,-1.45245 0,-0.87139 0.87137,-0.58106 0.58106,-0.87138 -0.43568,-1.01676 0.0604,-0.97902 0.51354,-0.4619 0.46191,-0.87339 0.10287,-0.92421 0.25657,-1.38651 0.92461,-0.46231 0.97544,-0.1541 0.35984,0.0516 -0.30822,-1.12995 0.30822,-1.23242 0.71887,-1.02707 0.87299,-0.56478 0.66764,0 0.51354,-0.35944 -0.20573,-0.4623 -0.61601,-0.66764 -0.20535,-1.12995 0.71888,-1.79718 0.0512,-1.38653 0.71888,-2.10539 0.51354,-2.20826 0.6164,-1.84882 0.35944,-0.9246 0.71886,-0.35945 0.82177,-0.56476 0.51354,-1.84883 0.10285,-0.77011 -0.46229,-1.28405 -0.30823,-2.10539 0.10288,-1.90006 0.51354,-1.18118 0.77011,-1.02708 0.3082,-0.77011 0.10287,-0.97584 -0.66764,-1.18119 -0.15409,-1.33528 0,-1.28364 0.616,-2.7218 0.56518,-0.97585 0.41067,-0.616 0,-1.43816 0.0512,-1.59185 -0.10249,-0.66764 -0.97583,0.82175 -2.15662,1.79719 -4.21159,4.21475 -4.93839,4.79304 -5.37449,6.24587 -4.64767,5.51946 -3.341,3.63132 -1.1621,2.32423 -1.01675,2.9049 -2.46921,4.35733 -2.9049,3.77669 -4.93839,5.66482 -4.50271,3.34058 -5.08376,2.4692 -5.22912,2.17886 -6.68159,2.17889 -8.13402,1.01675 -6.39083,-0.58108 -6.5366,-1.45242 -5.95516,-2.9053 -5.51947,-4.9384 -3.63131,-5.80979 -3.19561,-6.68157 -1.3071,-7.98906 0,-6.9719 2.32385,-7.69832 1.88854,-5.95516 2.61456,-4.64807 5.22873,-6.10051 6.24587,-5.08377 6.10052,-3.48595 7.11726,-2.17887 7.26264,-1.59781 3.05027,-0.14496 3.19522,-0.29073 4.50309,0.58106 5.80979,1.45244 5.08376,1.59781 1.74318,1.16212 0.4357,0.87139 1.74278,0.87139 9.87718,1.88854 6.82694,1.30708 7.11727,0.4357 6.10051,-0.4357 5.3741,-0.87139 1.63833,-0.10723 0.56476,-1.33529 0.0512,-2.20786 0.41108,-3.08124 -0.20575,-1.74635 0.20575,-1.54061 0.82133,-1.84843 0.3082,-2.15702 0.51353,-3.28658 1.02709,-1.23241 0.82174,-2.5677 0.61601,-1.33528 -0.30779,-1.84882 0.10247,-2.05416 0.3082,-3.08124 -0.20535,-4.62186 0,-6.77848 0.51354,-7.39489 0.82174,-3.1841 0,-1.43775 0.61601,-0.20573 0.92461,0 0.20535,-1.33489 0.41066,-3.80011 1.12994,-2.67056 1.64309,-2.77304 1.02708,-2.15702 1.12994,-0.92421 0.41069,-1.54062 -1.43775,-0.10288 -1.74597,2.05416 -2.05414,0.61641 -1.33528,0.30821 1.84879,-1.43815 1.54063,-1.54063 0.92421,-1.54061 1.43816,-0.92422 1.74595,-1.84882 0.71888,-1.12994 0.61641,-2.36196 -1.02708,1.43775 -1.33528,1.43775 0.41067,-1.74596 1.02708,-1.64309 -1.54063,0.41068 0.51355,-1.02708 1.12994,-1.43775 -0.30821,-0.71888 -0.71886,-0.3082 1.02707,-1.23242 1.64309,-0.51353 0.20572,-1.64349 -1.12993,-0.10286 0.92421,-0.92421 0.20572,-1.33529 -2.67056,1.54062 0.82175,-1.74596 1.23242,-1.12994 -0.92421,-0.51355 0.41067,-0.616 1.12993,-1.02708 0.30782,-2.77303 0.82174,-2.36237 0,-2.67056 0,-2.46483 0.20534,-2.36236 1.02708,-2.67017 1.74635,-2.77343 1.64308,-2.8755 1.43815,-1.84882 -0.41107,-1.84883 -0.82174,-3.38943 -0.61601,-3.59478 -0.41107,-2.5677 0.82174,-3.28657 1.23243,-2.77303 1.02707,-3.69765 1.33529,-2.8755 2.87589,-3.80051 4.82719,-3.18371 4.31365,-2.46483 3.28657,-0.71927 0.71927,-0.82135 1.54063,0 z m 241.31117,123.76222 2.5165,0.51355 2.0541,0.7705 2.4136,1.23242 1.2324,1.18117 1.3865,1.48939 1.0784,1.54062 0.6676,1.38652 0.5648,2.82426 0.1028,2.77304 -0.4623,2.82466 -1.027,2.36236 -1.4891,1.74596 -2.2082,1.84882 -2.2595,1.18078 -2.0541,0.61641 -2.26,-0.0512 -2.9784,-0.51353 -3.1837,-0.92461 -1.5922,-1.02708 -1.6948,-1.33489 -1.1295,-1.79758 -1.6434,-2.31073 -0.5136,-2.20826 -0.10251,-2.15703 0.46201,-2.67016 0.9758,-2.61933 1.9512,-2.31073 1.0788,-1.54061 1.3865,-1.18119 2.3108,-1.18118 2.2594,-0.4623 2.1571,0 z m -316.49327,26.08804 -1.23241,0.61602 2.15662,1.33528 2.46523,3.80011 1.54063,3.69764 1.02706,4.62186 0.51354,4.62186 -0.92459,3.80011 0.92459,0.41067 1.54063,-1.84882 3.18369,-3.08124 4.31366,-4.72433 4.62187,-4.31365 4.10831,-3.28697 1.12994,-1.33489 0,-1.23241 -0.82174,-1.95169 -1.23241,-0.10246 -2.25951,0.71887 -4.82719,0.10247 -3.8005,0 -4.72432,-0.41067 -4.62185,-1.12995 -3.08125,-0.30781 z"
       id="path4169"
       inkscape:connector-curvature="0" />
    <path
       style="opacity:1;fill:#000000;fill-opacity:1;fill-rule:evenodd;stroke:none;stroke-width:1px;stroke-linecap:butt;stroke-linejoin:miter;stroke-opacity:1"
       d="m 500.16434,353.72835 c -2.6724,-0.0223 -7.43724,0.75448 -7.43724,0.75448 0,0 -3.46989,1.1232 -5.7253,2.03162 -2.2554,0.90845 -7.75692,3.50933 -7.75692,3.50933 0,0 -5.04798,2.84768 -7.20294,4.43247 -2.15499,1.58479 -5.72529,4.98644 -5.72529,4.98644 l -5.7253,5.72529 -3.32447,4.98648 c 0,0 -2.10692,4.21953 -3.13966,6.83377 -1.03269,2.61421 -1.93951,5.63285 -2.95531,8.8649 -0.84525,2.68948 -1.47714,8.49576 -1.47714,8.49576 l -0.55398,8.49578 0.55398,6.09446 0.73883,6.4641 0,5.1713 0.36917,5.35612 -0.92368,6.64894 -1.2928,6.46412 -1.84681,7.75693 -2.21599,5.72529 -2.03166,4.24763 -2.4008,3.14014 -1.29281,0.18433 -1.66249,2.95532 -0.92316,3.50879 -1.84733,0.36967 -0.92315,3.13964 -2.95532,5.35613 -0.7383,0.73832 -2.58567,-0.554 -1.84733,1.47766 -2.03113,2.03166 -0.18485,1.47765 -0.92363,0.92315 -2.21602,0.18484 -1.29281,1.29282 -0.36964,2.58565 0,1.84682 -1.10801,0.92366 -2.03164,0 -0.92315,2.03114 0.36915,2.40132 -0.36915,1.29282 -1.47768,2.03165 0,2.95481 1.47768,2.21648 0.40601,1.96095 1.43675,1.56705 1.69784,1.69784 0.78327,3.39567 0.52268,2.48112 1.17515,2.48161 1.43677,1.17515 -0.2616,2.08973 0.13079,1.17515 -0.91404,0.39189 0,2.08922 -0.78379,9.66436 -0.78328,4.83192 -0.13081,2.61191 0.39192,2.08922 -0.39192,2.08972 -1.56702,14.2347 -0.78378,7.44382 0.39191,8.22761 1.04485,6.13788 1.43624,4.17894 0,2.35082 1.30596,2.35081 2.6119,2.22003 2.08973,1.95892 3.52597,2.61191 12.14546,7.18274 6.26869,3.78706 3.26436,2.61191 1.17565,1.17566 0.65298,2.873 1.04485,3.78706 0.91409,1.43675 1.17514,0.26109 0.91408,-0.65298 1.69784,0.1308 1.69783,1.17515 1.56704,0 1.69783,3.13459 2.35082,3.78706 2.08922,2.35082 1.56755,1.95893 2.48112,1.43624 0.3919,2.08973 0.12422,1.8655 1.47767,16.99153 -0.36968,16.62187 1.47765,15.14471 -0.36966,7.38777 -0.73831,7.01811 0,6.64844 0.73831,6.27979 0.73883,6.27927 0,7.38778 -0.27676,7.11053 0.27676,1.29282 0.73883,1.29282 -0.0924,2.40081 -1.10802,4.15522 -2.03163,4.0633 -3.04725,3.04723 -2.67805,3.32446 -1.7544,3.13965 0.18432,3.41689 1.01608,3.23205 0.92315,2.77049 0.92368,3.41689 -0.92368,4.61679 -5.44803,23.45563 -2.03165,10.15777 -1.66196,9.04977 -1.47767,5.91012 -0.73884,7.01811 -0.18482,2.95531 0.64188,0.85698 0.91404,0.78327 0.71813,0.19594 -0.9792,4.30975 -0.2611,3.52596 -0.91457,3.1341 -1.30596,1.56754 -3.26487,2.87298 -4.83191,5.3541 -2.35033,4.30977 -1.30596,4.04865 -1.69783,4.57083 -0.91406,5.6152 -0.52269,4.17894 -0.39187,3.78758 -0.78328,2.61189 -0.65297,0.65298 -1.17568,0.65298 -0.65297,0.91408 -0.39139,1.89376 -0.58783,1.50191 -0.52216,0.91404 -0.13082,1.30596 -0.0651,1.37113 -0.32674,0.9797 -1.11001,0.65298 -0.97922,1.11001 -0.26158,1.24032 -0.19595,1.56751 0,1.50141 -0.52219,1.69784 -0.32623,0.39187 -0.32673,1.04486 -0.65297,0.58785 -1.0449,0.91405 -0.91404,1.04486 -0.65298,0.97924 -0.19594,1.17516 -0.52217,0.9797 -0.39191,0.3919 -1.24079,-1.24083 -1.11003,-0.9797 -1.63219,0 -1.04486,0.45754 -0.65298,0.65298 -0.45701,1.37109 -0.0657,1.63217 0.26163,2.41601 0,2.02458 0.19593,1.30593 0.32623,0.58734 -0.58782,0.26159 -0.71814,1.04437 -0.8489,0.78377 -0.52219,0.45704 -0.0652,0.71812 0,0.91457 -0.45754,0.78327 -0.45703,1.30595 0,0.65299 -0.91406,0.78375 -0.8489,0.52218 -0.65299,1.04488 -0.19594,1.76296 -0.45703,0.65299 -0.71814,0.32676 -0.58782,-0.0657 -1.11004,0.91406 -1.89376,2.28568 -3.33002,3.78705 -2.15489,3.52598 -1.5019,3.06944 -1.50138,3.65626 -1.30595,4.63646 -0.32675,1.04441 -0.45703,0.84887 0.32625,0.91411 0.19593,0.65298 0.65298,1.30597 0.26159,1.95886 0.71811,1.24081 0.58785,1.17515 0.0651,0.97978 1.43625,1.04484 1.2408,0.58783 2.67707,0.32627 3.72192,0.26104 4.57081,0 4.57086,-0.91402 5.43236,-1.93977 1.52362,-0.83123 2.21651,-1.61607 2.53917,-2.35483 1.61603,-2.63162 0.3232,-2.81638 0.23079,-2.4473 0.55398,-2.77049 0,-1.29278 0.32321,-0.96967 c 0,0 0.69267,-0.96975 0.73885,-1.15445 0.0462,-0.18468 0.92364,-2.07759 0.92364,-2.07759 l 0.78479,-1.20042 1.01608,-0.60046 0.78477,-1.01557 0.55401,-0.83123 1.2004,-0.13839 1.93923,-0.27724 1.89327,-0.50754 1.70848,-0.83124 2.53915,-2.35484 2.17004,-1.84682 2.17001,-2.81645 2.0781,-3.04721 0.87721,-3.46337 0.13839,-2.724 -0.27674,-2.40083 -0.36968,-2.17002 -0.87721,-1.38526 -0.55401,-0.87722 -0.73275,-0.32521 -0.62016,0.0324 -0.71812,0.0657 -0.39189,0.0652 0,-0.48984 0.35908,-1.46909 0.94688,-3.428 1.2408,-2.61192 1.43625,-2.35082 1.95893,-2.02406 1.43674,-0.84891 1.0449,-0.71812 0.13028,-1.17566 -0.45703,-0.39188 0.45703,-0.91408 0.6858,-1.01204 2.97095,-2.38312 3.65677,-3.52649 3.2649,-3.65626 2.0892,-3.2649 1.43677,-3.26487 0.78376,-3.13458 0.5222,-3.26487 1.04485,-2.35033 1.69733,-1.69784 0,-1.30595 2.61192,-3.39569 2.35081,-3.13408 2.873,-4.70165 2.74268,-4.44004 2.61192,-4.57083 1.95894,-4.17893 1.30596,-2.87299 0.39187,-1.43674 4.96274,-0.13082 4.83191,-0.2611 3.78706,0.13081 3.65677,-0.91407 4.70116,-1.82861 3.91783,-1.56706 2.35082,-0.65298 2.08972,-0.26108 -0.13079,1.69783 -0.52218,3.78708 -0.91407,4.96271 0,4.57081 0.65298,6.00708 0.26109,3.26488 0.13029,2.873 -0.91407,2.87351 -0.19593,1.3711 0.19593,3.00379 0.0652,2.08922 -1.37109,1.56705 -1.89376,1.56756 -2.15436,2.48112 -1.56754,2.67704 -1.56707,3.78755 -1.43626,3.65626 -0.65298,3.13461 -0.52267,4.30975 0.13079,3.52595 0.78329,2.74219 -0.0181,1.24487 -0.27724,0.36913 -1.01558,0 -0.60045,0.4621 -0.27723,1.06204 0.23028,1.04132 0,1.30595 -0.65298,1.11003 -0.65298,0.78325 -0.26159,1.24083 0.26159,1.30596 0.39139,1.10998 -0.58733,1.43677 -1.17568,0.45701 -0.71811,0.97924 -0.0652,0.84891 0,1.37113 -0.19592,1.82863 -0.84893,2.41596 -0.52269,2.41597 -1.04435,2.67705 -2.3296,3.43608 -1.93924,3.04722 -1.47766,1.66197 -0.92366,2.67808 -0.36919,2.21648 -0.27723,2.49322 -1.23777,1.50949 -1.17517,2.08971 -0.97921,2.22007 -0.45754,1.8938 -0.45703,2.677 -0.26108,1.82813 0.13079,1.17566 1.04486,0.97917 1.5014,1.11008 1.56755,1.82856 1.56704,1.56709 0.65298,0.84896 1.11001,0.26104 0.58783,0 0.0652,1.17566 -0.26111,2.15432 -0.13079,2.8079 0,2.08969 0.13079,1.95894 0.65299,2.08926 0.58733,2.08968 1.11001,0.84896 0.84893,0.58783 2.2205,0.65298 3.46034,0.65298 4.89757,0.52217 2.93814,0 3.06894,-0.13082 4.37541,-0.65298 3.00326,-1.56701 1.69786,-1.30597 0.78378,-1.82813 -0.1308,-1.76297 -0.3919,-1.17566 0.32673,-1.37112 0,-1.4367 -0.45702,-1.56709 -0.91457,-2.31793 -1.04436,-1.59989 -1.3716,-2.25286 -1.20798,-1.82813 -0.13031,-0.84895 c 0,0 -0.57245,-0.92053 -0.94184,-1.47463 -0.36938,-0.55401 -0.46156,-1.20092 -0.46156,-1.20092 l 1.10797,0.36969 0.83126,0.0924 0.64641,-0.36959 -0.0924,-1.10803 -0.554,-0.92361 -0.5545,-0.92318 0.64641,-0.64639 0.18483,-1.20041 -0.36915,-1.2004 -0.18484,-1.01608 0.27725,-1.10802 0,-1.29287 -0.36967,-1.38519 -0.18483,-1.01557 0.0924,-0.92368 2.4013,-1.75441 1.29282,-2.4932 0.83075,-1.93923 -0.73881,-1.66249 -0.92319,-0.64641 -1.57006,-0.27676 -1.47715,-0.73884 0.0919,-0.83123 1.01606,-0.27727 0.36918,-0.83073 -0.18433,-0.83123 1.47716,-2.2165 1.38522,-2.76998 0,-1.93923 0.73883,-1.93924 1.84683,-1.75489 1.20041,-1.84681 0.18482,-1.38528 1.662,-1.47716 0.36965,-1.47765 0,-0.83122 0.92317,-1.20041 2.67807,-4.43248 2.21646,-3.41688 2.21599,-4.15524 2.77046,-6.4641 1.6625,-4.06329 1.38475,-5.26371 0.64642,-2.95483 0.46207,-1.93923 0,-2.4013 0.36916,-3.5088 0.83123,-3.04722 1.20041,-1.93923 0.554,-3.14016 0.64641,-2.4008 0.36968,-2.21597 0.46156,-3.78657 0.18484,-2.8624 1.47716,-2.3089 1.47765,-3.13961 2.03163,-3.5088 1.56961,-2.3089 -0.18434,-2.03165 0.55396,-1.56957 0.46159,-1.20042 0.2404,-0.91355 1.56702,0.0652 3.98353,0.65297 4.57082,0.71814 3.98301,0.71861 2.93815,0.52219 0.65297,-0.65298 0,-1.37109 0.0657,-3.13461 0.78326,-9.40274 0.58783,-10.1209 0.45703,-2.74271 0.97972,-3.19923 0,-1.56755 -0.32675,-1.2403 1.12618,-4.53042 0.18433,-2.95531 0,-4.43248 -0.36918,-3.87848 -1.10797,-4.06328 -0.36967,-3.5088 2.21647,-4.06331 0.554,-4.06329 -0.18483,-3.87847 1.47764,-2.21599 1.84683,-4.0633 -0.18482,-3.13964 -1.10799,-3.50931 -4.47286,-5.1112 -2.61192,-2.87349 -3.26487,-4.44005 -1.56706,-4.96271 -0.1308,-6.39897 0,-4.04866 -1.04434,-3.26488 -2.69877,-3.06743 0.18434,-2.49322 1.93923,-1.20041 3.04771,-1.38524 2.49325,-1.10799 1.20037,-1.66249 -0.83124,-7.38727 -0.1848,-8.95734 0.0924,-8.31093 -0.27674,-5.63337 -0.39493,-8.8119 -0.65298,-5.48491 -1.17565,-4.83192 -1.30596,-5.7465 -0.52221,-5.61519 -0.78375,-6.13838 -1.30595,-4.04815 -0.13029,-3.78757 0.39139,-6.26817 1.04485,-6.00759 -0.2611,-4.44003 0.13082,-7.44384 -0.13082,-7.18274 1.17516,-1.43675 1.17565,-1.69784 -0.91404,-1.82813 -0.52269,-1.56704 0.26108,-7.18275 0.26161,-7.05245 -0.91457,-3.65626 -0.39138,-3.0038 0.39138,-4.44003 -0.13029,-4.57083 -0.91407,-2.08973 -1.04486,-2.35082 -0.39187,-2.22002 0.0373,-1.55997 0.55398,-4.20167 0.32323,-4.98645 -0.0657,-7.66554 -0.2611,-6.9873 -0.19593,-4.89708 0.0146,-7.69178 0.18486,-4.80214 1.47763,-5.72528 1.29284,-4.61729 0.36914,-3.13965 1.108,-2.76996 -0.18432,-3.69415 0.73833,-4.98645 c 0,0 1.23657,-4.20229 1.47765,-6.27928 0.24104,-2.07701 0,-6.09496 0,-6.09496 l 0,-7.5721 -0.55402,-14.95988 0.36919,-6.64895 0.36967,-6.09444 1.10797,-6.64895 -0.18482,-3.5093 0,-1.66199 1.94681,-1.96348 c 0,0 1.3918,-0.99702 1.89326,-1.66551 0.50148,-0.6685 0.84893,-2.25234 0.84893,-2.25234 l 1.17565,-3.13459 0.3919,-2.22002 1.30595,-1.82814 2.87302,-1.56754 3.65624,-2.08922 2.22053,-1.69784 2.35031,-1.69784 1.17567,-1.95893 -0.26111,-1.30596 -0.91456,-0.65298 -1.43625,-0.13029 -1.04486,0.91407 -2.74222,1.82814 -2.35081,1.30595 -1.56702,0.65296 -1.73068,0.88175 c 0,0 -0.46329,0.25253 -0.75095,-0.098 -0.28766,-0.35047 0.13082,-1.95892 0.13082,-1.95892 l 1.59985,-1.30596 2.31798,-1.82863 3.59467,-2.3604 2.58564,-2.03115 2.76998,-2.58564 1.01608,-0.87772 0.73883,-0.92316 0,-1.15444 -0.0465,-0.83126 -0.55401,-0.55398 -1.06201,-0.13838 -1.38525,0.18484 -1.06153,0.69237 -2.44726,1.70843 -1.29282,1.29282 -2.12408,1.80087 -2.03166,1.70845 -1.24635,1.24635 c 0,0 -1.33892,0.9697 -1.52362,1.06204 -0.18468,0.0924 -1.33929,0.78477 -1.33929,0.78477 l -0.64641,0.27728 c 0,0 -0.26657,-0.26727 -0.3232,-0.50806 -0.0566,-0.24078 0.0924,-0.87719 0.0924,-0.87719 l 0.78478,-1.38524 1.4317,-1.56956 2.86238,-3.23207 1.43122,-1.89328 1.38523,-1.66198 1.38524,-1.24687 1.38522,-1.15444 1.29282,-1.06204 1.20042,-1.06153 0.55401,-0.5545 0.46207,-0.92315 0,-0.83125 -0.27726,-1.10798 -0.96962,-0.64641 -1.10798,-0.27727 -1.29282,0.27727 -1.66249,1.24636 -1.61603,1.75489 -2.26244,2.21599 -1.70842,1.38523 -1.662,1.80087 -1.43119,1.84681 -0.7853,1.29282 -1.3388,1.61603 -0.83122,1.24688 -0.36916,0.41512 -0.62975,0.49945 c 0,0 -0.62805,0.34695 -0.9797,0.32674 -0.35165,-0.0201 -0.74904,-0.20423 -0.97923,-0.45705 -0.2302,-0.25283 -0.32673,-0.91457 -0.32673,-0.91457 l 0.0652,-1.04434 0.84892,-1.43676 1.3716,-2.02407 0.97922,-2.0246 1.17516,-2.22001 0.78377,-1.63218 0.78376,-1.43677 0.84895,-1.43624 0.19541,-0.97971 -0.32623,-1.11001 -0.8489,-0.71811 -1.11003,-0.13081 -1.30596,0.52218 -1.10999,0.91457 -0.97972,1.37111 -1.37109,2.35082 -1.11001,2.28515 -0.91406,1.56706 -1.24083,1.37159 -1.2408,1.43625 -0.71811,2.15486 -0.65298,0.97972 -1.11001,1.50192 -0.91408,1.17513 -0.39188,1.17517 -0.58783,1.50189 -0.2611,1.5019 -0.58782,1.37109 -1.17819,0.99437 -0.99992,-0.7363 -0.19595,-1.56049 0.13838,-2.03568 0.17675,-2.15135 -0.18785,-1.53218 -0.88378,-1.9352 -1.0292,-1.30594 -1.52108,-1.29486 -1.30596,-0.91406 -1.04437,-0.2611 -1.3716,-0.26108 -0.84893,0.13029 -0.65297,0.84893 -0.13029,1.37159 0.39189,1.43624 0.84893,1.11001 0.65299,1.11001 0.32623,0.91457 -0.0652,1.11001 -0.1308,0.65298 0.32673,0.91408 0.19594,1.11001 0,1.37109 -0.45754,1.56704 -0.2611,2.08973 -0.19593,2.35082 0.45703,1.95893 0.5227,1.69783 0.58782,1.89328 0.0651,1.82864 0.71812,1.82813 1.43677,2.02408 1.43624,1.3716 0.97971,1.50139 0.2611,1.43675 -0.3919,4.50569 -0.78327,7.24789 -2.08015,15.8391 -1.66196,7.38727 -1.47765,3.87847 -0.36967,3.5093 0,4.43247 -1.29282,9.41943 -0.36918,4.98645 -0.36914,5.54045 -0.18483,3.50931 -1.10802,2.9548 -2.77047,6.46412 -2.40081,7.57261 -1.29282,7.20243 -0.92368,4.24814 -0.92364,6.64895 -0.18432,5.17129 -0.15605,0.74842 -0.84892,0 -0.78327,0.65298 -0.65298,1.11051 -0.0657,1.43625 -0.0652,2.22001 -0.13077,1.56705 -0.78327,1.30595 -0.71861,0.2616 0.13077,-2.61191 -0.52219,-3.33053 -0.26157,-2.28517 -0.32623,-1.89379 -0.97974,-2.35081 -0.71809,-1.30595 0.19592,-1.2403 -0.5222,-1.30596 -1.10999,-1.89378 -0.84891,-0.91407 0.0652,-1.30595 0.32622,-1.56704 0.71864,-1.24081 0.97921,-1.17515 -1.30593,-0.32675 0,-0.78326 0.71861,-0.58783 0.78329,-0.32674 -0.71815,-0.58733 -1.50189,-0.39189 0.52217,-0.71812 -1.56703,-0.32674 -1.30595,-0.0652 0.65298,-0.65297 1.76299,-0.45704 0.78376,0.32624 -1.63269,-1.04486 -2.02409,-0.58733 -1.82812,-0.0657 1.37111,-0.52218 1.10999,0.45704 -1.10999,-0.84892 -1.30596,-0.39189 -1.43677,0 0.71864,-0.52218 1.04487,-0.97921 1.30594,0 1.5014,0.32623 -0.78326,-0.91406 -2.02408,-0.97972 -2.15486,-0.52218 -2.48162,0.26109 -1.95895,0.84892 -0.52218,0.45704 0.52218,-1.69784 -0.91405,0.65297 -0.71814,0.65298 -1.37411,-0.14393 -0.92367,-0.046 0.23079,-0.96962 0.96961,-1.38523 0.4621,-0.554 -1.20091,0.554 -1.06153,0.36915 0.18432,-0.64641 0.13888,-0.50753 -1.15443,0.69237 -1.01609,0.6464 -1.15395,1.10799 -0.46207,0.554 -1.24638,0.5545 -1.01609,0 0.41564,-0.83124 0.46207,-0.8772 -1.06202,0.27674 -1.24688,0.64641 -0.13836,-0.36916 0.36916,-0.46158 -1.24635,0.32321 -0.69288,1.20041 -1.15395,0.8772 0.0919,-1.06204 0.0465,-0.83125 -0.73885,0.83125 -0.3232,1.06204 -0.36915,1.10799 -0.83123,-0.18484 0.23076,-0.83074 -0.60044,0.73883 -0.554,1.06153 -0.36915,0.83125 -0.69287,-0.27675 -0.32321,0.69236 -1.24635,0.64642 -0.64642,0.96961 -0.96961,1.33878 -1.70847,1.61603 -1.29282,2.12407 -0.18483,1.38523 -1.66198,0.83125 -1.75441,0.0924 -0.46207,0.0919 -0.64642,1.29283 -1.01557,1.47764 -0.27725,1.93925 -0.64641,1.2004 -1.10801,0.73883 -0.73882,1.10799 -0.27674,1.47765 0.36915,1.93924 1.01558,1.47766 -0.34947,2.63766 -0.71811,0.91406 -1.04485,0.97971 -0.26111,1.43625 -0.19593,2.15488 0,1.76298 0.3914,2.02459 0.71859,2.41596 1.11001,1.76298 1.17516,1.30595 1.37111,0.65297 1.76348,0.65299 1.30596,1.2408 0.58732,1.56704 0.84185,4.20926 0.55401,2.49322 0.18433,2.21598 0.96659,5.05514 0.52217,2.873 0.65297,1.82813 -0.78326,0.52268 -3.00379,-0.52268 -1.82815,-0.1303 -0.65297,1.04487 0.1303,1.17515 -0.94387,0.20504 -1.10867,0.18483 -0.55401,1.01557 -0.73881,-0.27675 -1.10802,-0.73882 -1.10848,-0.18483 -1.84679,-0.0924 -0.92319,-0.18433 -0.83124,0.554 0.0924,0.83074 0.83126,0.83124 -2.67808,0.0924 -1.38522,0.0924 -1.75439,-0.18484 -1.38527,-0.46158 -1.1085,-0.64641 -2.03113,-0.55399 -1.7549,-0.27725 -2.30841,0 -1.93923,0.46157 -1.57007,0.5545 -0.92317,0.554 -2.12405,0.0924 -1.20042,-0.46209 -1.10798,-0.92315 -1.38524,-0.46208 -1.38525,-0.0919 -0.55398,-0.5545 -1.10851,-0.36916 -0.92315,-0.73883 0.55401,-0.36916 -0.18483,-0.92366 -1.38526,-0.64641 -1.93923,-0.18484 -2.49322,-0.36916 -1.2004,0.0924 -0.83125,-0.18483 -1.10799,-0.46158 -1.75442,0 -0.92364,0.64641 -0.18433,-0.55399 -1.6625,-0.554 -1.84681,-0.5545 -1.20042,-0.92316 -0.73881,-2.77048 -1.66198,-6.83326 -1.20093,-3.60173 -1.38471,-4.80163 -1.38527,-6.64894 -1.29282,-7.66452 -0.64641,-3.13964 0.36918,-1.01608 1.20042,-1.47715 0.0924,-2.67806 0,-2.95532 0,-8.40334 -0.18485,-3.23206 0,-1.93924 -0.55396,-0.6464 0.0924,-1.66199 -0.46158,-4.98646 -0.92364,-3.23205 0,-2.58565 0.83123,-2.49373 -0.18482,-3.87847 -0.0924,-1.47715 0.73885,-2.3089 0.55396,-1.66198 0.18485,-2.77049 -0.64641,-2.9548 -0.92315,-2.77048 -0.83126,-1.29282 -0.73883,-0.73883 2.58567,-4.6173 3.41687,-5.17128 1.2004,-2.86239 0.83125,-1.29283 0,-1.47766 1.29283,-2.12406 1.29284,-1.93924 0.18432,-1.66198 0.64641,-1.75441 4.6173,-6.00253 5.91009,-5.91011 6.09497,-5.54046 6.83326,-4.6173 9.2346,-5.17128 8.86493,-4.43247 6.64894,-3.14014 6.46411,-4.98647 7.01812,-6.64894 8.12611,-9.97292 3.69415,-8.1266 2.03112,-8.49527 1.29283,-7.20292 -0.36917,-8.12662 -1.10799,-5.91008 -1.66248,-8.49528 -2.95483,-6.27978 c 0,0 -1.34343,-2.63871 -3.13962,-4.24763 -1.7962,-1.60893 -7.94177,-4.61732 -7.94177,-4.61732 0,0 -4.49759,-1.33286 -7.01812,-1.47765 -0.15751,-0.009 -0.32634,-0.0142 -0.50451,-0.0158 z m -44.47855,76.74849 1.58955,1.78362 0.80575,2.47455 c 0,0 1.82033,2.81239 2.9049,3.61225 1.08461,0.79986 3.78052,2.57346 3.78052,2.57346 l 3.49455,1.08937 3.42707,0.39189 3.43646,0.30611 -1.71611,2.10516 -1.82864,0.91457 -3.65628,1.69733 -3.26485,2.08973 -3.65679,2.7422 -2.87298,2.08973 -2.74271,3.13409 -2.08973,1.95892 -2.08921,1.69784 -1.56705,-0.52218 -0.13082,-1.69783 0.65298,-2.48112 0.91408,-3.00379 1.04485,-4.17894 0.7838,-4.70164 0.39137,-4.70113 -0.13029,-3.91786 0.26108,-2.35081 0.26111,-1.43675 z"
       id="path4188"
       inkscape:connector-curvature="0"
       sodipodi:nodetypes="ccscscccsscccccccccccccccccccccccccccccccccccccccccccccccccccccccccccccccccccccccccccccccccccccccccccccccccccccccccccccccccccccccccccccccccccccccccccccccccccccccccccccccccccccccccccccccccccccccccccccccccccccccccccccccccscccccccccccccccccccccccccccccccccccccccccccccccccccccccccccccccccccccccccccccccccccccccccccccccccccccccccccccccccccccccccccccccccccccccccccccccccccccccccccccccccccccccccccccccccccccccccccccccccccccccccccccccccccccccccccccccccccccccccccccccccccccccccccccccccccccccccccccccccccccccccccccccccccccccccccscccccccccccccccccccccccccccscccccccccccccccccccsccsccccccccccccccccccccccccccccsscccccccccccccccccccccccccccccccccccccccccccccccccccccccccccccccccccccccccccccccccccccccccccccccccccccccccccccccccccccccccccccccccccccccccccccccccccccccccccccccccccccccccccccccccccccccccccccccccccccccccccccccccccccccccccccccccccccccccccccccccccccccccccccccccccccccccccccccccccccccccccccccccccccccccccccccccccccccccccccscsscccczcccccccccccccccccccccccc" />
  </g>
</svg>
