<svg id="Capa_1" enable-background="new 0 0 512 512" height="512" viewBox="0 0 512 512" width="512" xmlns="http://www.w3.org/2000/svg"><path d="m433.501 0h-355.002c-5.523 0-10 4.478-10 10v492c0 5.522 4.477 10 10 10h355.003c5.523 0 10-4.478 10-10v-492c-.001-5.522-4.478-10-10.001-10zm-10 246h-32.075v-226h32.075zm-52.075 113.787h-105.426v-93.787h105.426zm-230.852 0v-93.787h105.426v93.787zm0-207.574h105.426v93.787h-105.426zm125.426 93.787v-93.787h105.426v93.787zm105.426-226v112.213h-230.852v-112.213zm-250.852 0v226h-32.075v-226zm-32.075 246h32.075v226h-32.075zm52.075 226v-112.213h230.853v112.213zm250.852 0v-226h32.075v226z"/></svg>