<svg id="court" xmlns="http://www.w3.org/2000/svg" width="378.608" height="103.494" viewBox="0 0 378.608 103.494">
  <g id="Rectángulo_1" data-name="Rectángulo 1" transform="translate(0)" fill="#5194e3">
    <path d="M33.628,0h303.88l41.1,103.494H0Z" stroke="none"/>
    <path d="M 377.2178649902344 102.8501892089844 L 336.7601318359375 0.4157447218894958 L 34.40509033203125 0.4157447218894958 L 1.343664050102234 102.8501892089844 L 377.2178649902344 102.8501892089844 M 378.6080322265625 103.4941177368164 L 4.332825028541265e-06 103.4941177368164 L 33.62763214111328 5.902256866574789e-15 L 337.507568359375 5.902256866574789e-15 L 378.6080322265625 103.4941177368164 Z" stroke="none" fill="#fff"/>
  </g>
  <g id="Rectángulo_2" data-name="Rectángulo 2" transform="translate(36.256 11.96)" fill="#fff">
    <path d="M19.737,0h260.95L305.98,74.686H0Z" stroke="none"/>
    <path d="M 304.6773986816406 74.08283233642578 L 279.8982849121094 0.439721941947937 L 20.55963706970215 0.439721941947937 L 1.257434129714966 74.08283233642578 L 304.6773986816406 74.08283233642578 M 305.9796752929688 74.68606567382813 L -6.290406417974737e-06 74.68606567382813 L 19.73734092712402 6.242482472916056e-15 L 280.6878356933594 6.242482472916056e-15 L 305.9796752929688 74.68606567382813 Z" stroke="none" fill="#fff"/>
  </g>
  <g id="Rectángulo_3" data-name="Rectángulo 3" transform="translate(88.188 24.536)" fill="#5194e3">
    <path d="M4.037,0h189.42l5.749,23.01H0Z" stroke="none"/>
    <path d="M 198.0643157958984 22.4964599609375 L 192.6080780029297 0.4656620621681213 L 4.921455860137939 0.4656620621681213 L 1.103687763214111 22.4964599609375 L 198.0643157958984 22.4964599609375 M 199.2062377929688 23.01037406921387 L -2.902887445088709e-06 23.01037406921387 L 4.037362575531006 1.421018851033296e-06 L 193.4575653076172 1.421018851033296e-06 L 199.2062377929688 23.01037406921387 Z" stroke="none" fill="#fff"/>
  </g>
  <g id="Rectángulo_4" data-name="Rectángulo 4" transform="translate(83.936 47.061)" fill="#5194e3">
    <path d="M4.338,0h199l6.177,24.723H0Z" stroke="none"/>
    <path d="M 208.3063507080078 24.15491485595703 L 202.4513549804688 0.5139726400375366 L 5.262448310852051 0.5139726400375366 L 1.165653944015503 24.15491485595703 L 208.3063507080078 24.15491485595703 M 209.5142669677734 24.72336196899414 L 1.170354335044976e-05 24.72336196899414 L 4.337935447692871 -5.477587365021463e-06 L 203.3376312255859 -5.477587365021463e-06 L 209.5142669677734 24.72336196899414 Z" stroke="none" fill="#fff"/>
  </g>
  <g id="Rectángulo_5" data-name="Rectángulo 5" transform="translate(40.183 24.536)" fill="#5194e3">
    <path d="M12.486,0H53.972L45.887,47.248H0Z" stroke="none"/>
    <path d="M 44.91818237304688 46.67958068847656 L 52.92669677734375 0.4656612873077393 L 13.32900333404541 0.4656612873077393 L 1.216121912002563 46.67958068847656 L 44.91818237304688 46.67958068847656 M 45.88681030273438 47.24802398681641 L -5.088497346150689e-06 47.24802398681641 L 12.48626708984375 6.643724645982729e-07 L 53.9721794128418 6.643724645982729e-07 L 45.88681030273438 47.24802398681641 Z" stroke="none" fill="#fff"/>
  </g>
  <g id="Rectángulo_6" data-name="Rectángulo 6" transform="translate(278.752 24.536)" fill="#5194e3">
    <path d="M0,0H42.451l16,47.248H11.5Z" stroke="none"/>
    <path d="M 57.19247055053711 46.67958068847656 L 41.64259338378906 0.4656612873077393 L 1.079107284545898 0.4656612873077393 L 12.4245080947876 46.67958068847656 L 57.19247055053711 46.67958068847656 M 58.45087432861328 47.24802398681641 L 11.49692535400391 47.24802398681641 L 1.616626406075738e-07 6.643724645982729e-07 L 42.45070266723633 6.643724645982729e-07 L 58.45087432861328 47.24802398681641 Z" stroke="none" fill="#fff"/>
  </g>
  <g id="Rectángulo_7" data-name="Rectángulo 7" transform="translate(36.256 70.585)" fill="#5194e3">
    <path d="M4.244,0h296.3l5.439,16.061H0Z" stroke="none"/>
    <path d="M 304.6773681640625 15.45750045776367 L 299.6670837402344 0.5669974088668823 L 5.160305023193359 0.5669974088668823 L 1.257434129714966 15.45750045776367 L 304.6773681640625 15.45750045776367 M 305.9797058105469 16.06074142456055 L -6.028306415828411e-06 16.06074142456055 L 4.244376659393311 8.44654186948901e-06 L 300.5408630371094 8.44654186948901e-06 L 305.9797058105469 16.06074142456055 Z" stroke="none" fill="#fff"/>
  </g>
  <g id="Rectángulo_8" data-name="Rectángulo 8" transform="translate(52.366 11.96)" fill="#5194e3">
    <path d="M3.627,0H264.578l4.648,13.726H0Z" stroke="none"/>
    <path d="M 268.1014404296875 13.25858116149902 L 263.7882080078125 0.4397200345993042 L 4.449573040008545 0.4397200345993042 L 1.08968985080719 13.25858116149902 L 268.1014404296875 13.25858116149902 M 269.2258605957031 13.72567081451416 L -1.522073580417782e-05 13.72567081451416 L 3.62727952003479 -1.915090024340316e-06 L 264.5777893066406 -1.915090024340316e-06 L 269.2258605957031 13.72567081451416 Z" stroke="none" fill="#fff"/>
  </g>
  <g id="Línea_6" data-name="Línea 6" transform="translate(185.054 3.455)" fill="none" stroke-linecap="round">
    <path d="M1.169.528,4.632,93.356" stroke="none"/>
    <path d="M 4.661002159118652 94.14285278320313 C 4.467175006866455 94.14285278320313 4.281717300415039 94.12081146240234 4.112329006195068 94.0809326171875 C 3.942967414855957 94.04109191894531 3.789693355560303 93.98341369628906 3.660191297531128 93.91217803955078 C 3.530724763870239 93.84096527099609 3.425030469894409 93.75619506835938 3.350770711898804 93.66208648681641 C 3.276538133621216 93.56803131103516 3.233722925186157 93.46463775634766 3.22996973991394 93.35616302490234 L 0.01828290708363056 0.5283787846565247 C 0.01575611717998981 0.4553458392620087 0.04552775248885155 0.3857933282852173 0.1015167161822319 0.3225515484809875 C 0.1574889123439789 0.2593286335468292 0.2396662384271622 0.2024089246988297 0.3419798016548157 0.1546189486980438 C 0.4442702531814575 0.1068397089838982 0.5666966438293457 0.06818195432424545 0.7032034397125244 0.0414707288146019 C 0.839693009853363 0.01476277597248554 0.9902748465538025 -4.601856744557153e-06 1.148905634880066 -4.601856744557153e-06 C 1.307536482810974 -4.601856744557153e-06 1.459220051765442 0.01476277597248554 1.597702383995056 0.0414707288146019 C 1.736202001571655 0.06818195432424545 1.861512780189514 0.1068397089838982 1.967368364334106 0.1546189486980438 C 2.073247671127319 0.2024089246988297 2.159671783447266 0.2593286335468292 2.220361232757568 0.3225515484809875 C 2.281068801879883 0.3857933282852173 2.316029787063599 0.4553458392620087 2.318952083587646 0.5283787846565247 L 6.033337116241455 93.35616302490234 C 6.037678241729736 93.46463775634766 6.00257682800293 93.56803131103516 5.935362339019775 93.66208648681641 C 5.868124008178711 93.75619506835938 5.768754005432129 93.84096527099609 5.644601345062256 93.91217803955078 C 5.520414352416992 93.98341369628906 5.371443271636963 94.04109191894531 5.205055236816406 94.0809326171875 C 5.038641452789307 94.12081146240234 4.854828834533691 94.14285278320313 4.661002159118652 94.14285278320313 Z" stroke="none" fill="#fff"/>
  </g>
</svg>
