<svg enable-background="new 0 0 24 24" height="512" viewBox="0 0 24 24" width="512" xmlns="http://www.w3.org/2000/svg"><path d="m21.5 24h-19c-1.378 0-2.5-1.121-2.5-2.5v-19c0-1.379 1.122-2.5 2.5-2.5h19c1.378 0 2.5 1.121 2.5 2.5v19c0 1.379-1.122 2.5-2.5 2.5zm-19-23c-.827 0-1.5.673-1.5 1.5v19c0 .827.673 1.5 1.5 1.5h19c.827 0 1.5-.673 1.5-1.5v-19c0-.827-.673-1.5-1.5-1.5z"/><path d="m14.5 16c-.176 0-.344-.094-.434-.252l-3.066-5.365v5.117c0 .276-.224.5-.5.5s-.5-.224-.5-.5v-7c0-.227.152-.425.372-.483.22-.057.45.039.562.235l3.066 5.365v-5.117c0-.276.224-.5.5-.5s.5.224.5.5v7c0 .227-.152.425-.372.483-.043.011-.086.017-.128.017z"/><path d="m8.5 12.5h-4c-.276 0-.5-.224-.5-.5s.224-.5.5-.5h4c.276 0 .5.224.5.5s-.224.5-.5.5z"/><path d="m8.5 16h-2c-1.378 0-2.5-1.121-2.5-2.5v-3c0-1.379 1.122-2.5 2.5-2.5h2c.276 0 .5.224.5.5s-.224.5-.5.5h-2c-.827 0-1.5.673-1.5 1.5v3c0 .827.673 1.5 1.5 1.5h2c.276 0 .5.224.5.5s-.224.5-.5.5z"/><path d="m18.5 16h-2c-.276 0-.5-.224-.5-.5v-7c0-.276.224-.5.5-.5h2c1.378 0 2.5 1.121 2.5 2.5v3c0 1.379-1.122 2.5-2.5 2.5zm-1.5-1h1.5c.827 0 1.5-.673 1.5-1.5v-3c0-.827-.673-1.5-1.5-1.5h-1.5z"/></svg>