<svg xmlns="http://www.w3.org/2000/svg" xmlns:xlink="http://www.w3.org/1999/xlink" viewBox="0 0 500 500"><defs><clipPath id="freepik--clip-path--inject-17"><path d="M345.74,279.28V397.71c17.29.35,32.91-1.54,45.07-8.26,25.41-14,37.92-38.42,41.41-66.94a168.7,168.7,0,0,0-.78-43.23Z" style="fill:none"></path></clipPath></defs><g id="freepik--background-simple--inject-17"><path d="M432.22,322.51c7.91-64.54-30.38-150.32-70.08-185.74-71.66-64-131.2-51.58-177.5-28.68s-52.92,99.38-84.9,134S49.58,323.2,98.09,369.52s87.65,22.79,138.37,19.85,118,20.19,154.35.08C416.22,375.41,428.73,351,432.22,322.51Z" style="fill:#F46744"></path><path d="M432.22,322.51c7.91-64.54-30.38-150.32-70.08-185.74-71.66-64-131.2-51.58-177.5-28.68s-52.92,99.38-84.9,134S49.58,323.2,98.09,369.52s87.65,22.79,138.37,19.85,118,20.19,154.35.08C416.22,375.41,428.73,351,432.22,322.51Z" style="fill:#fff;opacity:0.7000000000000001"></path></g><g id="freepik--Cup--inject-17"><g style="opacity:0.25"><path d="M199.73,205.5a4.79,4.79,0,0,1-1.69-.3c-3.33-1.23-20.25-7.74-25.73-15.42-6.11-8.55.07-25.68,1.37-29a4.89,4.89,0,0,1,9.11,3.53c-2.83,7.32-4.53,17-2.53,19.82,2.76,3.88,14,9.31,21.16,11.94a4.88,4.88,0,0,1-1.69,9.46Z" style="fill:#F46744"></path><path d="M199.73,206.51a5.75,5.75,0,0,1-2-.37c-3.38-1.24-20.55-7.86-26.2-15.78-6.41-9-.08-26.54,1.26-30a5.89,5.89,0,0,1,11,4.27c-3,7.66-4.24,16.66-2.66,18.87,2.37,3.31,12.59,8.59,20.7,11.57a5.89,5.89,0,0,1-2,11.42Zm-21.49-47.87a3.87,3.87,0,0,0-3.62,2.47c-1.27,3.26-7.3,20-1.5,28.09,5.31,7.43,22,13.85,25.27,15.06a3.83,3.83,0,0,0,1.34.24,3.89,3.89,0,0,0,3.64-2.54,3.88,3.88,0,0,0-2.3-5c-6.74-2.49-18.58-8-21.63-12.29-2.52-3.53-.1-14.27,2.41-20.77a3.88,3.88,0,0,0-2.21-5A3.81,3.81,0,0,0,178.24,158.64Z" style="fill:#fff"></path><path d="M181.17,308.08a5.2,5.2,0,0,1-1-.09c-1.92-.38-8.37-2.72-10.7-16.69-1.33-8,4.22-12,8.28-15,4.93-3.62,7.91-5.8,5.54-13.71-5.15-17.16-13.5-31.36-27.34-54.88l-4.44-7.55c-17.08-29.14-17.28-45.74-17.28-46.43a4.89,4.89,0,0,1,9.77,0c0,.31.49,15.16,15.94,41.53l4.43,7.54c14.21,24.15,22.78,38.73,28.27,57,4.36,14.51-4.08,20.69-9.12,24.39-4,3-4.7,3.79-4.41,5.52,1.13,6.79,3.16,8.58,3.55,8.86a4.88,4.88,0,0,1-1.53,9.52Zm1-9.67Zm0,0h0Zm0,0h0ZM144,153.73h0Z" style="fill:#F46744"></path><path d="M181.17,309.09A5.64,5.64,0,0,1,180,309c-2.08-.41-9.06-2.9-11.49-17.5-1.43-8.57,4.65-13,8.67-16,4.89-3.58,7.34-5.38,5.18-12.61-5.12-17.06-13.45-31.21-27.24-54.66l-4.44-7.55c-17.22-29.38-17.42-46.24-17.42-46.94a5.89,5.89,0,0,1,11.77-.22.78.78,0,0,1,0,.22s0,.09,0,.14c.1,1.76,1.43,16.34,15.79,40.84l4.43,7.54c14.24,24.22,22.84,38.83,28.36,57.25,4.56,15.19-4.57,21.89-9.48,25.49-4.06,3-4.2,3.48-4,4.54,1,5.91,2.64,7.76,3.06,8.14a5.89,5.89,0,0,1-2,11.42Zm-42-159.25a3.89,3.89,0,0,0-3.88,3.89c0,.68.19,17,17.14,45.92l4.44,7.56c13.87,23.57,22.24,37.81,27.43,55.1,2.57,8.58-1,11.19-5.91,14.8-4.06,3-9.11,6.67-7.88,14,2.22,13.33,8.14,15.51,9.91,15.86a3.84,3.84,0,0,0,.76.08,3.88,3.88,0,0,0,1.22-7.56,1.36,1.36,0,0,1-.21-.1l-.21,0h-.07l-.09,0-.13-.05a1,1,0,0,1-.56-.9v-.07c-.92-1.24-2.17-3.71-3-8.48-.41-2.43.92-3.64,4.81-6.49,5.14-3.77,12.9-9.46,8.75-23.3-5.45-18.18-14-32.72-28.17-56.8l-4.43-7.54c-15.54-26.5-16.07-41.39-16.08-42A3.9,3.9,0,0,0,139.16,149.84Z" style="fill:#fff"></path><circle cx="160.32" cy="153.73" r="26.38" style="fill:#F46744"></circle><path d="M160.32,181.11a27.39,27.39,0,1,1,27.38-27.38A27.41,27.41,0,0,1,160.32,181.11Zm0-52.76a25.38,25.38,0,1,0,25.38,25.38A25.4,25.4,0,0,0,160.32,128.35Z" style="fill:#fff"></path><circle cx="160.32" cy="153.73" r="18.56" transform="translate(-44.46 239.74) rotate(-66.58)" style="fill:#F46744"></circle><path d="M160.32,173.29a19.57,19.57,0,1,1,19.57-19.56A19.58,19.58,0,0,1,160.32,173.29Zm0-37.12a17.56,17.56,0,1,0,17.56,17.56A17.58,17.58,0,0,0,160.32,136.17Z" style="fill:#fff"></path><circle cx="160.32" cy="153.73" r="6.43" style="fill:#F46744"></circle><path d="M160.32,161.16a7.44,7.44,0,1,1,7.44-7.43A7.44,7.44,0,0,1,160.32,161.16Zm0-12.86a5.43,5.43,0,1,0,5.43,5.43A5.44,5.44,0,0,0,160.32,148.3Z" style="fill:#fff"></path><path d="M318.59,205.5a4.79,4.79,0,0,0,1.69-.3c3.33-1.23,20.25-7.74,25.73-15.42,6.11-8.55-.07-25.68-1.38-29a4.88,4.88,0,0,0-9.1,3.53c2.83,7.32,4.53,17,2.53,19.82-2.77,3.88-14,9.31-21.16,11.94a4.88,4.88,0,0,0,1.69,9.46Z" style="fill:#F46744"></path><path d="M318.59,206.51a5.89,5.89,0,0,1-2-11.42c8.11-3,18.33-8.26,20.69-11.57,1.59-2.21.32-11.21-2.65-18.87a5.89,5.89,0,0,1,11-4.27c1.33,3.44,7.66,21,1.26,30-5.65,7.92-22.82,14.54-26.21,15.78A5.65,5.65,0,0,1,318.59,206.51Zm21.49-47.87a3.81,3.81,0,0,0-1.4.26,3.89,3.89,0,0,0-2.22,5c2.52,6.5,4.93,17.24,2.42,20.77C335.82,189,324,194.49,317.25,197a3.88,3.88,0,0,0-2.3,5,3.94,3.94,0,0,0,5,2.3c3.29-1.21,19.95-7.63,25.26-15.06,5.81-8.13-.22-24.83-1.49-28.09A3.89,3.89,0,0,0,340.08,158.64Z" style="fill:#fff"></path><path d="M337.15,308.08a5.28,5.28,0,0,0,1-.09c1.92-.38,8.37-2.72,10.7-16.69,1.33-8-4.23-12-8.28-15-4.93-3.62-7.91-5.8-5.54-13.71,5.15-17.16,13.5-31.36,27.34-54.88l4.44-7.55c17.08-29.14,17.28-45.74,17.28-46.43a4.89,4.89,0,0,0-9.77,0c0,.31-.49,15.16-15.94,41.53l-4.43,7.54c-14.21,24.15-22.79,38.73-28.28,57-4.35,14.51,4.09,20.69,9.12,24.39,4.05,3,4.71,3.79,4.42,5.52-1.13,6.79-3.17,8.58-3.55,8.86a4.88,4.88,0,0,0,1.53,9.52Zm-1-9.67h0Zm0,0h0Zm0,0Zm38.09-144.68h0Z" style="fill:#F46744"></path><path d="M337.15,309.09a5.89,5.89,0,0,1-2-11.42c.41-.38,2.08-2.23,3.06-8.14.18-1.06,0-1.57-4-4.54-4.91-3.6-14.05-10.3-9.49-25.49,5.53-18.42,14.13-33,28.37-57.25l4.43-7.54c14.34-24.46,15.68-39,15.79-40.85,0,0,0-.09,0-.13a.66.66,0,0,1,0-.21,5.89,5.89,0,0,1,11.77.21c0,.7-.2,17.56-17.42,46.94l-4.44,7.55c-13.79,23.45-22.12,37.6-27.24,54.66-2.17,7.23.29,9,5.17,12.61,4,2.95,10.11,7.41,8.68,16-2.44,14.6-9.41,17.09-11.5,17.5A5.47,5.47,0,0,1,337.15,309.09Zm-1-9.67-.21.1a3.88,3.88,0,0,0,1.22,7.56,3.92,3.92,0,0,0,.76-.08c1.76-.35,7.69-2.53,9.91-15.86,1.22-7.35-3.82-11.06-7.88-14-4.93-3.61-8.48-6.22-5.91-14.8,5.19-17.29,13.56-31.53,27.43-55.1l4.44-7.56c17-28.91,17.14-45.24,17.14-45.92a3.88,3.88,0,0,0-7.76,0c0,.64-.54,15.53-16.08,42l-4.43,7.54c-14.17,24.08-22.72,38.62-28.18,56.8-4.15,13.84,3.62,19.53,8.76,23.3,3.89,2.85,5.22,4.06,4.81,6.49-.79,4.77-2.05,7.24-3,8.48a.15.15,0,0,1,0,.07,1,1,0,0,1-.56.9l-.09,0-.16,0a.83.83,0,0,1-.22,0h0Z" style="fill:#fff"></path><circle cx="358" cy="153.73" r="26.38" style="fill:#F46744"></circle><path d="M358,181.11a27.39,27.39,0,1,1,27.38-27.38A27.41,27.41,0,0,1,358,181.11Zm0-52.76a25.38,25.38,0,1,0,25.37,25.38A25.41,25.41,0,0,0,358,128.35Z" style="fill:#fff"></path><circle cx="358" cy="153.73" r="18.56" transform="translate(-10.87 279.14) rotate(-42.02)" style="fill:#F46744"></circle><path d="M358,173.29a19.57,19.57,0,1,1,19.56-19.56A19.59,19.59,0,0,1,358,173.29Zm0-37.12a17.56,17.56,0,1,0,17.56,17.56A17.57,17.57,0,0,0,358,136.17Z" style="fill:#fff"></path><path d="M351.56,153.73a6.44,6.44,0,1,1,6.44,6.43A6.44,6.44,0,0,1,351.56,153.73Z" style="fill:#F46744"></path><path d="M358,161.16a7.44,7.44,0,1,1,7.43-7.43A7.44,7.44,0,0,1,358,161.16Zm0-12.86a5.43,5.43,0,1,0,5.43,5.43A5.43,5.43,0,0,0,358,148.3Z" style="fill:#fff"></path><rect x="247.09" y="288.78" width="26" height="117" style="fill:#F46744"></rect><path d="M273.09,406.78h-26a1,1,0,0,1-1-1v-117a1,1,0,0,1,1-1h26a1,1,0,0,1,1,1v117A1,1,0,0,1,273.09,406.78Zm-25-2h24v-115h-24Z" style="fill:#fff"></path><path d="M242.41,104.27h35.37a4.2,4.2,0,0,1,4.2,4.2V231.59a0,0,0,0,1,0,0H238.2a0,0,0,0,1,0,0V108.47A4.2,4.2,0,0,1,242.41,104.27Z" style="fill:#F46744"></path><path d="M282,232.6H238.2a1,1,0,0,1-1-1v-122a6.28,6.28,0,0,1,6.27-6.27H276.7a6.28,6.28,0,0,1,6.28,6.27V231.59A1,1,0,0,1,282,232.6Zm-42.76-2H281v-121a4.27,4.27,0,0,0-4.27-4.26H243.47a4.26,4.26,0,0,0-4.26,4.26Z" style="fill:#fff"></path><rect x="226.65" y="111.68" width="66.87" height="10.19" style="fill:#F46744"></rect><path d="M293.53,122.87H226.65a1,1,0,0,1-1-1V111.68a1,1,0,0,1,1-1h66.88a1,1,0,0,1,1,1v10.19A1,1,0,0,1,293.53,122.87Zm-65.88-2h64.87v-8.18H227.65Z" style="fill:#fff"></path><path d="M205,168.34H315.2a14,14,0,0,1,14,14v117.9a44.82,44.82,0,0,1-44.82,44.82H235.8A44.82,44.82,0,0,1,191,300.24V182.33A14,14,0,0,1,205,168.34Z" style="fill:#F46744"></path><path d="M273,346.06H247.21A57.3,57.3,0,0,1,190,288.82V185.9a18.59,18.59,0,0,1,18.56-18.57H311.63A18.59,18.59,0,0,1,330.2,185.9V288.82A57.31,57.31,0,0,1,273,346.06ZM208.54,169.34A16.57,16.57,0,0,0,192,185.9V288.82a55.29,55.29,0,0,0,55.22,55.23H273a55.29,55.29,0,0,0,55.23-55.23V185.9a16.58,16.58,0,0,0-16.56-16.56Z" style="fill:#fff"></path><path d="M318.15,296.58a59.44,59.44,0,0,1-43.45,45.67c13.64-7.32,23.95-24.58,26.8-45.67h-2.1c-3.34,24.39-16.84,43.39-33.68,46.9,7-6.44,12.33-24.51,13.74-46.9h-2.34c-1.6,27.06-8.63,47.5-17,47.5s-15.43-20.44-17-47.5h-2.34c1.41,22.39,6.77,40.46,13.74,46.9-16.84-3.51-30.35-22.51-33.68-46.9h-2.1c2.85,21.09,13.16,38.35,26.8,45.67A59.43,59.43,0,0,1,202,296.58h-2a61.19,61.19,0,0,0,120.1,0Z" style="fill:#fff"></path><path d="M201.76,143.66H318.42a7.32,7.32,0,0,1,7.32,7.32v11.44a0,0,0,0,1,0,0H194.44a0,0,0,0,1,0,0V151A7.32,7.32,0,0,1,201.76,143.66Z" style="fill:#F46744"></path><path d="M325.74,163.42H194.44a1,1,0,0,1-1-1v-9.58a10.21,10.21,0,0,1,10.2-10.19H316.55a10.21,10.21,0,0,1,10.19,10.19v9.58A1,1,0,0,1,325.74,163.42Zm-130.3-2h129.3v-8.57a8.2,8.2,0,0,0-8.19-8.18H203.63a8.19,8.19,0,0,0-8.19,8.18Z" style="fill:#fff"></path><path d="M214,400.49H306.2a6.85,6.85,0,0,1,6.85,6.85V417.5a0,0,0,0,1,0,0H207.12a0,0,0,0,1,0,0V407.35A6.85,6.85,0,0,1,214,400.49Z" style="fill:#F46744"></path><path d="M313.06,418.51H207.12a1,1,0,0,1-1-1v-8.41a9.61,9.61,0,0,1,9.6-9.6h88.74a9.62,9.62,0,0,1,9.6,9.6v8.41A1,1,0,0,1,313.06,418.51Zm-104.94-2H312.05v-7.41a7.59,7.59,0,0,0-7.59-7.59H215.72a7.6,7.6,0,0,0-7.6,7.59Z" style="fill:#fff"></path><rect x="200.28" y="411.24" width="119.61" height="17.01" style="fill:#F46744"></rect><path d="M319.89,429.25H200.28a1,1,0,0,1-1-1v-17a1,1,0,0,1,1-1H319.89a1,1,0,0,1,1,1v17A1,1,0,0,1,319.89,429.25Zm-118.6-2h117.6v-15H201.29Z" style="fill:#fff"></path><rect x="184.65" y="159.45" width="150.87" height="36.53" style="fill:#F46744"></rect><path d="M335.53,197H184.65a1,1,0,0,1-1-1V159.45a1,1,0,0,1,1-1H335.53a1,1,0,0,1,1,1V196A1,1,0,0,1,335.53,197Zm-149.88-2H334.52V160.46H185.65Z" style="fill:#fff"></path><rect x="184.65" y="165.45" width="150.87" height="24.54" style="fill:#F46744"></rect><path d="M335.53,191H184.65a1,1,0,0,1-1-1V165.45a1,1,0,0,1,1-1H335.53a1,1,0,0,1,1,1V190A1,1,0,0,1,335.53,191Zm-149.88-2H334.52V166.45H185.65Z" style="fill:#fff"></path><ellipse cx="260.09" cy="80.65" rx="11.56" ry="23.12" style="fill:#F46744"></ellipse><path d="M260.09,104.77c-7,0-12.57-10.59-12.57-24.12S253,56.53,260.09,56.53s12.56,10.59,12.56,24.12S267.13,104.77,260.09,104.77Zm0-46.24c-5.72,0-10.56,10.13-10.56,22.12s4.84,22.12,10.56,22.12,10.56-10.13,10.56-22.12S265.81,58.53,260.09,58.53Z" style="fill:#fff"></path><path d="M285.9,374.52C284.77,363,273.66,354,260.09,354s-24.69,9-25.81,20.55Z" style="fill:#F46744"></path><path d="M285.9,375.52H234.28a1,1,0,0,1-.74-.33,1,1,0,0,1-.26-.77c1.18-12,12.95-21.46,26.81-21.46s25.63,9.43,26.8,21.46a1,1,0,0,1-.25.77A1,1,0,0,1,285.9,375.52Zm-50.48-2h49.34C283.09,363,272.49,355,260.09,355S237.09,363,235.42,373.51Z" style="fill:#fff"></path><path d="M327.19,300.27a60.58,60.58,0,0,0,1.63-8.79H191.36a59.26,59.26,0,0,0,1.63,8.79Z" style="fill:#F46744"></path><path d="M327.19,301.27H193a1,1,0,0,1-1-.75,61.08,61.08,0,0,1-1.66-8.93,1,1,0,0,1,.25-.78,1,1,0,0,1,.75-.34H328.82a1,1,0,0,1,.75.34,1,1,0,0,1,.25.78,61.08,61.08,0,0,1-1.66,8.93A1,1,0,0,1,327.19,301.27Zm-133.42-2H326.41a57.62,57.62,0,0,0,1.28-6.79H192.49A57.62,57.62,0,0,0,193.77,299.27Z" style="fill:#fff"></path></g></g><g id="freepik--Character--inject-17"><ellipse cx="240.79" cy="392.92" rx="83.32" ry="4.66" style="fill:#263238"></ellipse><path d="M206.13,201.89s-7.09,0-10.89,1-36.19,12.15-37,12.15-8.61-3-9.62-3-5.82,2.53-5.32,4.8,5.57,5.83,7.09,6.84,9.87-3,9.87-3,25.06-1.77,30.88-3,12.91-2,12.91-2Z" style="fill:#fff;stroke:#263238;stroke-linecap:round;stroke-linejoin:round"></path><path d="M156.42,223.2l-17.49-21.32-4.22-14.45a1,1,0,0,0-.35-.49,22.34,22.34,0,0,0-.44-3.32,49.29,49.29,0,0,0-7.33-16.42c-7.91-12-18.08-18.69-23.14-15.34s-2.84,15.34,5.07,27.3a49.33,49.33,0,0,0,12.25,13.16c.61.42,1.21.79,1.8,1.13l14.34,10.76,17.17,20.92a1.52,1.52,0,0,0,1.17.55,1.55,1.55,0,0,0,1-.34A1.52,1.52,0,0,0,156.42,223.2Zm-25.74-32.43,1.35-.27a5.46,5.46,0,0,1-.57,1.34Zm-27.79-30.12c-.07-.51-.11-1-.13-1.48l.86-.17,1.09,1.49-1.69.34Zm.21,1.34c-.07-.38-.13-.74-.18-1.1C103,161.25,103,161.61,103.1,162Zm22.34,21.62-1.09-1.49,1.69-.35,1.09,1.49Zm2.18.33,1.09,1.49-1.69.34-1.09-1.49Zm-3.77-2.5L122.77,180l1.69-.34,1.09,1.49Zm-10.46-17,1.09,1.49-1.69.34-1.1-1.49Zm-2.19-.33-1.08-1.49,1.69-.34,1.08,1.49Zm9.5,13-1.1-1.49,1.69-.35,1.1,1.49Zm2.18.33,1.09,1.49-1.7.34-1.08-1.49ZM119.12,175l-1.1-1.49,1.69-.34,1.1,1.49Zm-1.59-2.17-1.09-1.49,1.69-.34,1.09,1.49ZM116,170.63l-1.09-1.49,1.69-.34,1.09,1.49Zm-1.58-2.16-1.1-1.49,1.71-.34,1.08,1.49Zm-.82.16-1.69.35-1.1-1.49,1.69-.35Zm.49.68,1.09,1.49-1.69.33-1.09-1.49Zm1.58,2.16,1.09,1.48-1.69.35-1.09-1.49Zm1.58,2.16,1.1,1.49-1.69.35-1.1-1.49Zm1.58,2.17,1.1,1.49-1.7.33-1.09-1.49Zm1.59,2.16,1.08,1.48-1.69.35-1.08-1.49Zm1.58,2.16,1.08,1.49-1.69.35-1.08-1.49Zm1.75-2.83,1.69-.35,1.09,1.49-1.69.35Zm-.49-.68-1.1-1.49,1.7-.34,1.09,1.49Zm-1.58-2.17-1.1-1.49,1.69-.33,1.1,1.49ZM120,172.29,119,170.8l1.7-.35,1.09,1.49Zm-1.58-2.17-1.09-1.49,1.7-.34,1.08,1.49ZM116.88,168l-1.09-1.48,1.7-.35,1.08,1.49Zm-1.58-2.16-1.09-1.49,1.69-.35,1.09,1.49Zm-1.59-2.17-1.08-1.49,1.69-.33,1.09,1.48Zm-1.58-2.16L111.05,160l1.69-.35,1.08,1.49Zm-.82.17-1.69.34-1.08-1.49,1.69-.34ZM108,159.81,107,158.33l1.7-.35,1.08,1.49Zm.76,2.33-1.69.35L106,161l1.69-.35Zm.5.68,1.08,1.49-1.69.33-1.09-1.49Zm1.57,2.16,1.1,1.49-1.69.34-1.1-1.49Zm.17,4.16-1.69.34-1.1-1.49,1.69-.34Zm.49.68,1.09,1.48-1.69.34-1.09-1.48Zm1.58,2.15,1.09,1.49-1.7.35-1.08-1.49Zm1.58,2.17,1.1,1.49-1.71.34L113,174.48Zm1.58,2.17,1.09,1.48-1.69.34-1.09-1.49Zm1.59,2.15,1.08,1.49-1.69.35-1.09-1.49Zm1.58,2.17,1.08,1.49-1.69.34L117.75,181ZM121,182.8l1.09,1.48-1.7.34-1.08-1.49Zm.82-.18,1.69-.34,1.09,1.49-1.69.34Zm3.27,1.83,1.09,1.48-1.69.35-1.09-1.49Zm1.59,2.16,1.08,1.49-1.69.34L125,187Zm1.58,2.16,1.08,1.49-1.69.34-1.08-1.49Zm.82-.16,1.69-.35,1.08,1.49-1.69.35Zm-.5-.68-1.08-1.49,1.69-.33,1.08,1.49Zm-.16-4.15,1.7-.35,1.09,1.49-1.7.35Zm-.49-.68-1.09-1.49,1.69-.34,1.1,1.49Zm-1.58-2.17-1.09-1.49,1.69-.33,1.1,1.49Zm-.16-4.15,1.69-.34,1.09,1.49-1.69.34Zm-.49-.68-1.1-1.48,1.7-.35,1.09,1.49Zm-1.58-2.16-1.1-1.49,1.7-.34,1.09,1.49Zm-1.59-2.16-1.08-1.49,1.69-.34,1.09,1.49ZM121,169.61l-1.08-1.48,1.69-.35,1.08,1.49Zm-.15-4.16,1.69-.33,1.08,1.49-1.69.33Zm.26,1.66-1.69.34L118.31,166l1.69-.34Zm-3.27-1.82-1.09-1.49,1.69-.34L119.5,165Zm-1.59-2.17-1.08-1.48,1.69-.35,1.09,1.49ZM114.64,161l-1.08-1.49,1.69-.34,1.08,1.48Zm-1.58-2.17L112,157.31l1.69-.34,1.08,1.49Zm-.82.16-1.69.35-1.09-1.49,1.7-.35ZM109,157.14l-1.09-1.49,1.69-.33,1.09,1.49Zm-.82.17-1.69.34-1.09-1.49,1.69-.34Zm-.93,2.67-1.69.34-1.09-1.49,1.69-.34Zm-2,1.18,1.08,1.49-1.69.34-1.09-1.49Zm1.57,2.17,1.09,1.48-1.69.35-1.09-1.49Zm1.58,2.15,1.1,1.49-1.7.35-1.09-1.49Zm.17,4.16-1.69.35-1.1-1.49,1.69-.34Zm-2.51.51-.18,0-.3-.69Zm.06.56-.09-.19Zm.43.12,1.08,1.49-.65.13c-.27-.52-.53-1-.77-1.55Zm.81-.16,1.7-.35,1.09,1.49-1.7.35Zm3.28,1.81,1.08,1.49-1.69.34-1.08-1.49Zm1.58,2.17,1.09,1.48-1.7.35L110.49,175Zm1.58,2.16,1.09,1.49-1.69.33-1.09-1.47Zm1.59,2.16,1.08,1.49-1.69.34-1.09-1.49Zm.15,4.16-1.29.26c-.4-.47-.79-1-1.18-1.47l1.39-.28Zm-.26-1.65,1.69-.34,1.08,1.48-1.69.35Zm3.27,1.82,1.09,1.49-1.7.33-1.08-1.48Zm1.58,2.16,1.09,1.49-1.69.34-1.09-1.49Zm.82-.16,1.69-.35,1.09,1.49-1.69.34Zm3.28,1.82,1.08,1.49-1.69.34-1.09-1.49Zm1.58,2.17,1.08,1.47-1.69.35-1.08-1.49Zm-.51,3.23c-.32-.14-.64-.29-1-.46l.55-.11Zm.4-.73,1.69-.35,1.37,1.89a3.69,3.69,0,0,0,.85-.13l-1.4-1.92,1.69-.34,1.1,1.5a2.86,2.86,0,0,1-.41.37,4.76,4.76,0,0,1-4,.18Zm.56,1.1-.29-.09Zm6.09-3.83-.7-1,.76-.15Q132.36,188.54,132.31,189.06Zm0,0,0,.16Zm-.17,1s0,.06,0,.09Zm.22-2.93-1.25.24L130,185.93l1.69-.33.57.77C132.31,186.64,132.34,186.92,132.36,187.18Zm-.42-3.15c.05.25.08.48.12.72h0l-1.1-1.49.77-.16C131.79,183.42,131.88,183.73,131.94,184Zm-.4-1.66-1.07.22-1.1-1.48,1.69-.35C131.23,181.3,131.4,181.84,131.54,182.37Zm-2.66-1.94-1.09-1.49,1.69-.34,1.1,1.49Zm1.06-2.7-.13,0-1.09-1.48.55-.12c.46,1,.86,2,1.22,3C130.32,178.67,130.14,178.21,129.94,177.73Zm-1.71-2.13-1.09-1.49,1-.21q.41.78.78,1.56Zm-.43-2.4-1.15.23-1.09-1.49,1.39-.28C127.25,172.17,127.53,172.69,127.8,173.2Zm-2.09-3.61q.44.69.84,1.38h0c.1.17.2.33.29.5l-.29-.5-1.48.3L124,169.79l1.64-.34Zm-.81-1.27c.15.22.29.45.43.67-.14-.22-.28-.45-.43-.67s-.39-.57-.58-.85C124.51,167.75,124.71,168,124.9,168.32Zm.27.44-1.69.35-1.08-1.49,1.69-.34ZM120.91,163h0l.08.09h0c.22.25.43.52.65.79-.22-.26-.43-.53-.64-.79l1,1.4-1.69.34-1.09-1.48,1.68-.35-.28-.33Zm-1.86-2.1h0c.41.44.82.89,1.23,1.37l.07.07-1.61.33-1.09-1.49,1.4-.28-.58-.62Zm-2-2.06c.44.41.89.85,1.34,1.31l.1.1-1.29.25L116.07,159l.92-.18Zm-2.34-2,0,0,1.53,1.28.06,0-.73.15-1.08-1.48Zm-2.77-1.92h0c.13.08.26.15.4.25h0c.34.21.68.44,1,.68-.35-.24-.69-.47-1-.67l.88,1.19-1.69.34-1.09-1.48,1.5-.3c-.34-.2-.66-.39-1-.55C111.22,154.47,111.55,154.65,111.89,154.85Zm-2-.37-.67-.91a13.81,13.81,0,0,1,1.62.71ZM108,153.2l1.06,1.44-1.7.34L106,153.07a3.56,3.56,0,0,1,.58-.06A6.42,6.42,0,0,1,108,153.2Zm-3.46.35a2.73,2.73,0,0,1,.62-.3l1.39,1.9-1.7.34-1-1.32A3,3,0,0,1,104.56,153.55Zm-1.11,1.28.6.82-1,.2A5.84,5.84,0,0,1,103.45,154.83Zm-.59,1.85h0v0l1.68-.33,1.09,1.49-1.69.34-1.08-1.48a.77.77,0,0,0,0,.15C102.85,156.78,102.86,156.73,102.86,156.68Zm-.11,1.13.38.52-.39.08C102.74,158.21,102.74,158,102.75,157.81Zm.41,4.5.62.84-.41.09c.06.24.11.46.17.71C103.39,163.38,103.27,162.84,103.16,162.31Zm1.11,1.52,1.09,1.49-1.33.26c-.18-.54-.35-1.09-.48-1.61Zm0,2.48,1.58-.31,1.1,1.49-1.7.33-.85-1.16C104.36,166.55,104.31,166.43,104.27,166.31Zm.92,2.41,0-.13A.5.5,0,0,1,105.19,168.72Zm1.76,3.75c0,.1.11.2.16.31Zm.36.68.78-.15,1.08,1.48-1,.21C107.85,174.17,107.58,173.66,107.31,173.15Zm1.25,2.23,1.11-.23,1.08,1.49-1.26.26C109.17,176.39,108.86,175.89,108.56,175.38Zm1.65,2.66-.47-.74.18.28,1.33-.26,1.09,1.49-1.4.28C110.69,178.74,110.45,178.4,110.21,178Zm1.19,1.73,1.43-.28,1.09,1.47-1.41.3C112.13,180.77,111.77,180.28,111.4,179.77Zm2.88,3.71h0Zm.5.57,1.22-.24,1.08,1.49-1,.2C115.64,185,115.21,184.54,114.78,184.05Zm3.37,3.51c-.49-.45-1-.92-1.45-1.41l.88-.19,1.09,1.49Zm.69.64.32-.07.66.91ZM120,188l1.7-.34,1.08,1.48-1.69.35Zm3.34,3.51h0l-.37-.27,0,0a.8.8,0,0,0-.32-.13l-.63-.38.24.16-.29-.18-.17-.13.17.12,0,0-.4-.55,1.69-.34,1.08,1.49-1,.2,0,0Zm5.24,3.89a5.29,5.29,0,0,0,5.26-3.75l2.28,7.78a1.56,1.56,0,0,0-.89.34,1.65,1.65,0,0,0-.34.41l-6.37-4.78Z" style="fill:#263238"></path><path d="M144.87,215.56s3.55-.51,5.07.25,5.82,4.56,4.55,5.32-2.53,2.78-4.05,2.53-5.31-3.55-6.58-5.06" style="fill:#fff;stroke:#263238;stroke-linecap:round;stroke-linejoin:round"></path><path d="M153.23,214.8a22.79,22.79,0,0,1-5.83,1.26c-2.27,0-4.55,2-3.54,2.54s4.81,0,4.81,0,4.3,3.54,8.1.25" style="fill:#fff;stroke:#263238;stroke-linecap:round;stroke-linejoin:round"></path><path d="M302.17,210.88s10.1,8,11.08,9.55c2.88,4.52-1.25,19.11-2.75,25.74-1.36,6-3.72,13.83-3.38,14.34s5.8,4.61,6.14,6.82.68,4.78,0,5.29-1-1.36-1.2-2.39a8.39,8.39,0,0,0-1-2.38s-.68,4.94-.68,5.62-1.54,2.73-2.05,2.73-.34-2.38-.34-2.9-.17-4.6-.17-4.6-1,5.46-1.37,6.14-1.87,3.41-2.72,2.22.17-2.56.34-3.76.44-4.76.44-4.76-1.78,3.76-2.12,4.61-2.19,2.88-2.76,2.37.07-2.08.84-3.81a12.33,12.33,0,0,0,.2-3.65s-1.89-4.65-2.91-4.65-5.12,2-6.66,2.73-3.41.17-2.38-.51a47.17,47.17,0,0,0,4.26-3.58,15,15,0,0,1,3.24-2.56c.85-.34,5.1-1.82,5.1-1.82s0-17.62-.16-21.72c-.1-2.54-.09-5.35-.06-7.12A3.51,3.51,0,0,0,299.7,226l-2.82-2.15S292.61,213.44,302.17,210.88Z" style="fill:#fff;stroke:#263238;stroke-linecap:round;stroke-linejoin:round"></path><path d="M304.49,268.54a8,8,0,0,0-.2-2.71" style="fill:none;stroke:#263238;stroke-linecap:round;stroke-linejoin:round"></path><path d="M307.8,268.7a25.42,25.42,0,0,0-.07-2.87" style="fill:none;stroke:#263238;stroke-linecap:round;stroke-linejoin:round"></path><path d="M311,267.85a3.57,3.57,0,0,0-.46-2.14" style="fill:none;stroke:#263238;stroke-linecap:round;stroke-linejoin:round"></path><path d="M203.33,357.8s-7.5-1.88-10.06.68.85,6.83,0,9.9-1.54,8.87-.69,11.08,4.1,9.21,6.49,7.85,2.9-7.85,2.9-11.43.85-9.72,1.87-10.57S205.89,360.87,203.33,357.8Z" style="fill:#F46744;stroke:#263238;stroke-linecap:round;stroke-linejoin:round"></path><path d="M238.81,311.41s-5.29,16.71-5.63,18.76a11.84,11.84,0,0,1-.85,3.07s-11.43,5.46-14.67,9.38-8,9.89-10.41,11.43a27.63,27.63,0,0,0-6.65,5.63c-1.36,1.87-.55,10.49,1.54,9,3.92-2.73,21.15-15,31.55-20.47,6.44-3.38,16.55-9.55,18.93-13s6.14-19.11,7.51-23.54S241.88,308.85,238.81,311.41Z" style="fill:#fff;stroke:#263238;stroke-linecap:round;stroke-linejoin:round"></path><path d="M212.77,348.49a34.4,34.4,0,0,1-5.52,5.56,27.63,27.63,0,0,0-6.65,5.63c-1.36,1.87-.55,10.49,1.54,9,2.25-1.57,8.92-6.31,16.16-11.09C212.47,357.86,212.42,351.64,212.77,348.49Z" style="fill:#263238;stroke:#263238;stroke-linecap:round;stroke-linejoin:round"></path><path d="M227.55,263.31A83.72,83.72,0,0,0,226,277.64c0,6.82,11.08,24.73,11.76,25.58s-1,8.36-1,8.36,1,2.73,8,3.75,16.37-.68,16.37-.68,7.51-14.84,10.92-24.22,4.6-28.83,4.6-28.83a56.11,56.11,0,0,1-19.1,3.07c-11.43,0-28.31-2.22-28.31-2.22S227.72,262.11,227.55,263.31Z" style="fill:#263238;stroke:#263238;stroke-linecap:round;stroke-linejoin:round"></path><path d="M237.77,189.24s-12.66-2.54-18.74.25-7.08,4-8.6,6.07a65.14,65.14,0,0,1-6.08,6.08,83.2,83.2,0,0,0-1.77,9.11,20.2,20.2,0,0,0,1.27,7.09l13.92,6.07s9.62,22.28,10.12,26.83,1.27,5.57-.25,6.58-3.29,4.31-2.28,6.08,11.65,2.53,17.21,3.29,23.8,1.26,28.35.25,7.09-3.29,7.09-5.82a44.46,44.46,0,0,0-1-6.84c-.26-1.77-1.77-31.89-1.77-31.89s12.44,4.68,15,6.2a56.74,56.74,0,0,0,7.34,3.29s-1.26-8.1,1.27-13.66,4.3-6.59,4.3-6.59-18.4-15.48-19.67-15.73-12.52-5.65-18.34-6.66S237.77,189.24,237.77,189.24Z" style="fill:#F46744;stroke:#263238;stroke-linecap:round;stroke-linejoin:round"></path><path d="M217.77,223.91a158.87,158.87,0,0,1-4-18.42" style="fill:none;stroke:#263238;stroke-linecap:round;stroke-linejoin:round"></path><path d="M210,204.29s4.1,13.65,7.51,18.08" style="fill:none;stroke:#263238;stroke-linecap:round;stroke-linejoin:round"></path><path d="M275.23,222.39a31.15,31.15,0,0,1-10.67-16.22" style="fill:none;stroke:#263238;stroke-linecap:round;stroke-linejoin:round"></path><path d="M274.63,222s-5.46-.34-11.26-7.16" style="fill:none;stroke:#263238;stroke-linecap:round;stroke-linejoin:round"></path><path d="M220.9,231.75s14.33,23.54,23.2,29.17" style="fill:none;stroke:#263238;stroke-linecap:round;stroke-linejoin:round"></path><path d="M226.87,246.25s6.48,11.09,9.72,13.65" style="fill:none;stroke:#263238;stroke-linecap:round;stroke-linejoin:round"></path><path d="M236.08,187.71a9,9,0,0,0-6.83,3.92c-2.32,3.78-3.34,21.94-3.19,22.67s8.42-6,15-5.81,13.22,9.59,13.22,9.59a30.38,30.38,0,0,0,2.91-18.16C255.7,189.16,244.65,185.24,236.08,187.71Z" style="fill:#263238;stroke:#263238;stroke-linecap:round;stroke-linejoin:round"></path><path d="M253,164.6a4.68,4.68,0,0,0,5.05-2.53c1.77-3.29.51-5.06-1.77-5.06h-4s.87-5.08-3.17-5.08-11.73,4.1-11.73,4.1-12.51,1.74-12.8,10.5c-.41,12.27,7.21,14.76,7.21,14.76s2,2.28,3.8.51a9,9,0,0,0,2.27-3.8s3.54-1,3.54-3.54-4-4.8-2.27-6.32S253,164.6,253,164.6Z" style="fill:#263238;stroke:#263238;stroke-linecap:round;stroke-linejoin:round"></path><path d="M242.65,157.77s-.58-2.92,1.46-2.92,3.07,3.69,1.9,6.61-9.2,3.61-13.87,5.66-6.42,7-6.42,7" style="fill:none;stroke:#fff;stroke-linecap:round;stroke-linejoin:round;stroke-width:0.5px"></path><path d="M228.34,176.75s1.17-3.21,5.84-5" style="fill:none;stroke:#fff;stroke-linecap:round;stroke-linejoin:round;stroke-width:0.5px"></path><path d="M260,297.76s3.92,9.89,4.77,15.35.52,26.27,1.2,34.29,6.82,28,6.82,28,9.55-4.95,13-6.65,5.8-2.9,5.8-.34-2,9.21-4.94,11.08-8.53,3.93-9.21,5.46-4.1,6.14-6.49,6.65-4.43-2.38-5.28-4.26-2.22-8.87-2.22-8.87-8.19-18.08-12.11-25.93-6.14-16.71-6.14-21.49,2.73-13.13,2.39-14.33-7.85-12.28-7.85-12.28,1-4.43,7.68-6.31A26.89,26.89,0,0,1,260,297.76Z" style="fill:#fff;stroke:#263238;stroke-linecap:round;stroke-linejoin:round"></path><path d="M285.71,368.72c-3.41,1.7-13,6.65-13,6.65s-3.64-11.84-5.63-20.95a14,14,0,0,0-9.38,4.06c-.92.93-1.7,1.78-2.38,2.58,3.82,8.13,8,17.38,8,17.38s1.36,7,2.22,8.87,2.9,4.78,5.28,4.26,5.8-5.11,6.49-6.65,6.31-3.58,9.21-5.46,4.94-8.53,4.94-11.08S289.13,367,285.71,368.72Z" style="fill:#263238;stroke:#263238;stroke-linecap:round;stroke-linejoin:round"></path><path d="M264.53,383.74a24.62,24.62,0,0,0,1.06,3.57c.85,1.88,2.9,4.78,5.28,4.26s5.8-5.11,6.49-6.65,6.31-3.58,9.21-5.46,4.94-8.53,4.94-11.08-2.38-1.37-5.8.34-13,6.65-13,6.65A18.56,18.56,0,0,0,264.53,383.74Z" style="fill:#F46744;stroke:#263238;stroke-linecap:round;stroke-linejoin:round"></path><path d="M277.36,384.92c.68-1.53,6.31-3.58,9.21-5.46s4.94-8.53,4.94-11.08c0-1.29-.6-1.63-1.64-1.43-3.93,2.94-15.64,11.95-19.17,17.46-1.88,2.94-2.53,5.07-2.35,6.51a3.11,3.11,0,0,0,2.52.65C273.26,391.06,276.67,386.46,277.36,384.92Z" style="fill:#fff;stroke:#263238;stroke-linecap:round;stroke-linejoin:round"></path><path d="M246.31,272.18s6.48,6.14,9.21,11.42,5.8,15.53,5.8,15.53-9.21.51-13,1.7-9.21,9.55-9.21,9.55-6-10.06-9.38-16.71-4.44-13.31-3.58-18.42,2-5.8,2-5.8" style="fill:#263238;stroke:#263238;stroke-linecap:round;stroke-linejoin:round"></path><path d="M248,270.47s9.55,8,12.28,16.89" style="fill:none;stroke:#fff;stroke-linecap:round;stroke-linejoin:round"></path><path d="M260.47,279.51s3.58,6.14,4.09,9.89" style="fill:none;stroke:#fff;stroke-linecap:round;stroke-linejoin:round"></path><path d="M232.7,185.19l2.79,9.11a26.63,26.63,0,0,0-.26,10.12c1,4.81,2.79,8.35,5.07,8.35s11.39-9.11,12.15-13.92a50.87,50.87,0,0,0,.75-6.58,20.33,20.33,0,0,1-10.37-2.78C237.77,186.45,232.7,181.89,232.7,185.19Z" style="fill:#fff;stroke:#263238;stroke-linecap:round;stroke-linejoin:round"></path><path d="M232,180.28s-4.38-2.18-4.38.86a7.11,7.11,0,0,0,3.11,5.71,2.3,2.3,0,0,0,3-.5l7.84,7.08c2.52,2.27,7.08,4.8,10.36,2.27s3-8.09,3-8.09,2-9.35,1-14.67a24.44,24.44,0,0,0-3-8.34s-10.37-1.27-14.67,2-3.29,4.55-1.52,6.07,2.53,2.78,1.77,3.54a14.71,14.71,0,0,1-2.78,1.77S235.81,182.3,232,180.28Z" style="fill:#fff;stroke:#263238;stroke-linecap:round;stroke-linejoin:round"></path><path d="M250.45,175.92s2,6.33,1.54,6.79-3.86.77-3.86.77" style="fill:none;stroke:#263238;stroke-linecap:round;stroke-linejoin:round"></path><path d="M249.83,174.37s1.24-2.93,4.17-2.93" style="fill:none;stroke:#263238;stroke-linecap:round;stroke-linejoin:round"></path><path d="M247.21,175.76s-4.79-1.54-7.26.62" style="fill:none;stroke:#263238;stroke-linecap:round;stroke-linejoin:round"></path><line x1="247.21" y1="188.42" x2="249.83" y2="188.42" style="fill:none;stroke:#263238;stroke-linecap:round;stroke-linejoin:round"></line><path d="M245.2,178.31c0,.57-.24,1-.54,1s-.54-.46-.54-1,.24-1,.54-1S245.2,177.74,245.2,178.31Z" style="fill:#263238"></path><ellipse cx="252.53" cy="175.53" rx="0.54" ry="1.03" style="fill:#263238"></ellipse><line x1="235.49" y1="194.3" x2="238.52" y2="202.65" style="fill:none;stroke:#263238;stroke-linecap:round;stroke-linejoin:round"></line></g><g id="freepik--Net--inject-17"><g style="clip-path:url(#freepik--clip-path--inject-17)"><line x1="384.13" y1="308.9" x2="384.13" y2="400.49" style="fill:none;stroke:#263238;stroke-linecap:round;stroke-linejoin:round"></line><line x1="390.25" y1="308.9" x2="390.25" y2="400.49" style="fill:none;stroke:#263238;stroke-linecap:round;stroke-linejoin:round"></line><line x1="396.38" y1="308.9" x2="396.38" y2="400.49" style="fill:none;stroke:#263238;stroke-linecap:round;stroke-linejoin:round"></line><line x1="402.51" y1="308.9" x2="402.51" y2="400.49" style="fill:none;stroke:#263238;stroke-linecap:round;stroke-linejoin:round"></line><line x1="408.63" y1="308.9" x2="408.63" y2="400.49" style="fill:none;stroke:#263238;stroke-linecap:round;stroke-linejoin:round"></line><line x1="414.76" y1="308.9" x2="414.76" y2="400.49" style="fill:none;stroke:#263238;stroke-linecap:round;stroke-linejoin:round"></line><line x1="420.89" y1="308.9" x2="420.89" y2="400.49" style="fill:none;stroke:#263238;stroke-linecap:round;stroke-linejoin:round"></line><line x1="427.02" y1="308.9" x2="427.02" y2="400.49" style="fill:none;stroke:#263238;stroke-linecap:round;stroke-linejoin:round"></line><line x1="433.14" y1="308.9" x2="433.14" y2="400.49" style="fill:none;stroke:#263238;stroke-linecap:round;stroke-linejoin:round"></line><line x1="375.42" y1="316.96" x2="445.4" y2="316.96" style="fill:none;stroke:#263238;stroke-linecap:round;stroke-linejoin:round"></line><line x1="375.42" y1="322.77" x2="445.4" y2="322.77" style="fill:none;stroke:#263238;stroke-linecap:round;stroke-linejoin:round"></line><line x1="375.42" y1="328.57" x2="445.4" y2="328.57" style="fill:none;stroke:#263238;stroke-linecap:round;stroke-linejoin:round"></line><line x1="375.42" y1="334.38" x2="445.4" y2="334.38" style="fill:none;stroke:#263238;stroke-linecap:round;stroke-linejoin:round"></line><line x1="375.42" y1="340.18" x2="445.4" y2="340.18" style="fill:none;stroke:#263238;stroke-linecap:round;stroke-linejoin:round"></line><line x1="375.42" y1="345.99" x2="445.4" y2="345.99" style="fill:none;stroke:#263238;stroke-linecap:round;stroke-linejoin:round"></line><line x1="375.42" y1="351.79" x2="445.4" y2="351.79" style="fill:none;stroke:#263238;stroke-linecap:round;stroke-linejoin:round"></line><line x1="375.42" y1="357.6" x2="445.4" y2="357.6" style="fill:none;stroke:#263238;stroke-linecap:round;stroke-linejoin:round"></line><line x1="375.42" y1="363.4" x2="445.4" y2="363.4" style="fill:none;stroke:#263238;stroke-linecap:round;stroke-linejoin:round"></line><line x1="375.42" y1="369.21" x2="445.4" y2="369.21" style="fill:none;stroke:#263238;stroke-linecap:round;stroke-linejoin:round"></line><line x1="375.42" y1="375.01" x2="445.4" y2="375.01" style="fill:none;stroke:#263238;stroke-linecap:round;stroke-linejoin:round"></line><line x1="375.42" y1="380.82" x2="445.4" y2="380.82" style="fill:none;stroke:#263238;stroke-linecap:round;stroke-linejoin:round"></line><line x1="375.42" y1="386.62" x2="445.4" y2="386.62" style="fill:none;stroke:#263238;stroke-linecap:round;stroke-linejoin:round"></line><line x1="375.42" y1="392.43" x2="445.4" y2="392.43" style="fill:none;stroke:#263238;stroke-linecap:round;stroke-linejoin:round"></line><rect x="371.35" y="303.44" width="74.37" height="8.7" style="fill:#fff;stroke:#263238;stroke-miterlimit:10"></rect><path d="M366.83,401.85V307.57a6.39,6.39,0,0,1,6.39-6.39h0a6.39,6.39,0,0,1,6.38,6.39v90.52" style="fill:#263238;stroke:#fff;stroke-miterlimit:10"></path></g></g></svg>