<?xml version="1.0" encoding="utf-8"?>
<svg id="master-artboard" viewBox="0 0 1400 980" version="1.1" xmlns="http://www.w3.org/2000/svg" x="0px" y="0px" enable-background="new 0 0 1400 980" width="1400px" height="980px" xmlns:xlink="http://www.w3.org/1999/xlink"><rect id="ee-background" x="0" y="0" width="1400" height="980" style="fill: white; fill-opacity: 0; pointer-events: none;"/>
<defs>
		<path d="M 0 0 H 1400 V 980 H 0 V 0 Z" id="SVGID_1_"/>
	</defs><clipPath id="SVGID_2_">
		<use overflow="visible" xlink:href="#SVGID_1_"/>
	</clipPath><path d="M 0 -55 H 1429.900024 V 340 H 0 V -55 Z" clip-path="url(#SVGID_2_)" fill="#E89D61" transform="matrix(1, 0, 0, 1, 0, 0)"/><path d="M -101 110.099998 H 1433.599976 V 152.099998 H -101 V 110.099998 Z" clip-path="url(#SVGID_2_)" fill="#CF8C56" transform="matrix(1, 0, 0, 1, 0, 0)"/><path d="M -101 68.099998 H 1433.599976 V 110.099998 H -101 V 68.099998 Z" clip-path="url(#SVGID_2_)" fill="#99683E" transform="matrix(1, 0, 0, 1, 0, 0)"/><path d="M -101 26.1 H 1433.599976 V 68.1 H -101 V 26.1 Z" clip-path="url(#SVGID_2_)" fill="#CF8C56" transform="matrix(1, 0, 0, 1, 0, 0)"/><path d="M -101 -15.9 H 1433.599976 V 26.1 H -101 V -15.9 Z" clip-path="url(#SVGID_2_)" fill="#99683E" transform="matrix(1, 0, 0, 1, 0, 0)"/><path d="M -20.299999 151 H 1480.799976 V 411.100006 H -20.299999 V 151 Z" clip-path="url(#SVGID_2_)" fill="#696251" transform="matrix(1, 0, 0, 1, 0, 0)"/><path d="M 0 310 H 1400 V 473.899994 H 0 V 310 Z" clip-path="url(#SVGID_2_)" fill="#F47959" transform="matrix(1, 0, 0, 1, 0, 0)" style="fill: rgb(244, 103, 68);"/><path d="M 797.299988 310 H 852.399986 V 473.899994 H 797.299988 V 310 Z" clip-path="url(#SVGID_2_)" fill="#7B7968" transform="matrix(1, 0, 0, 1, 0, 0)"/><g transform="matrix(1, 0, 0, 1, 0, 0)">
			<path fill="#E0DDD3" d="M-174.1,411.1v-56.9h18.4c7,0,11.5,0.3,13.7,0.9c3.3,0.9,6,2.7,8.2,5.6c2.2,2.9,3.3,6.6,3.3,11.1&#10;&#9;&#9;&#9;&#9;c0,3.5-0.6,6.4-1.9,8.8c-1.3,2.4-2.9,4.2-4.8,5.6c-2,1.4-3.9,2.3-6,2.7c-2.7,0.5-6.7,0.8-11.9,0.8h-7.5v21.5H-174.1z&#10;&#9;&#9;&#9;&#9; M-162.6,363.8v16.1h6.3c4.5,0,7.6-0.3,9.1-0.9c1.5-0.6,2.7-1.5,3.6-2.8c0.9-1.3,1.3-2.7,1.3-4.4c0-2.1-0.6-3.8-1.8-5.1&#10;&#9;&#9;&#9;&#9;c-1.2-1.3-2.8-2.2-4.6-2.5c-1.4-0.3-4.1-0.4-8.3-0.4H-162.6z"/>
			<path fill="#E0DDD3" d="M-75.7,411.1h-12.5l-5-12.9h-22.7l-4.7,12.9h-12.2l22.2-56.9h12.1L-75.7,411.1z M-96.8,388.6l-7.8-21.1&#10;&#9;&#9;&#9;&#9;l-7.7,21.1H-96.8z"/>
			<path fill="#E0DDD3" d="M-69.6,354.2h21c4.7,0,8.3,0.4,10.8,1.1c3.3,1,6.2,2.7,8.6,5.2c2.4,2.5,4.2,5.6,5.4,9.2&#10;&#9;&#9;&#9;&#9;c1.2,3.6,1.9,8.1,1.9,13.4c0,4.7-0.6,8.7-1.7,12.1c-1.4,4.1-3.5,7.5-6.1,10.1c-2,1.9-4.7,3.5-8.1,4.5c-2.5,0.8-5.9,1.2-10.2,1.2&#10;&#9;&#9;&#9;&#9;h-21.6V354.2z M-58.1,363.8v37.7h8.6c3.2,0,5.5-0.2,6.9-0.5c1.9-0.5,3.4-1.3,4.6-2.4c1.2-1.1,2.2-2.9,3-5.5&#10;&#9;&#9;&#9;&#9;c0.8-2.5,1.2-6,1.2-10.4s-0.4-7.8-1.2-10.1c-0.8-2.4-1.9-4.2-3.3-5.5c-1.4-1.3-3.2-2.2-5.3-2.7c-1.6-0.4-4.7-0.5-9.4-0.5H-58.1z"/>
			<path fill="#E0DDD3" d="M-12.2,411.1v-56.9H30v9.6H-0.7v12.6h28.6v9.6H-0.7v15.5h31.8v9.6H-12.2z"/>
			<path fill="#E0DDD3" d="M41.1,411.1v-56.4h11.5v46.8h28.6v9.6H41.1z"/>
			<path fill="#E0DDD3" d="M122.8,411.1v-47.3H106v-9.6h45.2v9.6h-16.8v47.3H122.8z"/>
			<path fill="#E0DDD3" d="M154.8,383c0-5.8,0.9-10.7,2.6-14.6c1.3-2.9,3.1-5.5,5.3-7.8c2.2-2.3,4.7-4,7.4-5.1&#10;&#9;&#9;&#9;&#9;c3.5-1.5,7.6-2.3,12.3-2.3c8.4,0,15.1,2.6,20.1,7.8c5,5.2,7.5,12.4,7.5,21.7c0,9.2-2.5,16.4-7.5,21.6c-5,5.2-11.7,7.8-20,7.8&#10;&#9;&#9;&#9;&#9;c-8.5,0-15.2-2.6-20.2-7.7C157.3,399.1,154.8,392,154.8,383z M166.6,382.6c0,6.4,1.5,11.3,4.5,14.7c3,3.3,6.8,5,11.3,5&#10;&#9;&#9;&#9;&#9;s8.3-1.6,11.3-4.9c2.9-3.3,4.4-8.2,4.4-14.8c0-6.5-1.4-11.4-4.3-14.6c-2.9-3.2-6.7-4.8-11.4-4.8c-4.7,0-8.6,1.6-11.4,4.9&#10;&#9;&#9;&#9;&#9;C168.1,371.1,166.6,376,166.6,382.6z"/>
			<path fill="#E0DDD3" d="M218.9,354.2h11.5V385c0,4.9,0.1,8.1,0.4,9.5c0.5,2.3,1.7,4.2,3.5,5.6c1.8,1.4,4.4,2.1,7.6,2.1&#10;&#9;&#9;&#9;&#9;c3.3,0,5.7-0.7,7.4-2c1.7-1.3,2.7-3,3-4.9c0.3-1.9,0.5-5.2,0.5-9.7v-31.5h11.5v29.9c0,6.8-0.3,11.7-0.9,14.5&#10;&#9;&#9;&#9;&#9;c-0.6,2.8-1.8,5.2-3.4,7.1s-3.9,3.5-6.7,4.6c-2.8,1.2-6.4,1.7-10.9,1.7c-5.4,0-9.6-0.6-12.4-1.9c-2.8-1.3-5-2.9-6.7-4.9&#10;&#9;&#9;&#9;&#9;c-1.6-2-2.7-4.1-3.2-6.3c-0.8-3.3-1.1-8.1-1.1-14.4V354.2z"/>
			<path fill="#E0DDD3" d="M276.4,411.1v-56.9h24.2c6.1,0,10.5,0.5,13.3,1.5s5,2.8,6.6,5.5c1.7,2.6,2.5,5.6,2.5,9&#10;&#9;&#9;&#9;&#9;c0,4.3-1.3,7.8-3.8,10.6c-2.5,2.8-6.3,4.5-11.3,5.3c2.5,1.4,4.5,3,6.2,4.8c1.6,1.7,3.8,4.8,6.5,9.2l6.9,11.1h-13.7l-8.3-12.4&#10;&#9;&#9;&#9;&#9;c-2.9-4.4-5-7.2-6.1-8.4c-1.1-1.2-2.2-1.9-3.5-2.4c-1.2-0.4-3.1-0.6-5.8-0.6h-2.3v23.8H276.4z M287.9,378.2h8.5&#10;&#9;&#9;&#9;&#9;c5.5,0,9-0.2,10.3-0.7c1.4-0.5,2.4-1.3,3.2-2.4c0.8-1.1,1.2-2.6,1.2-4.3c0-1.9-0.5-3.5-1.5-4.6c-1-1.2-2.5-1.9-4.3-2.2&#10;&#9;&#9;&#9;&#9;c-0.9-0.1-3.7-0.2-8.4-0.2h-9V378.2z"/>
			<path fill="#E0DDD3" d="M333.9,411.1v-56.9h11.2l23.3,38v-38H379v56.9h-11.5L344.6,374v37.1H333.9z"/>
			<path fill="#E0DDD3" d="M442.5,411.1H430l-5-12.9h-22.7l-4.7,12.9h-12.2l22.2-56.9h12.1L442.5,411.1z M421.3,388.6l-7.8-21.1&#10;&#9;&#9;&#9;&#9;l-7.7,21.1H421.3z"/>
			<path fill="#E0DDD3" d="M448.4,411.1v-56.9h17.2l10.3,38.8l10.2-38.8h17.2v56.9h-10.7v-44.8l-11.3,44.8h-11.1l-11.3-44.8v44.8&#10;&#9;&#9;&#9;&#9;H448.4z"/>
			<path fill="#E0DDD3" d="M514.8,411.1v-56.9H557v9.6h-30.7v12.6h28.6v9.6h-28.6v15.5H558v9.6H514.8z"/>
			<path fill="#E0DDD3" d="M567.9,411.1v-56.9h11.2l23.3,38v-38H613v56.9h-11.5L578.6,374v37.1H567.9z"/>
			<path fill="#E0DDD3" d="M638,411.1v-47.3h-16.9v-9.6h45.2v9.6h-16.8v47.3H638z"/>
		</g><g transform="matrix(1, 0, 0, 1, 0, 0)">
			<path fill="#E0DDD3" d="M876.8,411.1v-56.9h18.4c7,0,11.5,0.3,13.7,0.9c3.3,0.9,6,2.7,8.2,5.6c2.2,2.9,3.3,6.6,3.3,11.1&#10;&#9;&#9;&#9;&#9;c0,3.5-0.6,6.4-1.9,8.8s-2.9,4.2-4.8,5.6c-2,1.4-3.9,2.3-6,2.7c-2.7,0.5-6.7,0.8-11.9,0.8h-7.5v21.5H876.8z M888.3,363.8v16.1&#10;&#9;&#9;&#9;&#9;h6.3c4.5,0,7.6-0.3,9.1-0.9s2.7-1.5,3.6-2.8c0.9-1.3,1.3-2.7,1.3-4.4c0-2.1-0.6-3.8-1.8-5.1c-1.2-1.3-2.8-2.2-4.6-2.5&#10;&#9;&#9;&#9;&#9;c-1.4-0.3-4.1-0.4-8.3-0.4H888.3z"/>
			<path fill="#E0DDD3" d="M975.2,411.1h-12.5l-5-12.9H935l-4.7,12.9h-12.2l22.2-56.9h12.1L975.2,411.1z M954,388.6l-7.8-21.1&#10;&#9;&#9;&#9;&#9;l-7.7,21.1H954z"/>
			<path fill="#E0DDD3" d="M981.2,354.2h21c4.7,0,8.3,0.4,10.8,1.1c3.3,1,6.2,2.7,8.6,5.2c2.4,2.5,4.2,5.6,5.4,9.2&#10;&#9;&#9;&#9;&#9;c1.2,3.6,1.9,8.1,1.9,13.4c0,4.7-0.6,8.7-1.7,12.1c-1.4,4.1-3.5,7.5-6.1,10.1c-2,1.9-4.7,3.5-8.1,4.5c-2.5,0.8-5.9,1.2-10.2,1.2&#10;&#9;&#9;&#9;&#9;h-21.6V354.2z M992.7,363.8v37.7h8.6c3.2,0,5.5-0.2,6.9-0.5c1.9-0.5,3.4-1.3,4.6-2.4c1.2-1.1,2.2-2.9,3-5.5&#10;&#9;&#9;&#9;&#9;c0.8-2.5,1.2-6,1.2-10.4s-0.4-7.8-1.2-10.1c-0.8-2.4-1.9-4.2-3.3-5.5c-1.4-1.3-3.2-2.2-5.3-2.7c-1.6-0.4-4.7-0.5-9.4-0.5H992.7z"/>
			<path fill="#E0DDD3" d="M1038.7,411.1v-56.9h42.2v9.6h-30.7v12.6h28.6v9.6h-28.6v15.5h31.8v9.6H1038.7z"/>
			<path fill="#E0DDD3" d="M1092,411.1v-56.4h11.5v46.8h28.6v9.6H1092z"/>
			<path fill="#E0DDD3" d="M1173.7,411.1v-47.3h-16.9v-9.6h45.2v9.6h-16.8v47.3H1173.7z"/>
			<path fill="#E0DDD3" d="M1205.7,383c0-5.8,0.9-10.7,2.6-14.6c1.3-2.9,3.1-5.5,5.3-7.8c2.2-2.3,4.7-4,7.4-5.1&#10;&#9;&#9;&#9;&#9;c3.5-1.5,7.6-2.3,12.3-2.3c8.4,0,15.1,2.6,20.1,7.8c5,5.2,7.5,12.4,7.5,21.7c0,9.2-2.5,16.4-7.5,21.6c-5,5.2-11.7,7.8-20,7.8&#10;&#9;&#9;&#9;&#9;c-8.5,0-15.2-2.6-20.2-7.7C1208.2,399.1,1205.7,392,1205.7,383z M1217.5,382.6c0,6.4,1.5,11.3,4.5,14.7c3,3.3,6.8,5,11.3,5&#10;&#9;&#9;&#9;&#9;c4.6,0,8.3-1.6,11.3-4.9c2.9-3.3,4.4-8.2,4.4-14.8c0-6.5-1.4-11.4-4.3-14.6c-2.9-3.2-6.7-4.8-11.4-4.8s-8.6,1.6-11.4,4.9&#10;&#9;&#9;&#9;&#9;C1219,371.1,1217.5,376,1217.5,382.6z"/>
			<path fill="#E0DDD3" d="M1269.8,354.2h11.5V385c0,4.9,0.1,8.1,0.4,9.5c0.5,2.3,1.7,4.2,3.5,5.6c1.8,1.4,4.4,2.1,7.6,2.1&#10;&#9;&#9;&#9;&#9;c3.3,0,5.7-0.7,7.4-2c1.7-1.3,2.7-3,3-4.9c0.3-1.9,0.5-5.2,0.5-9.7v-31.5h11.5v29.9c0,6.8-0.3,11.7-0.9,14.5&#10;&#9;&#9;&#9;&#9;c-0.6,2.8-1.8,5.2-3.4,7.1s-3.9,3.5-6.7,4.6c-2.8,1.2-6.4,1.7-10.9,1.7c-5.4,0-9.6-0.6-12.4-1.9c-2.8-1.3-5-2.9-6.7-4.9&#10;&#9;&#9;&#9;&#9;c-1.6-2-2.7-4.1-3.2-6.3c-0.8-3.3-1.1-8.1-1.1-14.4V354.2z"/>
			<path fill="#E0DDD3" d="M1327.3,411.1v-56.9h24.2c6.1,0,10.5,0.5,13.3,1.5c2.8,1,5,2.8,6.6,5.5c1.7,2.6,2.5,5.6,2.5,9&#10;&#9;&#9;&#9;&#9;c0,4.3-1.3,7.8-3.8,10.6c-2.5,2.8-6.3,4.5-11.3,5.3c2.5,1.4,4.5,3,6.2,4.8c1.6,1.7,3.8,4.8,6.5,9.2l6.9,11.1h-13.7l-8.3-12.4&#10;&#9;&#9;&#9;&#9;c-2.9-4.4-5-7.2-6.1-8.4c-1.1-1.2-2.2-1.9-3.5-2.4c-1.2-0.4-3.1-0.6-5.8-0.6h-2.3v23.8H1327.3z M1338.8,378.2h8.5&#10;&#9;&#9;&#9;&#9;c5.5,0,9-0.2,10.3-0.7c1.4-0.5,2.4-1.3,3.2-2.4c0.8-1.1,1.2-2.6,1.2-4.3c0-1.9-0.5-3.5-1.5-4.6c-1-1.2-2.5-1.9-4.3-2.2&#10;&#9;&#9;&#9;&#9;c-0.9-0.1-3.7-0.2-8.4-0.2h-9V378.2z"/>
			<path fill="#E0DDD3" d="M1384.7,411.1v-56.9h11.2l23.3,38v-38h10.7v56.9h-11.5l-22.9-37.1v37.1H1384.7z"/>
			<path fill="#E0DDD3" d="M1493.3,411.1h-12.5l-5-12.9h-22.7l-4.7,12.9h-12.2l22.2-56.9h12.1L1493.3,411.1z M1472.2,388.6&#10;&#9;&#9;&#9;&#9;l-7.8-21.1l-7.7,21.1H1472.2z"/>
			<path fill="#E0DDD3" d="M1499.3,411.1v-56.9h17.2l10.3,38.8l10.2-38.8h17.2v56.9h-10.7v-44.8l-11.3,44.8h-11.1l-11.3-44.8v44.8&#10;&#9;&#9;&#9;&#9;H1499.3z"/>
			<path fill="#E0DDD3" d="M1565.6,411.1v-56.9h42.2v9.6h-30.7v12.6h28.6v9.6h-28.6v15.5h31.8v9.6H1565.6z"/>
			<path fill="#E0DDD3" d="M1618.8,411.1v-56.9h11.2l23.3,38v-38h10.7v56.9h-11.5l-22.9-37.1v37.1H1618.8z"/>
			<path fill="#E0DDD3" d="M1688.9,411.1v-47.3H1672v-9.6h45.2v9.6h-16.8v47.3H1688.9z"/>
		</g><path d="M -20.299999 473.899994 H 1400.00005 V 625.399994 H -20.299999 V 473.899994 Z" clip-path="url(#SVGID_2_)" fill="#9A8F77" transform="matrix(1, 0, 0, 1, 0, 0)"/><path d="M 0 577.200012 H 1422.900024 V 609.800011 H 0 V 577.200012 Z" clip-path="url(#SVGID_2_)" fill="#FDE88C" transform="matrix(1, 0, 0, 1, 0, 0)"/><path d="M 726.700012 -47.200001 H 741.700012 V 609.899975 H 726.700012 V -47.200001 Z" clip-path="url(#SVGID_2_)" fill="#2C3643" transform="matrix(1, 0, 0, 1, 0, 0)"/><path d="M 0 609.799988 H 1400 V 980 H 0 V 609.799988 Z" clip-path="url(#SVGID_2_)" fill="#5C6B7E" transform="matrix(1, 0, 0, 1, 0, 0)"/><path d="M 285.700012 441.399994 A 23 23 0 0 1 262.700012 464.399994 A 23 23 0 0 1 239.700012 441.399994 A 23 23 0 0 1 262.700012 418.399994 A 23 23 0 0 1 285.700012 441.399994 Z" fill="#39B54A" transform="matrix(1, 0, 0, 1, 0, 0)"/><path fill="#49A348" d="M270.8,449.6c0,4.3,1.3,8.3,3.3,11.8c6.9-4,11.6-11.4,11.6-19.9c0-4.3-1.3-8.3-3.3-11.8&#10;&#9;&#9;&#9;C275.5,433.6,270.8,441,270.8,449.6z" transform="matrix(1, 0, 0, 1, 0, 0)"/><path fill="#49A348" d="M240.6,441.9c0,4.3,1.3,8.3,3.3,11.8c6.9-4,11.6-11.4,11.6-19.9c0-4.3-1.3-8.3-3.3-11.8&#10;&#9;&#9;&#9;C245.3,426,240.6,433.3,240.6,441.9z" transform="matrix(1, 0, 0, 1, 0, 0)"/><path d="M 99.800003 -47.200001 H 114.800003 V 609.899975 H 99.800003 V -47.200001 Z" clip-path="url(#SVGID_2_)" fill="#2C3643" transform="matrix(1, 0, 0, 1, 0, 0)"/><path d="M 1353.599976 -47.200001 H 1368.599976 V 609.899975 H 1353.599976 V -47.200001 Z" clip-path="url(#SVGID_2_)" fill="#2C3643" transform="matrix(1, 0, 0, 1, 0, 0)"/><path d="M 0 633.900024 H 1142 V 648.100024 H 0 V 633.900024 Z" clip-path="url(#SVGID_2_)" fill="#E0DDD3" transform="matrix(1, 0, 0, 1, 0, 0)"/><path d="M 1141.5 633.9000244140625 L 1093.699951171875 633.9000244140625 L 1726.5 980.4000244140625 L 1774.300048828125 980.4000244140625 Z" clip-path="url(#SVGID_2_)" fill="#E0DDD3" transform="matrix(1, 0, 0, 1, 0, 0)"/><path d="M 1053.900024 841.900024 A 301 81.400002 0 0 1 752.900024 923.300026 A 301 81.400002 0 0 1 451.900024 841.900024 A 301 81.400002 0 0 1 752.900024 760.500023 A 301 81.400002 0 0 1 1053.900024 841.900024 Z" transform="matrix(0.9957000017166138, -0.09254065901041031, 0.09254065901041031, 0.9957000017166138, -74.67890167236325, 73.28880310058594)" opacity="0.21" clip-path="url(#SVGID_2_)" fill="#5C6B7E"/><defs>
			<path d="M 734.200012 -19.5 H 1371.200012 V 607.299988 H 734.200012 V -19.5 Z" id="SVGID_3_"/>
		</defs><clipPath id="SVGID_4_">
			<use overflow="visible" xlink:href="#SVGID_3_"/>
		</clipPath><g transform="matrix(1, 0, 0, 1, 0, 0)">
				<path d="M 476.200012 -197.399994 H 1749.200012 V -193.499994 H 476.200012 V -197.399994 Z" fill="#2C3643"/>
				<path d="M 476.200012 -160.800003 H 1749.200012 V -156.900003 H 476.200012 V -160.800003 Z" fill="#2C3643"/>
				<path d="M 476.200012 -124.300003 H 1749.200012 V -120.400003 H 476.200012 V -124.300003 Z" fill="#2C3643"/>
				<path d="M 476.200012 -87.699997 H 1749.200012 V -83.799997 H 476.200012 V -87.699997 Z" fill="#2C3643"/>
				<path d="M 476.200012 -51.099998 H 1749.200012 V -47.199998 H 476.200012 V -51.099998 Z" fill="#2C3643"/>
				<path d="M 476.200012 -14.5 H 1749.200012 V -10.6 H 476.200012 V -14.5 Z" fill="#2C3643"/>
				<path d="M 476.200012 22.1 H 1749.200012 V 26 H 476.200012 V 22.1 Z" fill="#2C3643"/>
				<path d="M 476.200012 58.700001 H 1749.200012 V 62.600001 H 476.200012 V 58.700001 Z" fill="#2C3643"/>
				<path d="M 476.200012 95.300003 H 1749.200012 V 99.200003 H 476.200012 V 95.300003 Z" fill="#2C3643"/>
				<path d="M 476.200012 131.899994 H 1749.200012 V 135.799994 H 476.200012 V 131.899994 Z" fill="#2C3643"/>
				<path d="M 476.200012 168.5 H 1749.200012 V 172.4 H 476.200012 V 168.5 Z" fill="#2C3643"/>
				<path d="M 476.200012 205.100006 H 1749.200012 V 209.000006 H 476.200012 V 205.100006 Z" fill="#2C3643"/>
				<path d="M 476.200012 241.699997 H 1749.200012 V 245.599997 H 476.200012 V 241.699997 Z" fill="#2C3643"/>
				<path d="M 476.200012 278.299988 H 1749.200012 V 282.199988 H 476.200012 V 278.299988 Z" fill="#2C3643"/>
				<path d="M 476.200012 314.899994 H 1749.200012 V 318.799994 H 476.200012 V 314.899994 Z" fill="#2C3643"/>
				<path d="M 476.200012 351.5 H 1749.200012 V 355.4 H 476.200012 V 351.5 Z" fill="#2C3643"/>
				<path d="M 476.200012 388.100006 H 1749.200012 V 392.000006 H 476.200012 V 388.100006 Z" fill="#2C3643"/>
				<path d="M 476.200012 424.700012 H 1749.200012 V 428.600012 H 476.200012 V 424.700012 Z" fill="#2C3643"/>
				<path d="M 476.200012 461.299988 H 1749.200012 V 465.199988 H 476.200012 V 461.299988 Z" fill="#2C3643"/>
				<path d="M 476.200012 497.899994 H 1749.200012 V 501.799994 H 476.200012 V 497.899994 Z" fill="#2C3643"/>
				<path d="M 476.200012 534.5 H 1749.200012 V 538.4 H 476.200012 V 534.5 Z" fill="#2C3643"/>
				<path d="M 476.200012 571.099976 H 1749.200012 V 574.999976 H 476.200012 V 571.099976 Z" fill="#2C3643"/>
				<path d="M 476.200012 607.700012 H 1749.200012 V 611.600012 H 476.200012 V 607.700012 Z" fill="#2C3643"/>
				<path d="M 476.200012 644.299988 H 1749.200012 V 648.199988 H 476.200012 V 644.299988 Z" fill="#2C3643"/>
				<path d="M 476.200012 680.900024 H 1749.200012 V 684.800025 H 476.200012 V 680.900024 Z" fill="#2C3643"/>
				<path d="M 476.200012 717.5 H 1749.200012 V 721.4 H 476.200012 V 717.5 Z" fill="#2C3643"/>
				<path d="M 476.200012 754.099976 H 1749.200012 V 757.999976 H 476.200012 V 754.099976 Z" fill="#2C3643"/>
				<path d="M 476.200012 790.700012 H 1749.200012 V 794.600012 H 476.200012 V 790.700012 Z" fill="#2C3643"/>
				<path d="M 476.200012 827.299988 H 1749.200012 V 831.199988 H 476.200012 V 827.299988 Z" fill="#2C3643"/>
				<path d="M 476.200012 863.900024 H 1749.200012 V 867.800025 H 476.200012 V 863.900024 Z" fill="#2C3643"/>
			</g><path d="M 580.099976 -319.700012 H 583.999976 V 953.299988 H 580.099976 V -319.700012 Z" fill="#2C3643" transform="matrix(1, 0, 0, 1, 0, 0)"/><path d="M 616.700012 -319.700012 H 620.600012 V 953.299988 H 616.700012 V -319.700012 Z" fill="#2C3643" transform="matrix(1, 0, 0, 1, 0, 0)"/><path d="M 653.299988 -319.700012 H 657.199988 V 953.299988 H 653.299988 V -319.700012 Z" fill="#2C3643" transform="matrix(1, 0, 0, 1, 0, 0)"/><path d="M 689.900024 -319.700012 H 693.800025 V 953.299988 H 689.900024 V -319.700012 Z" fill="#2C3643" transform="matrix(1, 0, 0, 1, 0, 0)"/><path d="M 726.5 -319.700012 H 730.4 V 953.299988 H 726.5 V -319.700012 Z" fill="#2C3643" transform="matrix(1, 0, 0, 1, 0, 0)"/><path d="M 763.099976 -319.700012 H 766.999976 V 953.299988 H 763.099976 V -319.700012 Z" fill="#2C3643" transform="matrix(1, 0, 0, 1, 0, 0)"/><path d="M 799.700012 -319.700012 H 803.600012 V 953.299988 H 799.700012 V -319.700012 Z" fill="#2C3643" transform="matrix(1, 0, 0, 1, 0, 0)"/><path d="M 836.299988 -319.700012 H 840.199988 V 953.299988 H 836.299988 V -319.700012 Z" fill="#2C3643" transform="matrix(1, 0, 0, 1, 0, 0)"/><path d="M 872.900024 -319.700012 H 876.800025 V 953.299988 H 872.900024 V -319.700012 Z" fill="#2C3643" transform="matrix(1, 0, 0, 1, 0, 0)"/><path d="M 909.5 -319.700012 H 913.4 V 953.299988 H 909.5 V -319.700012 Z" fill="#2C3643" transform="matrix(1, 0, 0, 1, 0, 0)"/><path d="M 946.099976 -319.700012 H 949.999976 V 953.299988 H 946.099976 V -319.700012 Z" fill="#2C3643" transform="matrix(1, 0, 0, 1, 0, 0)"/><path d="M 982.700012 -319.700012 H 986.600012 V 953.299988 H 982.700012 V -319.700012 Z" fill="#2C3643" transform="matrix(1, 0, 0, 1, 0, 0)"/><path d="M 1019.200012 -319.700012 H 1023.100012 V 953.299988 H 1019.200012 V -319.700012 Z" fill="#2C3643" transform="matrix(1, 0, 0, 1, 0, 0)"/><path d="M 1055.800049 -319.700012 H 1059.700049 V 953.299988 H 1055.800049 V -319.700012 Z" fill="#2C3643" transform="matrix(1, 0, 0, 1, 0, 0)"/><path d="M 1092.400024 -319.700012 H 1096.300025 V 953.299988 H 1092.400024 V -319.700012 Z" fill="#2C3643" transform="matrix(1, 0, 0, 1, 0, 0)"/><path d="M 1129 -319.700012 H 1132.9 V 953.299988 H 1129 V -319.700012 Z" fill="#2C3643" transform="matrix(1, 0, 0, 1, 0, 0)"/><path d="M 1165.599976 -319.700012 H 1169.499976 V 953.299988 H 1165.599976 V -319.700012 Z" fill="#2C3643" transform="matrix(1, 0, 0, 1, 0, 0)"/><path d="M 1202.199951 -319.700012 H 1206.099951 V 953.299988 H 1202.199951 V -319.700012 Z" fill="#2C3643" transform="matrix(1, 0, 0, 1, 0, 0)"/><path d="M 1238.800049 -319.700012 H 1242.700049 V 953.299988 H 1238.800049 V -319.700012 Z" fill="#2C3643" transform="matrix(1, 0, 0, 1, 0, 0)"/><path d="M 1275.400024 -319.700012 H 1279.300025 V 953.299988 H 1275.400024 V -319.700012 Z" fill="#2C3643" transform="matrix(1, 0, 0, 1, 0, 0)"/><path d="M 1312 -319.700012 H 1315.9 V 953.299988 H 1312 V -319.700012 Z" fill="#2C3643" transform="matrix(1, 0, 0, 1, 0, 0)"/><path d="M 1348.599976 -319.700012 H 1352.499976 V 953.299988 H 1348.599976 V -319.700012 Z" fill="#2C3643" transform="matrix(1, 0, 0, 1, 0, 0)"/><path d="M 1385.199951 -319.700012 H 1389.099951 V 953.299988 H 1385.199951 V -319.700012 Z" fill="#2C3643" transform="matrix(1, 0, 0, 1, 0, 0)"/><defs>
			<path d="M 1353.599976 -19.5 H 1990.599976 V 607.299988 H 1353.599976 V -19.5 Z" id="SVGID_5_"/>
		</defs><clipPath id="SVGID_6_">
			<use overflow="visible" xlink:href="#SVGID_5_"/>
		</clipPath><g transform="matrix(1, 0, 0, 1, 0, 0)">
				<path d="M 1095.599976 -197.399994 H 2368.599976 V -193.499994 H 1095.599976 V -197.399994 Z" fill="#2C3643"/>
				<path d="M 1095.599976 -160.800003 H 2368.599976 V -156.900003 H 1095.599976 V -160.800003 Z" fill="#2C3643"/>
				<path d="M 1095.599976 -124.300003 H 2368.599976 V -120.400003 H 1095.599976 V -124.300003 Z" fill="#2C3643"/>
				<path d="M 1095.599976 -87.699997 H 2368.599976 V -83.799997 H 1095.599976 V -87.699997 Z" fill="#2C3643"/>
				<path d="M 1095.599976 -51.099998 H 2368.599976 V -47.199998 H 1095.599976 V -51.099998 Z" fill="#2C3643"/>
				<path d="M 1095.599976 -14.5 H 2368.599976 V -10.6 H 1095.599976 V -14.5 Z" fill="#2C3643"/>
				<path d="M 1095.599976 22.1 H 2368.599976 V 26 H 1095.599976 V 22.1 Z" fill="#2C3643"/>
				<path d="M 1095.599976 58.700001 H 2368.599976 V 62.600001 H 1095.599976 V 58.700001 Z" fill="#2C3643"/>
				<path d="M 1095.599976 95.300003 H 2368.599976 V 99.200003 H 1095.599976 V 95.300003 Z" fill="#2C3643"/>
				<path d="M 1095.599976 131.899994 H 2368.599976 V 135.799994 H 1095.599976 V 131.899994 Z" fill="#2C3643"/>
				<path d="M 1095.599976 168.5 H 2368.599976 V 172.4 H 1095.599976 V 168.5 Z" fill="#2C3643"/>
				<path d="M 1095.599976 205.100006 H 2368.599976 V 209.000006 H 1095.599976 V 205.100006 Z" fill="#2C3643"/>
				<path d="M 1095.599976 241.699997 H 2368.599976 V 245.599997 H 1095.599976 V 241.699997 Z" fill="#2C3643"/>
				<path d="M 1095.599976 278.299988 H 2368.599976 V 282.199988 H 1095.599976 V 278.299988 Z" fill="#2C3643"/>
				<path d="M 1095.599976 314.899994 H 2368.599976 V 318.799994 H 1095.599976 V 314.899994 Z" fill="#2C3643"/>
				<path d="M 1095.599976 351.5 H 2368.599976 V 355.4 H 1095.599976 V 351.5 Z" fill="#2C3643"/>
				<path d="M 1095.599976 388.100006 H 2368.599976 V 392.000006 H 1095.599976 V 388.100006 Z" fill="#2C3643"/>
				<path d="M 1095.599976 424.700012 H 2368.599976 V 428.600012 H 1095.599976 V 424.700012 Z" fill="#2C3643"/>
				<path d="M 1095.599976 461.299988 H 2368.599976 V 465.199988 H 1095.599976 V 461.299988 Z" fill="#2C3643"/>
				<path d="M 1095.599976 497.899994 H 2368.599976 V 501.799994 H 1095.599976 V 497.899994 Z" fill="#2C3643"/>
				<path d="M 1095.599976 534.5 H 2368.599976 V 538.4 H 1095.599976 V 534.5 Z" fill="#2C3643"/>
				<path d="M 1095.599976 571.099976 H 2368.599976 V 574.999976 H 1095.599976 V 571.099976 Z" fill="#2C3643"/>
				<path d="M 1095.599976 607.700012 H 2368.599976 V 611.600012 H 1095.599976 V 607.700012 Z" fill="#2C3643"/>
				<path d="M 1095.599976 644.299988 H 2368.599976 V 648.199988 H 1095.599976 V 644.299988 Z" fill="#2C3643"/>
				<path d="M 1095.599976 680.900024 H 2368.599976 V 684.800025 H 1095.599976 V 680.900024 Z" fill="#2C3643"/>
				<path d="M 1095.599976 717.5 H 2368.599976 V 721.4 H 1095.599976 V 717.5 Z" fill="#2C3643"/>
				<path d="M 1095.599976 754.099976 H 2368.599976 V 757.999976 H 1095.599976 V 754.099976 Z" fill="#2C3643"/>
				<path d="M 1095.599976 790.700012 H 2368.599976 V 794.600012 H 1095.599976 V 790.700012 Z" fill="#2C3643"/>
				<path d="M 1095.599976 827.299988 H 2368.599976 V 831.199988 H 1095.599976 V 827.299988 Z" fill="#2C3643"/>
				<path d="M 1095.599976 863.900024 H 2368.599976 V 867.800025 H 1095.599976 V 863.900024 Z" fill="#2C3643"/>
			</g><path d="M 1199.5 -319.700012 H 1203.4 V 953.299988 H 1199.5 V -319.700012 Z" fill="#2C3643" transform="matrix(1, 0, 0, 1, 0, 0)"/><path d="M 1236.099976 -319.700012 H 1239.999976 V 953.299988 H 1236.099976 V -319.700012 Z" fill="#2C3643" transform="matrix(1, 0, 0, 1, 0, 0)"/><path d="M 1272.699951 -319.700012 H 1276.599951 V 953.299988 H 1272.699951 V -319.700012 Z" fill="#2C3643" transform="matrix(1, 0, 0, 1, 0, 0)"/><path d="M 1309.300049 -319.700012 H 1313.200049 V 953.299988 H 1309.300049 V -319.700012 Z" fill="#2C3643" transform="matrix(1, 0, 0, 1, 0, 0)"/><path d="M 1345.900024 -319.700012 H 1349.800025 V 953.299988 H 1345.900024 V -319.700012 Z" fill="#2C3643" transform="matrix(1, 0, 0, 1, 0, 0)"/><path d="M 1382.5 -319.700012 H 1386.4 V 953.299988 H 1382.5 V -319.700012 Z" fill="#2C3643" transform="matrix(1, 0, 0, 1, 0, 0)"/><defs>
			<path d="M 99 -19.5 H 736 V 607.299988 H 99 V -19.5 Z" id="SVGID_7_"/>
		</defs><clipPath id="SVGID_8_">
			<use overflow="visible" xlink:href="#SVGID_7_"/>
		</clipPath><g transform="matrix(1, 0, 0, 1, 0, 0)">
				<path d="M -159 -197.399994 H 1114 V -193.499994 H -159 V -197.399994 Z" fill="#2C3643"/>
				<path d="M -159 -160.800003 H 1114 V -156.900003 H -159 V -160.800003 Z" fill="#2C3643"/>
				<path d="M -159 -124.300003 H 1114 V -120.400003 H -159 V -124.300003 Z" fill="#2C3643"/>
				<path d="M -159 -87.699997 H 1114 V -83.799997 H -159 V -87.699997 Z" fill="#2C3643"/>
				<path d="M -159 -51.099998 H 1114 V -47.199998 H -159 V -51.099998 Z" fill="#2C3643"/>
				<path d="M -159 -14.5 H 1114 V -10.6 H -159 V -14.5 Z" fill="#2C3643"/>
				<path d="M -159 22.1 H 1114 V 26 H -159 V 22.1 Z" fill="#2C3643"/>
				<path d="M -159 58.700001 H 1114 V 62.600001 H -159 V 58.700001 Z" fill="#2C3643"/>
				<path d="M -159 95.300003 H 1114 V 99.200003 H -159 V 95.300003 Z" fill="#2C3643"/>
				<path d="M -159 131.899994 H 1114 V 135.799994 H -159 V 131.899994 Z" fill="#2C3643"/>
				<path d="M -159 168.5 H 1114 V 172.4 H -159 V 168.5 Z" fill="#2C3643"/>
				<path d="M -159 205.100006 H 1114 V 209.000006 H -159 V 205.100006 Z" fill="#2C3643"/>
				<path d="M -159 241.699997 H 1114 V 245.599997 H -159 V 241.699997 Z" fill="#2C3643"/>
				<path d="M -159 278.299988 H 1114 V 282.199988 H -159 V 278.299988 Z" fill="#2C3643"/>
				<path d="M -159 314.899994 H 1114 V 318.799994 H -159 V 314.899994 Z" fill="#2C3643"/>
				<path d="M -159 351.5 H 1114 V 355.4 H -159 V 351.5 Z" fill="#2C3643"/>
				<path d="M -159 388.100006 H 1114 V 392.000006 H -159 V 388.100006 Z" fill="#2C3643"/>
				<path d="M -159 424.700012 H 1114 V 428.600012 H -159 V 424.700012 Z" fill="#2C3643"/>
				<path d="M -159 461.299988 H 1114 V 465.199988 H -159 V 461.299988 Z" fill="#2C3643"/>
				<path d="M -159 497.899994 H 1114 V 501.799994 H -159 V 497.899994 Z" fill="#2C3643"/>
				<path d="M -159 534.5 H 1114 V 538.4 H -159 V 534.5 Z" fill="#2C3643"/>
				<path d="M -159 571.099976 H 1114 V 574.999976 H -159 V 571.099976 Z" fill="#2C3643"/>
				<path d="M -159 607.700012 H 1114 V 611.600012 H -159 V 607.700012 Z" fill="#2C3643"/>
				<path d="M -159 644.299988 H 1114 V 648.199988 H -159 V 644.299988 Z" fill="#2C3643"/>
				<path d="M -159 680.900024 H 1114 V 684.800025 H -159 V 680.900024 Z" fill="#2C3643"/>
				<path d="M -159 717.5 H 1114 V 721.4 H -159 V 717.5 Z" fill="#2C3643"/>
				<path d="M -159 754.099976 H 1114 V 757.999976 H -159 V 754.099976 Z" fill="#2C3643"/>
				<path d="M -159 790.700012 H 1114 V 794.600012 H -159 V 790.700012 Z" fill="#2C3643"/>
				<path d="M -159 827.299988 H 1114 V 831.199988 H -159 V 827.299988 Z" fill="#2C3643"/>
				<path d="M -159 863.900024 H 1114 V 867.800025 H -159 V 863.900024 Z" fill="#2C3643"/>
			</g><path d="M 18.1 -319.700012 H 22 V 953.299988 H 18.1 V -319.700012 Z" fill="#2C3643" transform="matrix(1, 0, 0, 1, 0, 0)"/><path d="M 54.700001 -319.700012 H 58.600001 V 953.299988 H 54.700001 V -319.700012 Z" fill="#2C3643" transform="matrix(1, 0, 0, 1, 0, 0)"/><path d="M 91.300003 -319.700012 H 95.200003 V 953.299988 H 91.300003 V -319.700012 Z" fill="#2C3643" transform="matrix(1, 0, 0, 1, 0, 0)"/><path d="M 127.900002 -319.700012 H 131.800002 V 953.299988 H 127.900002 V -319.700012 Z" fill="#2C3643" transform="matrix(1, 0, 0, 1, 0, 0)"/><path d="M 164.5 -319.700012 H 168.4 V 953.299988 H 164.5 V -319.700012 Z" fill="#2C3643" transform="matrix(1, 0, 0, 1, 0, 0)"/><path d="M 201.100006 -319.700012 H 205.000006 V 953.299988 H 201.100006 V -319.700012 Z" fill="#2C3643" transform="matrix(1, 0, 0, 1, 0, 0)"/><path d="M 237.699997 -319.700012 H 241.599997 V 953.299988 H 237.699997 V -319.700012 Z" fill="#2C3643" transform="matrix(1, 0, 0, 1, 0, 0)"/><path d="M 274.299988 -319.700012 H 278.199988 V 953.299988 H 274.299988 V -319.700012 Z" fill="#2C3643" transform="matrix(1, 0, 0, 1, 0, 0)"/><path d="M 310.899994 -319.700012 H 314.799994 V 953.299988 H 310.899994 V -319.700012 Z" fill="#2C3643" transform="matrix(1, 0, 0, 1, 0, 0)"/><path d="M 347.5 -319.700012 H 351.4 V 953.299988 H 347.5 V -319.700012 Z" fill="#2C3643" transform="matrix(1, 0, 0, 1, 0, 0)"/><path d="M 384.100006 -319.700012 H 388.000006 V 953.299988 H 384.100006 V -319.700012 Z" fill="#2C3643" transform="matrix(1, 0, 0, 1, 0, 0)"/><path d="M 420.700012 -319.700012 H 424.600012 V 953.299988 H 420.700012 V -319.700012 Z" fill="#2C3643" transform="matrix(1, 0, 0, 1, 0, 0)"/><path d="M 457.299988 -319.700012 H 461.199988 V 953.299988 H 457.299988 V -319.700012 Z" fill="#2C3643" transform="matrix(1, 0, 0, 1, 0, 0)"/><path d="M 493.899994 -319.700012 H 497.799994 V 953.299988 H 493.899994 V -319.700012 Z" fill="#2C3643" transform="matrix(1, 0, 0, 1, 0, 0)"/><path d="M 530.5 -319.700012 H 534.4 V 953.299988 H 530.5 V -319.700012 Z" fill="#2C3643" transform="matrix(1, 0, 0, 1, 0, 0)"/><path d="M 567.099976 -319.700012 H 570.999976 V 953.299988 H 567.099976 V -319.700012 Z" fill="#2C3643" transform="matrix(1, 0, 0, 1, 0, 0)"/><path d="M 603.700012 -319.700012 H 607.600012 V 953.299988 H 603.700012 V -319.700012 Z" fill="#2C3643" transform="matrix(1, 0, 0, 1, 0, 0)"/><path d="M 640.200012 -319.700012 H 644.100012 V 953.299988 H 640.200012 V -319.700012 Z" fill="#2C3643" transform="matrix(1, 0, 0, 1, 0, 0)"/><path d="M 676.799988 -319.700012 H 680.699988 V 953.299988 H 676.799988 V -319.700012 Z" fill="#2C3643" transform="matrix(1, 0, 0, 1, 0, 0)"/><path d="M 713.400024 -319.700012 H 717.300025 V 953.299988 H 713.400024 V -319.700012 Z" fill="#2C3643" transform="matrix(1, 0, 0, 1, 0, 0)"/><path d="M 750 -319.700012 H 753.9 V 953.299988 H 750 V -319.700012 Z" fill="#2C3643" transform="matrix(1, 0, 0, 1, 0, 0)"/><path d="M 786.599976 -319.700012 H 790.499976 V 953.299988 H 786.599976 V -319.700012 Z" fill="#2C3643" transform="matrix(1, 0, 0, 1, 0, 0)"/><path d="M 823.200012 -319.700012 H 827.100012 V 953.299988 H 823.200012 V -319.700012 Z" fill="#2C3643" transform="matrix(1, 0, 0, 1, 0, 0)"/><path d="M 859.799988 -319.700012 H 863.699988 V 953.299988 H 859.799988 V -319.700012 Z" fill="#2C3643" transform="matrix(1, 0, 0, 1, 0, 0)"/><path d="M 896.400024 -319.700012 H 900.300025 V 953.299988 H 896.400024 V -319.700012 Z" fill="#2C3643" transform="matrix(1, 0, 0, 1, 0, 0)"/><path d="M 933 -319.700012 H 936.9 V 953.299988 H 933 V -319.700012 Z" fill="#2C3643" transform="matrix(1, 0, 0, 1, 0, 0)"/><path d="M 969.599976 -319.700012 H 973.499976 V 953.299988 H 969.599976 V -319.700012 Z" fill="#2C3643" transform="matrix(1, 0, 0, 1, 0, 0)"/><path d="M 1006.200012 -319.700012 H 1010.100012 V 953.299988 H 1006.200012 V -319.700012 Z" fill="#2C3643" transform="matrix(1, 0, 0, 1, 0, 0)"/><defs>
			<path d="M -518.599976 -19.5 H 118.400024 V 607.299988 H -518.599976 V -19.5 Z" id="SVGID_9_"/>
		</defs><clipPath id="SVGID_10_">
			<use overflow="visible" xlink:href="#SVGID_9_"/>
		</clipPath><g transform="matrix(1, 0, 0, 1, 0, 0)">
				<path d="M -776.599976 -197.399994 H 496.400024 V -193.499994 H -776.599976 V -197.399994 Z" fill="#2C3643"/>
				<path d="M -776.599976 -160.800003 H 496.400024 V -156.900003 H -776.599976 V -160.800003 Z" fill="#2C3643"/>
				<path d="M -776.599976 -124.300003 H 496.400024 V -120.400003 H -776.599976 V -124.300003 Z" fill="#2C3643"/>
				<path d="M -776.599976 -87.699997 H 496.400024 V -83.799997 H -776.599976 V -87.699997 Z" fill="#2C3643"/>
				<path d="M -776.599976 -51.099998 H 496.400024 V -47.199998 H -776.599976 V -51.099998 Z" fill="#2C3643"/>
				<path d="M -776.599976 -14.5 H 496.400024 V -10.6 H -776.599976 V -14.5 Z" fill="#2C3643"/>
				<path d="M -776.599976 22.1 H 496.400024 V 26 H -776.599976 V 22.1 Z" fill="#2C3643"/>
				<path d="M -776.599976 58.700001 H 496.400024 V 62.600001 H -776.599976 V 58.700001 Z" fill="#2C3643"/>
				<path d="M -776.599976 95.300003 H 496.400024 V 99.200003 H -776.599976 V 95.300003 Z" fill="#2C3643"/>
				<path d="M -776.599976 131.899994 H 496.400024 V 135.799994 H -776.599976 V 131.899994 Z" fill="#2C3643"/>
				<path d="M -776.599976 168.5 H 496.400024 V 172.4 H -776.599976 V 168.5 Z" fill="#2C3643"/>
				<path d="M -776.599976 205.100006 H 496.400024 V 209.000006 H -776.599976 V 205.100006 Z" fill="#2C3643"/>
				<path d="M -776.599976 241.699997 H 496.400024 V 245.599997 H -776.599976 V 241.699997 Z" fill="#2C3643"/>
				<path d="M -776.599976 278.299988 H 496.400024 V 282.199988 H -776.599976 V 278.299988 Z" fill="#2C3643"/>
				<path d="M -776.599976 314.899994 H 496.400024 V 318.799994 H -776.599976 V 314.899994 Z" fill="#2C3643"/>
				<path d="M -776.599976 351.5 H 496.400024 V 355.4 H -776.599976 V 351.5 Z" fill="#2C3643"/>
				<path d="M -776.599976 388.100006 H 496.400024 V 392.000006 H -776.599976 V 388.100006 Z" fill="#2C3643"/>
				<path d="M -776.599976 424.700012 H 496.400024 V 428.600012 H -776.599976 V 424.700012 Z" fill="#2C3643"/>
				<path d="M -776.599976 461.299988 H 496.400024 V 465.199988 H -776.599976 V 461.299988 Z" fill="#2C3643"/>
				<path d="M -776.599976 497.899994 H 496.400024 V 501.799994 H -776.599976 V 497.899994 Z" fill="#2C3643"/>
				<path d="M -776.599976 534.5 H 496.400024 V 538.4 H -776.599976 V 534.5 Z" fill="#2C3643"/>
				<path d="M -776.599976 571.099976 H 496.400024 V 574.999976 H -776.599976 V 571.099976 Z" fill="#2C3643"/>
				<path d="M -776.599976 607.700012 H 496.400024 V 611.600012 H -776.599976 V 607.700012 Z" fill="#2C3643"/>
				<path d="M -776.599976 644.299988 H 496.400024 V 648.199988 H -776.599976 V 644.299988 Z" fill="#2C3643"/>
				<path d="M -776.599976 680.900024 H 496.400024 V 684.800025 H -776.599976 V 680.900024 Z" fill="#2C3643"/>
				<path d="M -776.599976 717.5 H 496.400024 V 721.4 H -776.599976 V 717.5 Z" fill="#2C3643"/>
				<path d="M -776.599976 754.099976 H 496.400024 V 757.999976 H -776.599976 V 754.099976 Z" fill="#2C3643"/>
				<path d="M -776.599976 790.700012 H 496.400024 V 794.600012 H -776.599976 V 790.700012 Z" fill="#2C3643"/>
				<path d="M -776.599976 827.299988 H 496.400024 V 831.199988 H -776.599976 V 827.299988 Z" fill="#2C3643"/>
				<path d="M -776.599976 863.900024 H 496.400024 V 867.800025 H -776.599976 V 863.900024 Z" fill="#2C3643"/>
			</g><path d="M 22.6 -319.700012 H 26.5 V 953.299988 H 22.6 V -319.700012 Z" fill="#2C3643" transform="matrix(1, 0, 0, 1, 0, 0)"/><path d="M 59.200001 -319.700012 H 63.100001 V 953.299988 H 59.200001 V -319.700012 Z" fill="#2C3643" transform="matrix(1, 0, 0, 1, 0, 0)"/><path d="M 95.800003 -319.700012 H 99.700003 V 953.299988 H 95.800003 V -319.700012 Z" fill="#2C3643" transform="matrix(1, 0, 0, 1, 0, 0)"/><path d="M 132.399994 -319.700012 H 136.299994 V 953.299988 H 132.399994 V -319.700012 Z" fill="#2C3643" transform="matrix(1, 0, 0, 1, 0, 0)"/><path d="M 169 -319.700012 H 172.9 V 953.299988 H 169 V -319.700012 Z" fill="#2C3643" transform="matrix(1, 0, 0, 1, 0, 0)"/><path d="M 205.600006 -319.700012 H 209.500006 V 953.299988 H 205.600006 V -319.700012 Z" fill="#2C3643" transform="matrix(1, 0, 0, 1, 0, 0)"/><path d="M 242.199997 -319.700012 H 246.099997 V 953.299988 H 242.199997 V -319.700012 Z" fill="#2C3643" transform="matrix(1, 0, 0, 1, 0, 0)"/><path d="M 278.799988 -319.700012 H 282.699988 V 953.299988 H 278.799988 V -319.700012 Z" fill="#2C3643" transform="matrix(1, 0, 0, 1, 0, 0)"/><path d="M 315.399994 -319.700012 H 319.299994 V 953.299988 H 315.399994 V -319.700012 Z" fill="#2C3643" transform="matrix(1, 0, 0, 1, 0, 0)"/><path d="M 352 -319.700012 H 355.9 V 953.299988 H 352 V -319.700012 Z" fill="#2C3643" transform="matrix(1, 0, 0, 1, 0, 0)"/><path d="M 388.600006 -319.700012 H 392.500006 V 953.299988 H 388.600006 V -319.700012 Z" fill="#2C3643" transform="matrix(1, 0, 0, 1, 0, 0)"/><path fill="#FEC779" d="M730.8,573.9l24.1,26.3l16.5,30.2l-47.2,20.3c0,0-22.5,74.1-58.7,118.5c-36.2,44.4-71.3,74.6-71.3,74.6&#10;&#9;&#9;&#9;l-6.6-4.9c0,0,10.4-15.9,6-27.4l73-163c0,0,10.4-37.9,22.5-54.3C701.2,577.8,730.8,573.9,730.8,573.9z" transform="matrix(1, 0, 0, 1, 0, 0)"/><path fill="#E7B86B" d="M747.7,640.6c-2.3-6.1-4.4-11.2-4.4-11.2l-32.9,3.5l-10.8-4.3l9.1,10.4c0,0,0,3.9-16.4,63.6&#10;&#9;&#9;&#9;c-14,50.9-81.4,120-101,139.2l2.8,2.1c0,0,35.1-30.2,71.3-74.6c36.2-44.5,58.7-118.5,58.7-118.5L747.7,640.6z" transform="matrix(1, 0, 0, 1, 0, 0)"/><path fill="#C49A6C" d="M505.3,791.4l-3.3-10.2l-4.8,1.8c0,0-5.1,19,4.4,42.4c9.5,23.4,34.4,42.1,34.4,42.1l-2.6,6.2&#10;&#9;&#9;&#9;c0,0,22.7,27.8,30.4,26.7c7.7-1.1,9.5-11,9.5-11L505.3,791.4z" transform="matrix(1, 0, 0, 1, 0, 0)"/><path fill="#BE1E2D" d="M568.9,814.5c0,0-6.9-13.9,5.1-16.5c12.1-2.6,25.6,15.4,22,24.5c-3.7,9.1-7,16.8-7,16.8l7,1.8l5.5-3.7&#10;&#9;&#9;&#9;c0,0,1.8,7.7-0.7,13.2c-2.6,5.5-5.9,6.6-5.9,6.6l-16.1,26l-5.5,8.8l-27.8-21.6v-4l-5.9-8.1c0,0-32.2-34.8-35.5-54.5&#10;&#9;&#9;&#9;c-3.3-19.8-2.2-22.7-2.2-22.7l7-0.4c0,0,16.1,27.1,35.1,31.5C563.1,816.7,568.9,814.5,568.9,814.5z" transform="matrix(1, 0, 0, 1, 0, 0)" style="fill: rgb(244, 103, 68);"/><path fill="#A0171A" d="M568.7,814.5c-1.1,0.3-7.6,1.7-24.7-2.3c-12-2.8-22.9-14.6-29.2-22.9l3.6,20.4c0,0,10.6,16.8,31.1,19.8&#10;&#9;&#9;&#9;c20.5,2.9,31.1-1.1,31.1-1.1L568.7,814.5z" transform="matrix(1, 0, 0, 1, 0, 0)" style="fill: rgb(244, 103, 68);"/><path d="M 533.0999755859375 841.9000244140625 L 535.5999755859375 847.4000244140625 L 566 850.7000122070312 L 578.4000244140625 872.5999755859375 L 583.5 867.5 L 571.7999877929688 845.5999755859375 L 566.2999877929688 843.4000244140625 Z" fill="#C49A6C" transform="matrix(1, 0, 0, 1, 0, 0)"/><path fill="#FEC779" d="M777.8,676.5c0,0,5.1,43.2,15.4,46.8c10.2,3.7,109.7,5.1,134.6,46.8l8.8,0.7l11-6.6&#10;&#9;&#9;&#9;c0,0-14.6-36.6-43.9-60.7c-29.3-24.1-55.6-26.3-55.6-26.3l-0.7-8.8l-30-4.4L777.8,676.5z" transform="matrix(1, 0, 0, 1, 0, 0)"/><path fill="#E7B86B" d="M903.6,703.6c-29.3-24.1-55.6-26.3-55.6-26.3l-0.7-8.8l-26.7-3.9c-14.3,10.7-26.2,19.8-26.2,19.8l19,13.8&#10;&#9;&#9;&#9;c0,0,35-12.1,69.6,10.4c34.6,22.5,53.5,62.3,53.5,62.3l11-6.6C947.6,764.3,932.9,727.8,903.6,703.6z" transform="matrix(1, 0, 0, 1, 0, 0)"/><path d="M 759.9000244140625 640.9000244140625 L 770.9000244140625 684.2000122070312 L 812 686.4000244140625 L 851 668.2999877929688 L 856.5 592 Z" fill="#958C89" transform="matrix(1, 0, 0, 1, 0, 0)"/><path fill="#C49A6C" d="M885.5,809.3l-5.5,2.7v8.8c0,0,27.4,10.4,46.6,4.9c19.2-5.5,29.6-21.4,29.6-21.4s12.6-4.9,15.9-13.2&#10;&#9;&#9;&#9;c3.3-8.2,6.6-24.1,6.6-24.1l-8.8-2.2L885.5,809.3z" transform="matrix(1, 0, 0, 1, 0, 0)"/><path fill="#BE1E2D" d="M899.3,795.6l8.8-22.5c0,0-4.4-4.9-1.1-9.3c3.3-4.4,8.8-5.5,15.4-1.1c6.6,4.4,9.3,4.9,9.3,4.9l10.4-4.4&#10;&#9;&#9;&#9;l2.7-3.8l-4.4-3.8c0,0,1.6-4.9,6.6-2.7c4.9,2.2,25.2,12.6,25.2,12.6s1.6,14.8-12.1,24.7c-13.7,9.9-30.7,25.2-30.7,25.2&#10;&#9;&#9;&#9;s-31.8,6-44.4,1.1c-12.6-4.9-2.2-12.1-2.2-12.1L899.3,795.6z" transform="matrix(1, 0, 0, 1, 0, 0)" style="fill: rgb(244, 103, 68);"/><path fill="#A0171A" d="M908,773.1l-8.8,22.5l-6.8,3.6c3.3,1,6.8,3.4,9.6,9l9.3-4.9l13.7-31.3c0,0-11.9,0-17.8,0&#10;&#9;&#9;&#9;C907.7,772.7,908,773.1,908,773.1z" transform="matrix(1, 0, 0, 1, 0, 0)" style="fill: rgb(244, 103, 68);"/><path d="M 776.9000244140625 524.5 L 709.4000244140625 578.9000244140625 L 746.7000122070312 648.5999755859375 L 818 630.4000244140625 L 898.7000122070312 572.2999877929688 L 913 536.0999755859375 L 911.2999877929688 516.7999877929688 L 829.5999755859375 500.3999938964844 L 797.2000122070312 510.29998779296875 Z" fill="#D0C8C3" transform="matrix(1, 0, 0, 1, 0, 0)"/><path d="M 834.2999877929688 501.29998779296875 L 827.4000244140625 503.70001220703125 L 885.5 543.7000122070312 L 879 570.0999755859375 L 784.5999755859375 628.2000122070312 L 736.7999877929688 630 L 746.7000122070312 648.5999755859375 L 818 630.4000244140625 L 898.7000122070312 572.2999877929688 L 913 536.0999755859375 L 911.2999877929688 516.7999877929688 Z" fill="#958C89" transform="matrix(1, 0, 0, 1, 0, 0)"/><path d="M 783.7000122070312 533.0999755859375 L 758 517 L 766.7999877929688 498.70001220703125 L 677.5999755859375 359.70001220703125 L 640.2000122070312 412.3999938964844 L 591.2000122070312 371.3999938964844 L 606.5999755859375 335.6000061035156 L 657.7999877929688 281.3999938964844 L 703.2000122070312 227.3000030517578 L 777.7999877929688 238.3000030517578 L 832.7000122070312 315.1000061035156 L 914.5999755859375 503.1000061035156 L 913.9000244140625 517 L 824.5999755859375 509.70001220703125 Z" fill="#BE1E2D" transform="matrix(1, 0, 0, 1, 0, 0)" style="fill: rgb(11, 187, 164);"/><path d="M 640.2000122070312 412.29998779296875 L 640.4000244140625 412.20001220703125 L 677.5999755859375 359.70001220703125 L 680.4000244140625 364.20001220703125 L 671.7000122070312 340 L 619.0999755859375 394.70001220703125 Z" fill="#A0171A" transform="matrix(1, 0, 0, 1, 0, 0)" style="fill: rgb(11, 187, 164);"/><path fill="#483C3A" d="M383.6,347.4l29.3-8.4l2.4-14.1c0,0-37,2.8-37.4,4.4c-0.4,1.6-2.8,11.7-2.8,11.7L383.6,347.4z" transform="matrix(1, 0, 0, 1, 0, 0)"/><path fill="#5D5652" d="M440.2,244.2c-16.9-46.6-76.7-41.4-101.6-8.8c-24.9,32.5-14.9,79.1,16.1,100.4&#10;&#9;&#9;&#9;c30.9,21.3,43.4,31.3,43.4,31.3l17.7-3.6l-0.4-18.5C415.3,345,457.1,290.8,440.2,244.2z M398,354.6l-19.3-11.2l32.5-11.6&#10;&#9;&#9;&#9;L398,354.6z" transform="matrix(1, 0, 0, 1, 0, 0)"/><path fill="#483C3A" d="M440.2,244.2c-6.6-18.2-19.7-28.5-34.8-32.3c15.1,7.4,36,25.1,30.4,71.7c-3.6,31.3-22.9,55.4-22.9,55.4&#10;&#9;&#9;&#9;l-5.6,22.1l2.4,3.6l6-1.2l-0.4-18.5C415.3,345,457.1,290.8,440.2,244.2z" transform="matrix(1, 0, 0, 1, 0, 0)"/><path d="M 411.29998779296875 426.1000061035156 L 394.3999938964844 364.29998779296875 L 406.8999938964844 359 L 415.70001220703125 363.5 L 423.79998779296875 423.29998779296875 L 418.1000061035156 425.29998779296875 Z" fill="#B2AB9C" transform="matrix(1, 0, 0, 1, 0, 0)"/><path d="M 594.7000122070312 371.3999938964844 L 555.7000122070312 378 L 449.79998779296875 400 L 420.70001220703125 381.70001220703125 L 391.5 379.5 L 390.70001220703125 386.79998779296875 L 401 390.79998779296875 L 408.70001220703125 391.20001220703125 L 421.1000061035156 410.8999938964844 L 429.5 414.6000061035156 L 437.8999938964844 433.29998779296875 L 574.4000244140625 429.20001220703125 L 609.9000244140625 410.6000061035156 L 635.5 392.6000061035156 Z" fill="#FEC779" transform="matrix(1, 0, 0, 1, 0, 0)"/><path fill="#E7B86B" d="M554.4,390.9c0,0-2.2,7.4,3.6,9.6c5.8,2.2,17.3,0.8,17.3,0.8s2.5-18.7,1.4-18.7&#10;&#9;&#9;&#9;C575.5,382.7,554.4,390.9,554.4,390.9z" transform="matrix(1, 0, 0, 1, 0, 0)"/><path fill="#E7B86B" d="M549.9,423.7c-13.1,2.7-37.9,5.6-60.7,8l85.2-2.5l35.5-18.7l25.6-17.9l-40.8-21.2l-25.4,4.3&#10;&#9;&#9;&#9;c-2,5.7-5,19.3,3.3,32.7C572.6,408.4,578.4,417.9,549.9,423.7z" transform="matrix(1, 0, 0, 1, 0, 0)"/><path fill="#A0171A" d="M914.6,503.1l-81.9-188l-54.9-76.8l-14.6-2.1l-14.7,5.1c0,0,2.2,22,1.5,54.1&#10;&#9;&#9;&#9;c-0.7,32.2-12.4,25.6-12.4,25.6l15.4,36.6l68.8,92.9l17.6,34.4l-24.9,8.1l-16.8,11.7l39.5-7.3l46.8,7.3l-38,0.7l-4.5,5.8l63.8,5.2&#10;&#9;&#9;&#9;c3,0.1,5.9,0.1,8.7,0L914.6,503.1z" transform="matrix(1, 0, 0, 1, 0, 0)" style="fill: rgb(11, 187, 164);"/><path fill="#FFE24F" d="M903.4,477.4L866,391.5c-15.3-22.1-31.4-43.6-42.4-54.1c-27.8-26.3-30.4-27.4-30.4-27.4s-1.1,48.3-9.5,49&#10;&#9;&#9;&#9;c-8.4,0.7-19.8-5.1-19.8-5.1l7.7,8.8c0,0,5.1-6.6,30,13.2C823,392.9,886.4,459.4,903.4,477.4z" transform="matrix(1, 0, 0, 1, 0, 0)" style="fill: rgb(244, 103, 68);"/><path fill="#FEC779" d="M619.9,350.6l80.1-18.7l23.6-8.2l20.9-2.7l27.4,8.8l-1.6,26.9l-38.2,20.3l-91.1,4.8l-19,17.9l-15.7,4&#10;&#9;&#9;&#9;l-13.5,2.2l-4.8-3.7l0.7-4.4l9.5-1.1l5.1-4.8l-12.1,2.9l-12.8,8l-4.8-1.5v-4.8l10.2-8.4L563.8,400l-6.2-3.7v-4.8l30.7-18.7&#10;&#9;&#9;&#9;l7.7-4.8l-11.3,1.1l-17.6,6.2h-4.4l-1.5-6.6l13.2-8.4l-4.4-1.8l-0.7-5.1l4-2.2l5.9,1.1l24.1-5.5&#10;&#9;&#9;&#9;C603.3,346.9,621.2,350.6,619.9,350.6z" transform="matrix(1, 0, 0, 1, 0, 0)"/><path d="M 732.0999755859375 376.8999938964844 L 770.2999877929688 356.6000061035156 L 771.9000244140625 329.70001220703125 L 744.5 320.8999938964844 L 723.7000122070312 323.70001220703125 L 743 323.8999938964844 L 762.7999877929688 342.20001220703125 L 734.5999755859375 368.5 L 641 372.8999938964844 L 615.4000244140625 365.8999938964844 L 603.2999877929688 368.8999938964844 L 609.9000244140625 372.20001220703125 L 605.9000244140625 379.5 L 610.5999755859375 380.6000061035156 L 617.5999755859375 386.1000061035156 L 616.7999877929688 391.8999938964844 L 624.5 395.20001220703125 L 624.7000122070312 397 L 641 381.70001220703125 Z" fill="#D7AC65" transform="matrix(1, 0, 0, 1, 0, 0)"/><path d="M 611.2999877929688 190.6999969482422 L 594.9000244140625 188.89999389648438 L 588.2999877929688 178.60000610351562 L 593.7999877929688 178.60000610351562 L 590.5 175 L 595.2000122070312 171.3000030517578 L 606.2000122070312 149.39999389648438 L 659.2999877929688 131.10000610351562 L 675 136.89999389648438 L 680.0999755859375 147.5 L 688.2000122070312 145 L 702.0999755859375 168.39999389648438 L 706.7999877929688 202 L 701.7000122070312 216.6999969482422 L 694 223.60000610351562 Z" fill="#423936" transform="matrix(1, 0, 0, 1, 0, 0)"/><path d="M 599.5999755859375 196.1999969482422 L 615.7000122070312 251.8000030517578 L 638.0999755859375 272.70001220703125 L 652.7000122070312 271.6000061035156 L 675.4000244140625 293.8999938964844 L 683.4000244140625 289.1000061035156 L 706.0999755859375 226.89999389648438 L 698 217.39999389648438 L 701 210.5 L 693.2999877929688 188.89999389648438 L 682.7000122070312 190 L 679 200.60000610351562 L 680.5 213.39999389648438 L 675 217 L 668.4000244140625 198.8000030517578 L 642.0999755859375 169.5 L 604 182.3000030517578 Z" fill="#FEC779" transform="matrix(1, 0, 0, 1, 0, 0)"/><path d="M 702.5999755859375 222.8000030517578 L 682.2999877929688 268.20001220703125 L 675.7000122070312 261.1000061035156 L 681.7999877929688 229.5 L 670.5999755859375 231.60000610351562 L 655.9000244140625 264.70001220703125 L 633.7000122070312 268.6000061035156 L 638.0999755859375 272.70001220703125 L 652.7000122070312 271.6000061035156 L 675.4000244140625 293.8999938964844 L 683.4000244140625 289.1000061035156 L 706.0999755859375 226.89999389648438 Z" fill="#D7AC65" transform="matrix(1, 0, 0, 1, 0, 0)"/><path d="M 410.5 421.29998779296875 L 416.1000061035156 418.1000061035156 L 422.6000061035156 418.8999938964844 L 426.20001220703125 424.1000061035156 L 418.8999938964844 431 L 408.8999938964844 426.8999938964844 Z" fill="#5D5652" transform="matrix(1, 0, 0, 1, 0, 0)"/><path d="M 449.1000061035156 397.6000061035156 L 443 420.1000061035156 L 448.29998779296875 436.6000061035156 L 455.8999938964844 433.79998779296875 L 451.1000061035156 420.8999938964844 L 457.1000061035156 396.3999938964844 Z" fill="#5D5652" transform="matrix(1, 0, 0, 1, 0, 0)"/><path fill="#5D5652" d="M423.3,439.4l-8.1-11.1l3.5-2.6l7.1,9.8L449,440l1.6-7.9l4.3,0.9l-2.4,12.2L423.3,439.4L423.3,439.4z&#10;&#9;&#9;&#9;&#9; M415.2,428.2L415.2,428.2L415.2,428.2L415.2,428.2L415.2,428.2z" transform="matrix(1, 0, 0, 1, 0, 0)"/><path fill="#483C3A" d="M373.1,331.3l39.4-18.1c0,0,24.1-35.8,11.3-67.5c-12.9-31.7-60.7-32.9-82-3.6&#10;&#9;&#9;&#9;C320.5,271.5,335.8,319.3,373.1,331.3z" transform="matrix(1, 0, 0, 1, 0, 0)"/><path fill="#B2AB9C" d="M373.1,331.3l37.7-12.6c0,0,17.4-28.9,16.6-54.6c-5.4-30.4-31-44.2-65.6-31.2c-23,8.7-28.6,31.4-28.7,51&#10;&#9;&#9;&#9;C336.9,304.7,351.2,324.2,373.1,331.3z" transform="matrix(1, 0, 0, 1, 0, 0)"/>
<path d="M 834.1869506835938 360.1969299316406 L 834.1869506835938 360.1969299316406 L 820.7879028320312 365.2215576171875" style="fill: rgb(190, 30, 45); fill-opacity: 1; stroke: rgb(0, 0, 0); stroke-opacity: 1; stroke-width: 0; paint-order: fill;"/><path d="M 795.664794921875 348.4728088378906 L 795.664794921875 348.4728088378906" style="fill: rgb(190, 30, 45); fill-opacity: 1; stroke: rgb(0, 0, 0); stroke-opacity: 1; stroke-width: 0; paint-order: fill;"/><path d="M 934.6795043945312 824.1376953125" style="fill: rgb(244, 103, 68); fill-opacity: 1; stroke: rgb(0, 0, 0); stroke-opacity: 1; stroke-width: 0; paint-order: fill;"/></svg>