<?xml version="1.0"?>
<svg xmlns="http://www.w3.org/2000/svg" xmlns:xlink="http://www.w3.org/1999/xlink" xmlns:svgjs="http://svgjs.com/svgjs" version="1.1" width="512" height="512" x="0" y="0" viewBox="0 0 64 64" style="enable-background:new 0 0 512 512" xml:space="preserve" class=""><g><g xmlns="http://www.w3.org/2000/svg"><path d="m42.875 42.525 2.1 2.1-2.1 2.101h-.01l-2.1-2.101 2.1-2.1z" fill="#e6e9ed" data-original="#e6e9ed" style="" class=""/><g><g><path d="m42.872 43.519c-.257 0-.512-.098-.707-.293-.57-.57-1.099-1.186-1.57-1.827-.327-.446-.23-1.072.214-1.398.446-.327 1.071-.231 1.397.215.412.562.874 1.098 1.373 1.597.391.391.391 1.024 0 1.414-.195.194-.451.292-.707.292z" fill="#ccd1d9" data-original="#ccd1d9" style="" class=""/></g><g><path d="m40.768 45.623c-.256 0-.513-.098-.707-.292-3.261-3.261-7.91-4.669-12.433-3.771-.54.112-1.068-.244-1.176-.785-.108-.542.243-1.067.784-1.176 5.18-1.03 10.503.581 14.238 4.316.391.391.392 1.023 0 1.415-.195.196-.451.293-.706.293z" fill="#ccd1d9" data-original="#ccd1d9" style="" class=""/></g><g><path d="m5.36 29.144c-.256 0-.512-.098-.707-.293-2.998-2.998-4.648-6.983-4.649-11.222-.001-4.239 1.652-8.226 4.649-11.223 6.188-6.188 16.255-6.187 22.444 0 .391.391.392 1.023 0 1.415-.391.391-1.023.39-1.414 0-5.408-5.407-14.208-5.407-19.616 0-2.62 2.619-4.063 6.103-4.063 9.807 0 3.705 1.443 7.188 4.063 9.809.391.391.392 1.023 0 1.414-.195.196-.451.293-.707.293z" fill="#e6e9ed" data-original="#e6e9ed" style="" class=""/></g><g><path d="m24.29 41.931c-4.097 0-8.15-1.593-11.222-4.665-.391-.391-.391-1.023 0-1.414s1.023-.391 1.414 0c4.54 4.541 11.536 5.386 17.011 2.05.475-.286 1.088-.136 1.376.334.286.472.137 1.087-.335 1.375-2.561 1.558-5.413 2.32-8.244 2.32z" fill="#e6e9ed" data-original="#e6e9ed" style="" class=""/></g><g><path d="m31.999 13.722c-.256 0-.512-.098-.707-.292l-5.608-5.608c-.391-.392-.391-1.023 0-1.415.391-.391 1.023-.391 1.414 0l5.608 5.608c.391.391.391 1.023 0 1.414-.195.195-.451.293-.707.293z" fill="#e6e9ed" data-original="#e6e9ed" style="" class=""/></g><g><path d="m13.775 37.559c-.256 0-.512-.098-.707-.293l-8.415-8.415c-.391-.391-.391-1.023 0-1.414s1.023-.391 1.414 0l8.415 8.415c.391.391.391 1.023 0 1.414-.195.195-.451.293-.707.293z" fill="#e6e9ed" data-original="#e6e9ed" style="" class=""/></g><g><g><path d="m28.72 20.255c-.255 0-.512-.097-.707-.293l-14.961-14.961c-.391-.39-.391-1.022.001-1.413.391-.391 1.023-.391 1.413-.001l14.961 14.961c.392.392.392 1.023 0 1.415-.196.195-.45.293-.707.292z" fill="#aab2bd" data-original="#aab2bd" style="" class=""/></g><g><path d="m26.921 24.064c-.256 0-.512-.098-.707-.293l-17.588-17.588c-.392-.392-.392-1.023 0-1.415.39-.39 1.022-.391 1.414 0l17.588 17.59c.391.391.391 1.023 0 1.414-.195.195-.452.292-.707.292z" fill="#aab2bd" data-original="#aab2bd" style="" class=""/></g><g><path d="m26.276 29.03c-.256 0-.512-.098-.707-.293l-20.228-20.228c-.391-.391-.391-1.023 0-1.414.39-.391 1.023-.392 1.414 0l20.229 20.229c.391.391.391 1.023 0 1.414-.196.195-.452.292-.708.292z" fill="#aab2bd" data-original="#aab2bd" style="" class=""/></g><g><path d="m30.835 39.194c-.256 0-.512-.098-.708-.293l-27.108-27.11c-.391-.392-.391-1.023 0-1.415.39-.39 1.023-.391 1.414 0l27.109 27.111c.391.391.391 1.022 0 1.414-.196.196-.451.293-.707.293z" fill="#aab2bd" data-original="#aab2bd" style="" class=""/></g><g><path d="m26.364 40.337c-.255 0-.512-.098-.707-.293l-23.782-23.783c-.391-.391-.391-1.023 0-1.414.39-.39 1.022-.39 1.413.001l23.783 23.782c.392.391.392 1.023 0 1.414-.195.195-.451.293-.707.293z" fill="#aab2bd" data-original="#aab2bd" style="" class=""/></g></g><g><g><path d="m22.215 40.337c-.256 0-.512-.098-.707-.293-.392-.391-.392-1.024 0-1.414l5.27-5.27c.391-.391 1.023-.391 1.414 0s.391 1.024 0 1.414l-5.27 5.27c-.195.195-.452.293-.707.293z" fill="#ccd1d9" data-original="#ccd1d9" style="" class=""/></g><g><path d="m17.746 39.198c-.256 0-.511-.099-.706-.294-.391-.39-.392-1.023-.001-1.413l7.766-7.766c.39-.391 1.023-.39 1.414 0 .391.392.391 1.023 0 1.414l-7.766 7.766c-.194.195-.45.293-.707.293z" fill="#ccd1d9" data-original="#ccd1d9" style="" class=""/></g><g><path d="m14.466 36.873c-.256 0-.512-.098-.708-.293-.391-.391-.391-1.023 0-1.414l10.395-10.396c.391-.391 1.022-.391 1.414 0 .391.392.391 1.023 0 1.414l-10.394 10.396c-.196.195-.452.293-.707.293z" fill="#ccd1d9" data-original="#ccd1d9" style="" class=""/></g><g><path d="m11.66 34.068c-.255 0-.512-.098-.707-.293-.39-.391-.391-1.023 0-1.414l19.655-19.655c.391-.391 1.023-.39 1.414 0 .391.391.391 1.023 0 1.414l-19.655 19.655c-.195.196-.451.293-.707.293z" fill="#ccd1d9" data-original="#ccd1d9" style="" class=""/></g><g><path d="m6.053 28.462c-.257 0-.512-.098-.707-.293-.392-.391-.392-1.023 0-1.414l19.655-19.657c.39-.39 1.022-.39 1.413.001.392.391.392 1.023 0 1.414l-19.654 19.656c-.196.195-.452.293-.707.293z" fill="#ccd1d9" data-original="#ccd1d9" style="" class=""/></g><g><path d="m8.852 31.261c-.256.001-.512-.098-.707-.293-.391-.391-.391-1.023 0-1.414l19.655-19.657c.391-.391 1.023-.391 1.414 0 .391.392.391 1.023 0 1.415l-19.654 19.656c-.197.195-.453.293-.708.293z" fill="#ccd1d9" data-original="#ccd1d9" style="" class=""/></g><g><path d="m3.724 25.175c-.255 0-.512-.098-.707-.293-.391-.391-.391-1.023 0-1.414l18.698-18.697c.391-.391 1.023-.391 1.414 0 .39.39.391 1.023-.001 1.413l-18.697 18.698c-.196.195-.452.293-.707.293z" fill="#ccd1d9" data-original="#ccd1d9" style="" class=""/></g><g><path d="m2.581 20.703c-.256 0-.512-.098-.708-.293-.391-.391-.391-1.023 0-1.414l15.37-15.367c.39-.392 1.023-.392 1.414-.001s.39 1.024 0 1.414l-15.369 15.368c-.195.195-.452.293-.707.293z" fill="#ccd1d9" data-original="#ccd1d9" style="" class=""/></g></g><g><path d="m42.87 47.727c-.256 0-.512-.098-.707-.293l-2.103-2.103c-.391-.392-.391-1.023 0-1.415.391-.391 1.023-.391 1.414 0l2.103 2.104c.391.391.391 1.023 0 1.414-.195.196-.451.292-.707.293z" fill="#e6e9ed" data-original="#e6e9ed" style="" class=""/></g><g><path d="m44.972 45.625c-.256-.001-.512-.099-.707-.294l-2.103-2.102c-.391-.391-.391-1.023 0-1.414.39-.391 1.024-.391 1.414 0l2.102 2.102c.392.391.392 1.023 0 1.414-.195.195-.45.293-.706.294z" fill="#e6e9ed" data-original="#e6e9ed" style="" class=""/></g><g><path d="m55.988 62.246c-.256.001-.512-.098-.707-.293l-13.82-13.819c-.188-.188-.293-.441-.293-.707s.105-.519.293-.707l3.505-3.503c.391-.391 1.023-.39 1.414 0l13.821 13.817c.188.188.292.441.293.707 0 .266-.104.52-.293.707l-3.506 3.505c-.195.195-.451.293-.707.293zm-12.406-14.819 12.406 12.405 2.092-2.091-12.407-12.403z" fill="#f46744" data-original="#ed5565" style="" class=""/></g><g><path d="m40.768 45.623c-.256 0-.513-.098-.707-.292-.391-.392-.391-1.023 0-1.415l2.102-2.101c.39-.391 1.024-.391 1.414 0 .391.391.39 1.023 0 1.414l-2.102 2.102c-.196.195-.452.292-.707.292z" fill="#e6e9ed" data-original="#e6e9ed" style="" class=""/></g></g><g><g><path d="m27.136 28.396c-.257.001-.512-.097-.708-.292-.391-.392-.391-1.023 0-1.415l22.367-22.365c.391-.392 1.022-.392 1.414 0 .391.391.391 1.023 0 1.414l-22.366 22.366c-.196.195-.452.292-.707.292z" fill="#434a54" data-original="#434a54" style=""/></g><g><path d="m28.272 32.866c-.256 0-.512-.098-.707-.293-.391-.391-.391-1.023 0-1.414l25.698-25.696c.391-.391 1.023-.391 1.414 0 .391.392.391 1.023 0 1.415l-25.698 25.695c-.195.196-.451.293-.707.293z" fill="#434a54" data-original="#434a54" style=""/></g><g><path d="m30.6 36.151c-.256 0-.512-.098-.707-.293-.391-.391-.391-1.023 0-1.414l26.655-26.655c.391-.391 1.022-.391 1.414 0 .391.392.391 1.024 0 1.414l-26.655 26.655c-.196.196-.452.293-.707.293z" fill="#434a54" data-original="#434a54" style=""/></g><g><path d="m33.883 38.475c-.257 0-.512-.098-.708-.293-.391-.391-.391-1.023 0-1.414l25.694-25.695c.392-.392 1.023-.392 1.414-.001s.39 1.023 0 1.414l-25.693 25.696c-.195.195-.452.293-.707.293z" fill="#434a54" data-original="#434a54" style=""/></g><g><path d="m38.352 39.616c-.256 0-.511-.098-.706-.293-.392-.392-.392-1.023-.001-1.414l22.368-22.367c.391-.391 1.024-.39 1.414 0 .392.392.392 1.023 0 1.415l-22.368 22.366c-.195.196-.452.293-.707.293z" fill="#434a54" data-original="#434a54" style=""/></g><g><g><path d="m41.087 39.616c-.256 0-.512-.098-.707-.293l-13.246-13.245c-.391-.391-.391-1.022 0-1.414.391-.391 1.023-.391 1.414 0l13.246 13.245c.391.391.39 1.023 0 1.414-.195.196-.451.293-.707.293z" fill="#545c66" data-original="#545c66" style="" class=""/></g><g><path d="m45.556 38.478c-.256 0-.512-.098-.708-.293l-17.283-17.284c-.391-.39-.391-1.023 0-1.414s1.024-.39 1.414 0l17.283 17.283c.391.391.391 1.023 0 1.414-.195.196-.45.294-.706.294z" fill="#545c66" data-original="#545c66" style="" class=""/></g><g><path d="m48.837 36.152c-.257 0-.512-.099-.707-.293l-18.239-18.24c-.391-.391-.391-1.023-.001-1.413.391-.391 1.023-.391 1.414 0l18.24 18.239c.39.391.391 1.023 0 1.415-.195.195-.451.292-.707.292z" fill="#545c66" data-original="#545c66" style="" class=""/></g><g><path d="m51.642 33.348c-.256-.001-.513-.098-.707-.293l-18.24-18.238c-.391-.391-.391-1.023 0-1.414.391-.39 1.023-.39 1.415 0l18.239 18.238c.391.391.391 1.023 0 1.414-.196.195-.452.293-.707.293z" fill="#545c66" data-original="#545c66" style="" class=""/></g><g><path d="m54.446 30.545c-.256 0-.512-.098-.707-.293l-18.241-18.24c-.391-.391-.39-1.024 0-1.414.391-.392 1.023-.391 1.414 0l18.241 18.24c.391.391.391 1.023 0 1.414-.195.195-.452.293-.707.293z" fill="#545c66" data-original="#545c66" style="" class=""/></g><g><path d="m57.249 27.742c-.256 0-.512-.098-.707-.293l-18.239-18.242c-.391-.391-.391-1.023-.001-1.413.391-.391 1.023-.391 1.414 0l18.24 18.241c.391.391.391 1.023 0 1.414-.195.196-.452.293-.707.293z" fill="#545c66" data-original="#545c66" style="" class=""/></g><g><path d="m59.577 24.454c-.256 0-.512-.098-.707-.293l-17.282-17.281c-.391-.391-.391-1.023 0-1.414s1.023-.391 1.414 0l17.282 17.281c.391.391.391 1.023 0 1.414-.195.195-.451.293-.707.293z" fill="#545c66" data-original="#545c66" style="" class=""/></g><g><path d="m60.72 19.982c-.255 0-.511-.098-.706-.294l-13.953-13.951c-.39-.39-.391-1.023 0-1.414s1.024-.391 1.414 0l13.952 13.952c.392.391.392 1.023.001 1.413-.196.197-.451.294-.708.294z" fill="#545c66" data-original="#545c66" style="" class=""/></g></g></g><path d="m29.205 36.545-.01.01.22.23c-1.42.68-2.94 1.06-4.47 1.14-.23.011-.471.021-.7.021-.21 0-.41-.01-.62-.021-1.53-.09-3.04-.469-4.45-1.15-1.189-.56-2.3-1.329-3.29-2.319h-.01l-2.8-2.799-2.801-2.801-2.81-2.81c-.979-.979-1.761-2.101-2.32-3.29-.69-1.411-1.069-2.94-1.149-4.471-.021-.44-.021-.88 0-1.31.08-1.539.46-3.061 1.149-4.471.56-1.189 1.341-2.31 2.321-3.29.979-.979 2.089-1.76 3.279-2.319 1.41-.68 2.93-1.061 4.47-1.141.441-.029.88-.029 1.32.001 1.54.079 3.06.459 4.47 1.14 1.19.56 2.3 1.34 3.28 2.319l.01.011 2.8 2.8 2.8 2.8 2.101-2.099-5.601-5.61c-5.81-5.812-15.229-5.812-21.029-.001-5.811 5.81-5.811 15.22 0 21.03l8.409 8.42c2.471 2.47 5.601 3.89 8.82 4.25 1.609.189 3.251.109 4.84-.23 1.602-.35 3.15-.96 4.58-1.83-.999-.609-1.95-1.349-2.809-2.21z" fill="#e6e9ed" data-original="#e6e9ed" style="" class=""/><path d="m39.715 9.215-2.8 2.8-2.811 2.801-2.8 2.8v.01c-.99.98-1.76 2.09-2.319 3.28-.681 1.41-1.061 2.93-1.141 4.47-.03.43-.03.88 0 1.32.08 1.53.46 3.06 1.141 4.47.569 1.19 1.34 2.3 2.319 3.28.98.99 2.09 1.76 3.28 2.33 1.41.68 2.93 1.06 4.47 1.14.431.021.88.021 1.32 0 1.53-.08 3.06-.459 4.471-1.14 1.19-.57 2.299-1.34 3.279-2.33h.01l2.801-2.8 2.81-2.801 2.8-2.809v-.01c.979-.98 1.761-2.091 2.32-3.282.681-1.409 1.069-2.929 1.149-4.469.021-.44.021-.88 0-1.32-.08-1.53-.47-3.059-1.149-4.469-.57-1.19-1.341-2.301-2.321-3.281-.979-.979-2.099-1.759-3.289-2.32-1.41-.679-2.93-1.059-4.46-1.14-.44-.029-.88-.03-1.32 0-1.54.08-3.06.46-4.47 1.14-1.19.561-2.3 1.342-3.28 2.32h-.01zm-10.51 27.33c-1.771-1.77-3-3.87-3.689-6.109-.13-.41-.241-.83-.33-1.24-.001-.01-.001-.01 0-.021-.191-.85-.291-1.699-.32-2.56-.021-.38-.021-.771 0-1.14.04-1.301.26-2.58.64-3.82.41-1.33 1-2.609 1.8-3.811.401-.619.86-1.21 1.37-1.779.09-.09.17-.181.271-.271l.948-.96v-.01l2.101-2.099 5.62-5.62c5.81-5.812 15.229-5.812 21.029-.001 5.811 5.81 5.811 15.22 0 21.029l-8.409 8.41c-2.48 2.48-5.61 3.901-8.829 4.26-1.611.19-3.251.101-4.831-.239-1.59-.339-3.13-.949-4.561-1.811-1-.607-1.951-1.347-2.81-2.208z" fill="#656d78" data-original="#656d78" style="" class=""/><path d="m59.495 57.745-3.51 3.5-13.82-13.82.7-.699h.01l2.1-2.101.7-.7z" fill="#f46744" data-original="#ed5565" style="" class=""/><path d="m21.145 42.515 2.1 2.1-2.1 2.1h-.01l-2.1-2.1z" fill="#656d78" data-original="#656d78" style="" class=""/><path d="m21.845 47.415-13.821 13.82-3.509-3.5 13.82-13.82.7.7 2.1 2.1h.01z" fill="#0bbba4" data-original="#5d9cec" style="" class=""/><path d="m33.006 49.165c-.61-.27-1.292-.42-2.002-.42s-1.389.15-1.999.42c-1.76.771-3 2.53-3 4.58 0 2.761 2.24 5 5 5 2.77 0 5-2.24 5-5 0-2.05-1.231-3.809-2.999-4.58z" fill="#8cc152" data-original="#8cc152" style="" class=""/><g><path d="m23.241 45.611c-.256 0-.512-.097-.707-.292-.391-.392-.391-1.023 0-1.415 3.736-3.734 9.06-5.347 14.236-4.316.543.108.895.634.786 1.176-.107.541-.626.898-1.176.785-4.529-.898-9.171.509-12.433 3.771-.194.195-.45.291-.706.291z" fill="#545c66" data-original="#545c66" style="" class=""/></g><g><path d="m21.137 43.506c-.257 0-.512-.098-.707-.293-.391-.391-.391-1.023 0-1.414 3.262-3.26 4.671-7.907 3.771-12.433-.108-.541.243-1.068.785-1.176.546-.114 1.068.244 1.176.785 1.032 5.183-.582 10.504-4.317 14.237-.197.196-.452.294-.708.294z" fill="#545c66" data-original="#545c66" style="" class=""/></g><g><path d="m58.649 29.132c-.256 0-.512-.099-.707-.294-.391-.391-.391-1.023 0-1.414 5.408-5.409 5.407-14.209-.001-19.615-5.408-5.409-14.207-5.409-19.614-.001-.392.391-1.024.391-1.415 0s-.391-1.023 0-1.414c6.188-6.186 16.257-6.188 22.443.001 6.188 6.187 6.188 16.255.001 22.443-.195.195-.451.293-.707.294z" fill="#656d78" data-original="#656d78" style="" class=""/></g><g><path d="m39.72 41.902c-4.239 0-8.225-1.651-11.222-4.65-6.188-6.188-6.189-16.255-.002-22.442.391-.391 1.023-.391 1.414 0s.392 1.023 0 1.414c-2.619 2.619-4.062 6.104-4.062 9.808s1.442 7.187 4.063 9.808c2.621 2.62 6.104 4.063 9.809 4.063 3.704 0 7.188-1.443 9.808-4.063.391-.391 1.023-.391 1.414 0 .391.392.391 1.023 0 1.414-2.999 2.997-6.983 4.648-11.222 4.648z" fill="#656d78" data-original="#656d78" style="" class=""/></g><g><path d="m29.203 16.517c-.256.001-.512-.098-.707-.293-.391-.391-.391-1.023 0-1.414l8.416-8.416c.391-.391 1.023-.391 1.414.001.39.39.391 1.022.001 1.413l-8.417 8.416c-.195.195-.451.293-.707.293z" fill="#656d78" data-original="#656d78" style="" class=""/></g><g><path d="m50.234 37.546c-.256 0-.512-.097-.707-.293-.391-.391-.391-1.023 0-1.414l8.415-8.415c.391-.391 1.023-.391 1.414.001.391.391.391 1.023 0 1.413l-8.415 8.415c-.195.196-.452.293-.707.293z" fill="#656d78" data-original="#656d78" style="" class=""/></g><g><path d="m21.14 47.715c-.257 0-.513-.098-.708-.293-.391-.391-.391-1.023.001-1.414l2.102-2.104c.391-.391 1.023-.391 1.414 0s.391 1.023 0 1.415l-2.103 2.103c-.196.195-.451.293-.706.293z" fill="#656d78" data-original="#656d78" style="" class=""/></g><g><path d="m19.038 45.611c-.256 0-.512-.098-.707-.293-.391-.391-.391-1.023 0-1.414l2.103-2.102c.39-.391 1.023-.391 1.414 0s.391 1.024 0 1.414l-2.103 2.102c-.195.196-.451.293-.707.293z" fill="#656d78" data-original="#656d78" style="" class=""/></g><g><path d="m8.021 62.234c-.256-.001-.512-.099-.707-.294l-3.505-3.504c-.188-.188-.293-.44-.293-.707 0-.266.105-.519.293-.707l13.82-13.817c.391-.39 1.023-.39 1.414.001l3.505 3.502c.188.188.293.442.293.707 0 .266-.105.52-.293.707l-13.82 13.818c-.196.196-.452.293-.707.294zm-2.091-4.505 2.091 2.091 12.406-12.405-2.09-2.089z" fill="#0bbba4" data-original="#5d9cec" style="" class=""/></g><g><path d="m23.241 45.611c-.256 0-.512-.097-.707-.292l-2.101-2.103c-.391-.391-.391-1.023 0-1.414.39-.391 1.023-.391 1.414 0l2.101 2.102c.391.391.391 1.023 0 1.415-.195.196-.451.292-.707.292z" fill="#656d78" data-original="#656d78" style="" class=""/></g><path d="m33.006 49.165c-.315-.139-.65-.243-.997-.314v4.893c0 .551-.448.999-1 .999s-1-.448-1-1v-4.893c-.35.071-.687.175-1.004.315-.358.157-.688.363-.996.597v3.98c0 1.654 1.346 3 3 3 1.655 0 3-1.345 3-2.999v-3.979c-.311-.234-.642-.442-1.003-.599z" fill="#a0d468" data-original="#a0d468" style="" class=""/></g></g></svg>
