<svg id="Layer_2" enable-background="new 0 0 24 24" height="512" viewBox="0 0 24 24" width="512" xmlns="http://www.w3.org/2000/svg"><g><g><path d="m19.5 13h-8c-.276 0-.5-.224-.5-.5s.224-.5.5-.5h8c.276 0 .5.224.5.5s-.224.5-.5.5z"/></g></g><g><g><path d="m23.5 18h-12c-.276 0-.5-.224-.5-.5s.224-.5.5-.5h12c.276 0 .5.224.5.5s-.224.5-.5.5z"/></g></g><g><g><path d="m19.5 23h-8c-.276 0-.5-.224-.5-.5s.224-.5.5-.5h8c.276 0 .5.224.5.5s-.224.5-.5.5z"/></g></g><g><path d="m22.5 8h-10c-.827 0-1.5-.673-1.5-1.5v-3c0-.827.673-1.5 1.5-1.5h10c.827 0 1.5.673 1.5 1.5v3c0 .827-.673 1.5-1.5 1.5zm-10-5c-.276 0-.5.224-.5.5v3c0 .276.224.5.5.5h10c.276 0 .5-.224.5-.5v-3c0-.276-.224-.5-.5-.5z"/></g><g><path d="m8.5 5.5h-8c-.276 0-.5-.224-.5-.5s.224-.5.5-.5h8c.276 0 .5.224.5.5s-.224.5-.5.5z"/></g><g><path d="m4.5 9.5c-.128 0-.256-.049-.354-.146-.195-.195-.195-.512 0-.707l3.647-3.647-3.647-3.646c-.195-.195-.195-.512 0-.707s.512-.195.707 0l4 4c.195.195.195.512 0 .707l-4 4c-.097.097-.225.146-.353.146z"/></g></svg>